<?xml version="1.0" encoding="utf-8" standalone="no"?>
<!DOCTYPE svg PUBLIC "-//W3C//DTD SVG 1.1//EN"
  "http://www.w3.org/Graphics/SVG/1.1/DTD/svg11.dtd">
<svg xmlns:xlink="http://www.w3.org/1999/xlink" width="1144.758125pt" height="228.644063pt" viewBox="0 0 1144.758125 228.644063" xmlns="http://www.w3.org/2000/svg" version="1.1">
 <metadata>
  <rdf:RDF xmlns:dc="http://purl.org/dc/elements/1.1/" xmlns:cc="http://creativecommons.org/ns#" xmlns:rdf="http://www.w3.org/1999/02/22-rdf-syntax-ns#">
   <cc:Work>
    <dc:type rdf:resource="http://purl.org/dc/dcmitype/StillImage"/>
    <dc:date>2026-04-29T10:57:01.680381</dc:date>
    <dc:format>image/svg+xml</dc:format>
    <dc:creator>
     <cc:Agent>
      <dc:title>Matplotlib v3.9.2, https://matplotlib.org/</dc:title>
     </cc:Agent>
    </dc:creator>
   </cc:Work>
  </rdf:RDF>
 </metadata>
 <defs>
  <style type="text/css">*{stroke-linejoin: round; stroke-linecap: butt}</style>
 </defs>
 <g id="figure_1">
  <g id="patch_1">
   <path d="M 0 228.644063 
L 1144.758125 228.644063 
L 1144.758125 0 
L 0 0 
z
" style="fill: #ffffff"/>
  </g>
  <g id="axes_1">
   <g id="patch_2">
    <path d="M 32.428125 191.72 
L 376.758125 191.72 
L 376.758125 38.43375 
L 32.428125 38.43375 
z
" style="fill: #ffffff"/>
   </g>
   <g id="patch_3">
    <path d="M 48.079489 45.996046 
L 56.482905 45.996046 
L 56.482905 184.752443 
L 48.079489 184.752443 
z
" clip-path="url(#pe2aaefe5f8)" style="fill: #38329a"/>
   </g>
   <g id="patch_4">
    <path d="M 58.58376 45.996046 
L 66.987176 45.996046 
L 66.987176 152.208436 
L 58.58376 152.208436 
z
" clip-path="url(#pe2aaefe5f8)" style="fill: #38329a"/>
   </g>
   <g id="patch_5">
    <path d="M 69.08803 45.996046 
L 77.491447 45.996046 
L 77.491447 116.804306 
L 69.08803 116.804306 
z
" clip-path="url(#pe2aaefe5f8)" style="fill: #38329a"/>
   </g>
   <g id="patch_6">
    <path d="M 79.592301 45.996046 
L 87.995718 45.996046 
L 87.995718 90.447667 
L 79.592301 90.447667 
z
" clip-path="url(#pe2aaefe5f8)" style="fill: #38329a"/>
   </g>
   <g id="patch_7">
    <path d="M 90.096572 45.996046 
L 98.499989 45.996046 
L 98.499989 72.464743 
L 90.096572 72.464743 
z
" clip-path="url(#pe2aaefe5f8)" style="fill: #38329a"/>
   </g>
   <g id="patch_8">
    <path d="M 100.600843 45.996046 
L 109.00426 45.996046 
L 109.00426 60.6637 
L 100.600843 60.6637 
z
" clip-path="url(#pe2aaefe5f8)" style="fill: #38329a"/>
   </g>
   <g id="patch_9">
    <path d="M 111.105114 45.996046 
L 119.508531 45.996046 
L 119.508531 53.193039 
L 111.105114 53.193039 
z
" clip-path="url(#pe2aaefe5f8)" style="fill: #38329a"/>
   </g>
   <g id="patch_10">
    <path d="M 121.609385 45.996046 
L 130.012802 45.996046 
L 130.012802 48.724349 
L 121.609385 48.724349 
z
" clip-path="url(#pe2aaefe5f8)" style="fill: #38329a"/>
   </g>
   <g id="patch_11">
    <path d="M 132.113656 45.996046 
L 140.517073 45.996046 
L 140.517073 46.339699 
L 132.113656 46.339699 
z
" clip-path="url(#pe2aaefe5f8)" style="fill: #38329a"/>
   </g>
   <g id="patch_12">
    <path d="M 142.617927 45.996046 
L 151.021343 45.996046 
L 151.021343 45.401307 
L 142.617927 45.401307 
z
" clip-path="url(#pe2aaefe5f8)" style="fill: #38329a"/>
   </g>
   <g id="patch_13">
    <path d="M 153.122198 45.996046 
L 161.525614 45.996046 
L 161.525614 45.455374 
L 153.122198 45.455374 
z
" clip-path="url(#pe2aaefe5f8)" style="fill: #38329a"/>
   </g>
   <g id="patch_14">
    <path d="M 163.626469 45.996046 
L 172.029885 45.996046 
L 172.029885 46.180326 
L 163.626469 46.180326 
z
" clip-path="url(#pe2aaefe5f8)" style="fill: #38329a"/>
   </g>
   <g id="patch_15">
    <path d="M 174.130739 45.996046 
L 182.534156 45.996046 
L 182.534156 47.336078 
L 174.130739 47.336078 
z
" clip-path="url(#pe2aaefe5f8)" style="fill: #38329a"/>
   </g>
   <g id="patch_16">
    <path d="M 184.63501 45.996046 
L 193.038427 45.996046 
L 193.038427 48.744672 
L 184.63501 48.744672 
z
" clip-path="url(#pe2aaefe5f8)" style="fill: #38329a"/>
   </g>
   <g id="patch_17">
    <path d="M 195.139281 45.996046 
L 203.542698 45.996046 
L 203.542698 50.27114 
L 195.139281 50.27114 
z
" clip-path="url(#pe2aaefe5f8)" style="fill: #38329a"/>
   </g>
   <g id="patch_18">
    <path d="M 205.643552 45.996046 
L 214.046969 45.996046 
L 214.046969 51.816285 
L 205.643552 51.816285 
z
" clip-path="url(#pe2aaefe5f8)" style="fill: #38329a"/>
   </g>
   <g id="patch_19">
    <path d="M 216.147823 45.996046 
L 224.55124 45.996046 
L 224.55124 53.303113 
L 216.147823 53.303113 
z
" clip-path="url(#pe2aaefe5f8)" style="fill: #38329a"/>
   </g>
   <g id="patch_20">
    <path d="M 226.652094 45.996046 
L 235.055511 45.996046 
L 235.055511 54.677204 
L 226.652094 54.677204 
z
" clip-path="url(#pe2aaefe5f8)" style="fill: #38329a"/>
   </g>
   <g id="patch_21">
    <path d="M 237.156365 45.996046 
L 245.559781 45.996046 
L 245.559781 55.898679 
L 237.156365 55.898679 
z
" clip-path="url(#pe2aaefe5f8)" style="fill: #38329a"/>
   </g>
   <g id="patch_22">
    <path d="M 247.660636 45.996046 
L 256.064052 45.996046 
L 256.064052 56.939475 
L 247.660636 56.939475 
z
" clip-path="url(#pe2aaefe5f8)" style="fill: #38329a"/>
   </g>
   <g id="patch_23">
    <path d="M 258.164907 45.996046 
L 266.568323 45.996046 
L 266.568323 57.780799 
L 258.164907 57.780799 
z
" clip-path="url(#pe2aaefe5f8)" style="fill: #38329a"/>
   </g>
   <g id="patch_24">
    <path d="M 268.669177 45.996046 
L 277.072594 45.996046 
L 277.072594 58.414218 
L 268.669177 58.414218 
z
" clip-path="url(#pe2aaefe5f8)" style="fill: #38329a"/>
   </g>
   <g id="patch_25">
    <path d="M 279.173448 45.996046 
L 287.576865 45.996046 
L 287.576865 58.836101 
L 279.173448 58.836101 
z
" clip-path="url(#pe2aaefe5f8)" style="fill: #38329a"/>
   </g>
   <g id="patch_26">
    <path d="M 289.677719 45.996046 
L 298.081136 45.996046 
L 298.081136 59.046212 
L 289.677719 59.046212 
z
" clip-path="url(#pe2aaefe5f8)" style="fill: #38329a"/>
   </g>
   <g id="patch_27">
    <path d="M 300.18199 45.996046 
L 308.585407 45.996046 
L 308.585407 59.050168 
L 300.18199 59.050168 
z
" clip-path="url(#pe2aaefe5f8)" style="fill: #38329a"/>
   </g>
   <g id="patch_28">
    <path d="M 310.686261 45.996046 
L 319.089678 45.996046 
L 319.089678 58.851938 
L 310.686261 58.851938 
z
" clip-path="url(#pe2aaefe5f8)" style="fill: #38329a"/>
   </g>
   <g id="patch_29">
    <path d="M 321.190532 45.996046 
L 329.593949 45.996046 
L 329.593949 58.463872 
L 321.190532 58.463872 
z
" clip-path="url(#pe2aaefe5f8)" style="fill: #38329a"/>
   </g>
   <g id="patch_30">
    <path d="M 331.694803 45.996046 
L 340.09822 45.996046 
L 340.09822 57.894646 
L 331.694803 57.894646 
z
" clip-path="url(#pe2aaefe5f8)" style="fill: #38329a"/>
   </g>
   <g id="patch_31">
    <path d="M 342.199074 45.996046 
L 350.60249 45.996046 
L 350.60249 57.156013 
L 342.199074 57.156013 
z
" clip-path="url(#pe2aaefe5f8)" style="fill: #38329a"/>
   </g>
   <g id="patch_32">
    <path d="M 352.703345 45.996046 
L 361.106761 45.996046 
L 361.106761 56.259331 
L 352.703345 56.259331 
z
" clip-path="url(#pe2aaefe5f8)" style="fill: #38329a"/>
   </g>
   <g id="matplotlib.axis_1">
    <g id="xtick_1">
     <g id="line2d_1">
      <path d="M 41.776926 191.72 
L 41.776926 38.43375 
" clip-path="url(#pe2aaefe5f8)" style="fill: none; stroke: #b0b0b0; stroke-width: 0.8; stroke-linecap: square"/>
     </g>
     <g id="line2d_2">
      <defs>
       <path id="m145277bfdd" d="M 0 0 
L 0 3.5 
" style="stroke: #000000; stroke-width: 0.8"/>
      </defs>
      <g>
       <use xlink:href="#m145277bfdd" x="41.776926" y="191.72" style="stroke: #000000; stroke-width: 0.8"/>
      </g>
     </g>
     <g id="text_1">
      <!-- 0 -->
      <g transform="translate(39.433176 205.209063) scale(0.1 -0.1)">
       <defs>
        <path id="Garamond-30" d="M 2800 1972 
Q 2800 1650 2753 1400 
Q 2669 969 2519 678 
Q 2369 388 2163 188 
Q 2013 41 1844 -26 
Q 1675 -94 1500 -94 
Q 1191 -94 914 112 
Q 638 319 431 794 
Q 225 1269 225 1913 
Q 225 2416 350 2878 
Q 475 3341 679 3595 
Q 884 3850 1086 3962 
Q 1288 4075 1525 4075 
Q 1859 4075 2173 3812 
Q 2488 3550 2675 2997 
Q 2800 2625 2800 1972 
z
M 2331 2075 
Q 2328 2844 2275 3119 
Q 2188 3572 1989 3753 
Q 1791 3934 1525 3934 
Q 1303 3934 1104 3790 
Q 906 3647 831 3341 
Q 703 2844 703 1834 
Q 703 834 901 436 
Q 1100 38 1497 38 
Q 1769 38 1967 206 
Q 2166 375 2252 833 
Q 2338 1291 2334 1859 
L 2331 2075 
z
" transform="scale(0.015625)"/>
       </defs>
       <use xlink:href="#Garamond-30"/>
      </g>
     </g>
    </g>
    <g id="xtick_2">
     <g id="line2d_3">
      <path d="M 94.298281 191.72 
L 94.298281 38.43375 
" clip-path="url(#pe2aaefe5f8)" style="fill: none; stroke: #b0b0b0; stroke-width: 0.8; stroke-linecap: square"/>
     </g>
     <g id="line2d_4">
      <g>
       <use xlink:href="#m145277bfdd" x="94.298281" y="191.72" style="stroke: #000000; stroke-width: 0.8"/>
      </g>
     </g>
     <g id="text_2">
      <!-- 5 -->
      <g transform="translate(91.954531 205.209063) scale(0.1 -0.1)">
       <defs>
        <path id="Garamond-35" d="M 2369 3606 
Q 2019 3578 1803 3578 
Q 1644 3578 1466 3588 
Q 1369 3594 1350 3594 
Q 969 3594 941 3578 
Q 928 3572 925 3550 
Q 916 3500 844 2434 
Q 984 2506 1115 2536 
Q 1247 2566 1463 2566 
Q 1616 2566 1675 2547 
Q 1972 2450 2103 2372 
Q 2284 2259 2398 2115 
Q 2513 1972 2609 1694 
Q 2678 1494 2678 1275 
Q 2678 1038 2611 833 
Q 2544 628 2444 490 
Q 2344 353 2147 204 
Q 1950 56 1683 -22 
Q 1416 -100 1325 -103 
L 872 -63 
Q 684 -31 543 39 
Q 403 109 356 175 
Q 328 216 328 281 
Q 328 331 398 390 
Q 469 450 572 450 
Q 619 450 675 422 
L 922 263 
Q 1006 188 1131 122 
Q 1150 113 1225 100 
Q 1406 75 1422 75 
Q 1491 75 1656 131 
Q 1822 188 1962 323 
Q 2103 459 2204 667 
Q 2306 875 2306 1128 
Q 2306 1581 2022 1875 
Q 1738 2169 1338 2169 
Q 1159 2169 1007 2109 
Q 856 2050 803 1978 
L 756 1959 
Q 719 1944 703 1944 
L 663 1953 
Q 653 2009 653 2038 
Q 653 2063 663 2125 
Q 684 2278 686 2442 
Q 688 2606 719 2738 
L 709 2888 
Q 731 3003 734 3109 
Q 744 3828 794 3934 
Q 816 3984 869 3984 
Q 891 3984 941 3978 
L 959 3975 
L 1356 3978 
Q 1625 3963 1753 3963 
Q 2047 3963 2225 4003 
Q 2313 4084 2359 4084 
Q 2378 4084 2428 4078 
L 2438 4041 
L 2413 3909 
L 2397 3700 
Q 2394 3678 2369 3606 
z
" transform="scale(0.015625)"/>
       </defs>
       <use xlink:href="#Garamond-35"/>
      </g>
     </g>
    </g>
    <g id="xtick_3">
     <g id="line2d_5">
      <path d="M 146.819635 191.72 
L 146.819635 38.43375 
" clip-path="url(#pe2aaefe5f8)" style="fill: none; stroke: #b0b0b0; stroke-width: 0.8; stroke-linecap: square"/>
     </g>
     <g id="line2d_6">
      <g>
       <use xlink:href="#m145277bfdd" x="146.819635" y="191.72" style="stroke: #000000; stroke-width: 0.8"/>
      </g>
     </g>
     <g id="text_3">
      <!-- 10 -->
      <g transform="translate(142.132135 205.209063) scale(0.1 -0.1)">
       <defs>
        <path id="Garamond-31" d="M 2269 6 
L 838 6 
Q 834 34 834 53 
Q 834 106 856 126 
Q 878 147 994 169 
Q 1175 206 1288 259 
Q 1319 328 1319 388 
L 1319 581 
Q 1319 616 1328 897 
Q 1331 1003 1334 1816 
L 1341 2550 
L 1334 2978 
Q 1334 3072 1341 3569 
Q 631 3063 563 3063 
Q 538 3063 509 3089 
Q 481 3116 481 3141 
Q 481 3172 503 3191 
Q 547 3231 713 3325 
Q 738 3338 928 3494 
Q 1231 3747 1372 3890 
Q 1513 4034 1544 4053 
Q 1606 4056 1641 4056 
Q 1722 4056 1742 4029 
Q 1763 4003 1763 3838 
L 1741 1053 
L 1741 778 
Q 1741 678 1737 576 
Q 1734 475 1734 428 
Q 1734 316 1763 281 
Q 1781 259 1878 225 
L 2091 181 
Q 2228 147 2241 134 
Q 2272 106 2272 47 
L 2269 6 
z
" transform="scale(0.015625)"/>
       </defs>
       <use xlink:href="#Garamond-31"/>
       <use xlink:href="#Garamond-30" x="46.875"/>
      </g>
     </g>
    </g>
    <g id="xtick_4">
     <g id="line2d_7">
      <path d="M 199.34099 191.72 
L 199.34099 38.43375 
" clip-path="url(#pe2aaefe5f8)" style="fill: none; stroke: #b0b0b0; stroke-width: 0.8; stroke-linecap: square"/>
     </g>
     <g id="line2d_8">
      <g>
       <use xlink:href="#m145277bfdd" x="199.34099" y="191.72" style="stroke: #000000; stroke-width: 0.8"/>
      </g>
     </g>
     <g id="text_4">
      <!-- 15 -->
      <g transform="translate(194.65349 205.209063) scale(0.1 -0.1)">
       <use xlink:href="#Garamond-31"/>
       <use xlink:href="#Garamond-35" x="46.875"/>
      </g>
     </g>
    </g>
    <g id="xtick_5">
     <g id="line2d_9">
      <path d="M 251.862344 191.72 
L 251.862344 38.43375 
" clip-path="url(#pe2aaefe5f8)" style="fill: none; stroke: #b0b0b0; stroke-width: 0.8; stroke-linecap: square"/>
     </g>
     <g id="line2d_10">
      <g>
       <use xlink:href="#m145277bfdd" x="251.862344" y="191.72" style="stroke: #000000; stroke-width: 0.8"/>
      </g>
     </g>
     <g id="text_5">
      <!-- 20 -->
      <g transform="translate(247.174844 205.209063) scale(0.1 -0.1)">
       <defs>
        <path id="Garamond-32" d="M 2728 6 
Q 2259 25 1472 25 
L 794 6 
L 491 16 
L 250 6 
Q 213 9 141 22 
Q 197 153 284 263 
Q 544 581 1044 1084 
Q 1744 1788 1966 2189 
Q 2188 2591 2188 2944 
Q 2188 3275 1963 3500 
Q 1738 3725 1409 3725 
Q 1213 3725 1028 3633 
Q 844 3541 731 3400 
Q 659 3309 541 3038 
Q 475 2888 463 2875 
Q 444 2853 419 2853 
Q 394 2853 370 2879 
Q 347 2906 347 2947 
Q 347 3088 489 3397 
Q 631 3706 907 3881 
Q 1184 4056 1550 4056 
Q 2028 4056 2348 3745 
Q 2669 3434 2669 3003 
Q 2669 2663 2450 2311 
Q 2231 1959 1444 1234 
Q 1184 997 1075 884 
Q 966 772 634 397 
Q 1113 378 1503 378 
Q 1588 378 1688 384 
Q 1872 391 1903 391 
L 2338 381 
Q 2409 381 2484 450 
Q 2559 519 2688 838 
L 2763 841 
Q 2778 841 2809 838 
Q 2825 806 2825 791 
L 2819 766 
Q 2794 675 2775 434 
Q 2763 294 2728 6 
z
" transform="scale(0.015625)"/>
       </defs>
       <use xlink:href="#Garamond-32"/>
       <use xlink:href="#Garamond-30" x="46.875"/>
      </g>
     </g>
    </g>
    <g id="xtick_6">
     <g id="line2d_11">
      <path d="M 304.383699 191.72 
L 304.383699 38.43375 
" clip-path="url(#pe2aaefe5f8)" style="fill: none; stroke: #b0b0b0; stroke-width: 0.8; stroke-linecap: square"/>
     </g>
     <g id="line2d_12">
      <g>
       <use xlink:href="#m145277bfdd" x="304.383699" y="191.72" style="stroke: #000000; stroke-width: 0.8"/>
      </g>
     </g>
     <g id="text_6">
      <!-- 25 -->
      <g transform="translate(299.696199 205.209063) scale(0.1 -0.1)">
       <use xlink:href="#Garamond-32"/>
       <use xlink:href="#Garamond-35" x="46.875"/>
      </g>
     </g>
    </g>
    <g id="xtick_7">
     <g id="line2d_13">
      <path d="M 356.905053 191.72 
L 356.905053 38.43375 
" clip-path="url(#pe2aaefe5f8)" style="fill: none; stroke: #b0b0b0; stroke-width: 0.8; stroke-linecap: square"/>
     </g>
     <g id="line2d_14">
      <g>
       <use xlink:href="#m145277bfdd" x="356.905053" y="191.72" style="stroke: #000000; stroke-width: 0.8"/>
      </g>
     </g>
     <g id="text_7">
      <!-- 30 -->
      <g transform="translate(352.217553 205.209063) scale(0.1 -0.1)">
       <defs>
        <path id="Garamond-33" d="M 534 3150 
L 431 3206 
Q 628 3684 900 3879 
Q 1172 4075 1534 4075 
Q 1872 4075 2075 3925 
Q 2378 3700 2378 3419 
Q 2378 3191 2223 2959 
Q 2069 2728 1681 2441 
L 1756 2444 
Q 2000 2444 2226 2320 
Q 2453 2197 2584 1936 
Q 2716 1675 2716 1375 
Q 2716 772 2273 342 
Q 1831 -88 1147 -88 
Q 628 -88 381 63 
Q 247 141 247 259 
Q 247 325 301 378 
Q 356 431 438 431 
Q 541 431 688 319 
Q 1034 53 1291 53 
Q 1678 53 1978 379 
Q 2278 706 2278 1203 
Q 2278 1616 2076 1880 
Q 1875 2144 1566 2144 
Q 1334 2144 1084 1925 
L 1009 2050 
Q 1166 2184 1291 2278 
Q 1672 2556 1859 2825 
Q 1994 3019 1994 3166 
Q 1994 3413 1819 3583 
Q 1644 3753 1359 3753 
Q 891 3753 534 3150 
z
" transform="scale(0.015625)"/>
       </defs>
       <use xlink:href="#Garamond-33"/>
       <use xlink:href="#Garamond-30" x="46.875"/>
      </g>
     </g>
    </g>
   </g>
   <g id="matplotlib.axis_2">
    <g id="ytick_1">
     <g id="line2d_15">
      <path d="M 32.428125 166.592864 
L 376.758125 166.592864 
" clip-path="url(#pe2aaefe5f8)" style="fill: none; stroke: #b0b0b0; stroke-width: 0.8; stroke-linecap: square"/>
     </g>
     <g id="line2d_16">
      <defs>
       <path id="m5b6f11c8f6" d="M 0 0 
L -3.5 0 
" style="stroke: #000000; stroke-width: 0.8"/>
      </defs>
      <g>
       <use xlink:href="#m5b6f11c8f6" x="32.428125" y="166.592864" style="stroke: #000000; stroke-width: 0.8"/>
      </g>
     </g>
     <g id="text_8">
      <!-- −0.6 -->
      <g transform="translate(7.2 169.837395) scale(0.1 -0.1)">
       <defs>
        <path id="Garamond-2212" d="M 456 2128 
L 3813 2128 
L 3813 1853 
L 456 1853 
L 456 2128 
z
" transform="scale(0.015625)"/>
        <path id="Garamond-2e" d="M 375 253 
Q 375 391 476 494 
Q 578 597 713 597 
Q 844 597 934 500 
Q 1025 403 1025 256 
Q 1025 109 929 9 
Q 834 -91 700 -91 
Q 569 -91 472 11 
Q 375 113 375 253 
z
" transform="scale(0.015625)"/>
        <path id="Garamond-36" d="M 2459 4094 
Q 2488 4047 2500 3991 
Q 2481 3956 2441 3944 
Q 2309 3909 2053 3763 
Q 1994 3731 1691 3472 
Q 1556 3378 1366 3122 
Q 1106 2778 993 2508 
Q 881 2238 794 1800 
Q 769 1675 759 1359 
L 750 1244 
Q 750 844 986 445 
Q 1222 47 1575 47 
Q 1759 47 1920 159 
Q 2081 272 2175 540 
Q 2269 809 2269 1191 
Q 2269 1709 2070 1957 
Q 1872 2206 1594 2206 
Q 1509 2206 1444 2181 
L 1419 2175 
Q 1378 2175 1334 2266 
Q 1416 2319 1531 2353 
Q 1647 2388 1681 2388 
Q 1703 2388 1966 2341 
L 2056 2297 
Q 2206 2250 2284 2188 
Q 2428 2072 2541 1897 
Q 2597 1806 2691 1528 
Q 2697 1509 2734 1253 
L 2719 941 
Q 2653 659 2594 547 
Q 2506 375 2300 172 
Q 2194 69 2025 3 
Q 1788 -88 1522 -88 
Q 1016 -88 664 317 
Q 313 722 313 1491 
Q 313 1919 444 2301 
Q 575 2684 816 3003 
Q 978 3219 1258 3466 
Q 1538 3713 1788 3850 
Q 2128 4031 2459 4094 
z
" transform="scale(0.015625)"/>
       </defs>
       <use xlink:href="#Garamond-2212"/>
       <use xlink:href="#Garamond-30" x="66.650391"/>
       <use xlink:href="#Garamond-2e" x="113.525391"/>
       <use xlink:href="#Garamond-36" x="135.400391"/>
      </g>
     </g>
    </g>
    <g id="ytick_2">
     <g id="line2d_17">
      <path d="M 32.428125 126.393924 
L 376.758125 126.393924 
" clip-path="url(#pe2aaefe5f8)" style="fill: none; stroke: #b0b0b0; stroke-width: 0.8; stroke-linecap: square"/>
     </g>
     <g id="line2d_18">
      <g>
       <use xlink:href="#m5b6f11c8f6" x="32.428125" y="126.393924" style="stroke: #000000; stroke-width: 0.8"/>
      </g>
     </g>
     <g id="text_9">
      <!-- −0.4 -->
      <g transform="translate(7.2 129.638456) scale(0.1 -0.1)">
       <defs>
        <path id="Garamond-34" d="M 2097 4075 
L 2241 4075 
Q 2238 3978 2238 3959 
L 2247 3500 
L 2228 3088 
L 2241 2628 
L 2241 2266 
L 2247 1772 
Q 2247 1656 2241 1422 
L 2306 1419 
L 2528 1419 
L 2741 1416 
L 2916 1422 
Q 2922 1325 2922 1278 
Q 2922 1231 2916 1134 
Q 2722 1125 2706 1125 
L 2550 1128 
L 2425 1128 
Q 2375 1128 2241 1134 
Q 2234 691 2241 -44 
Q 2222 -63 2200 -69 
L 2006 -75 
Q 1944 -75 1816 -69 
Q 1825 300 1825 459 
Q 1825 600 1819 716 
Q 1809 928 1809 959 
Q 1809 1016 1816 1134 
Q 1684 1119 1613 1119 
Q 1575 1119 1528 1122 
Q 1213 1138 1172 1138 
Q 1131 1138 972 1116 
L 650 1134 
L 475 1125 
L 356 1144 
L 206 1113 
L 178 1134 
Q 172 1203 172 1238 
Q 172 1272 178 1341 
Q 266 1456 500 1809 
L 1109 2694 
Q 1334 3028 1487 3225 
Q 1641 3422 1791 3648 
Q 1941 3875 2097 4075 
z
M 1816 1422 
L 1819 1934 
L 1816 2341 
L 1816 3388 
Q 1559 3050 1103 2366 
Q 581 1584 484 1422 
Q 622 1428 691 1428 
L 1547 1416 
Q 1641 1416 1816 1422 
z
" transform="scale(0.015625)"/>
       </defs>
       <use xlink:href="#Garamond-2212"/>
       <use xlink:href="#Garamond-30" x="66.650391"/>
       <use xlink:href="#Garamond-2e" x="113.525391"/>
       <use xlink:href="#Garamond-34" x="135.400391"/>
      </g>
     </g>
    </g>
    <g id="ytick_3">
     <g id="line2d_19">
      <path d="M 32.428125 86.194985 
L 376.758125 86.194985 
" clip-path="url(#pe2aaefe5f8)" style="fill: none; stroke: #b0b0b0; stroke-width: 0.8; stroke-linecap: square"/>
     </g>
     <g id="line2d_20">
      <g>
       <use xlink:href="#m5b6f11c8f6" x="32.428125" y="86.194985" style="stroke: #000000; stroke-width: 0.8"/>
      </g>
     </g>
     <g id="text_10">
      <!-- −0.2 -->
      <g transform="translate(7.2 89.439516) scale(0.1 -0.1)">
       <use xlink:href="#Garamond-2212"/>
       <use xlink:href="#Garamond-30" x="66.650391"/>
       <use xlink:href="#Garamond-2e" x="113.525391"/>
       <use xlink:href="#Garamond-32" x="135.400391"/>
      </g>
     </g>
    </g>
    <g id="ytick_4">
     <g id="line2d_21">
      <path d="M 32.428125 45.996046 
L 376.758125 45.996046 
" clip-path="url(#pe2aaefe5f8)" style="fill: none; stroke: #b0b0b0; stroke-width: 0.8; stroke-linecap: square"/>
     </g>
     <g id="line2d_22">
      <g>
       <use xlink:href="#m5b6f11c8f6" x="32.428125" y="45.996046" style="stroke: #000000; stroke-width: 0.8"/>
      </g>
     </g>
     <g id="text_11">
      <!-- 0.0 -->
      <g transform="translate(13.865625 49.240577) scale(0.1 -0.1)">
       <use xlink:href="#Garamond-30"/>
       <use xlink:href="#Garamond-2e" x="46.875"/>
       <use xlink:href="#Garamond-30" x="68.75"/>
      </g>
     </g>
    </g>
   </g>
   <g id="patch_33">
    <path d="M 32.428125 191.72 
L 32.428125 38.43375 
" style="fill: none; stroke: #000000; stroke-width: 0.8; stroke-linejoin: miter; stroke-linecap: square"/>
   </g>
   <g id="patch_34">
    <path d="M 376.758125 191.72 
L 376.758125 38.43375 
" style="fill: none; stroke: #000000; stroke-width: 0.8; stroke-linejoin: miter; stroke-linecap: square"/>
   </g>
   <g id="patch_35">
    <path d="M 32.428125 191.72 
L 376.758125 191.72 
" style="fill: none; stroke: #000000; stroke-width: 0.8; stroke-linejoin: miter; stroke-linecap: square"/>
   </g>
   <g id="patch_36">
    <path d="M 32.428125 38.43375 
L 376.758125 38.43375 
" style="fill: none; stroke: #000000; stroke-width: 0.8; stroke-linejoin: miter; stroke-linecap: square"/>
   </g>
   <g id="text_12">
    <!-- PC1 loadings (66.71% exp. var) -->
    <g transform="translate(124.100313 32.43375) scale(0.12 -0.12)">
     <defs>
      <path id="GillSansMT-BoldItalic-50" d="M 903 4366 
L 2328 4366 
Q 2969 4366 3369 4017 
Q 3769 3669 3769 3066 
Q 3769 2375 3339 2009 
Q 2909 1644 2188 1644 
L 1453 1644 
L 1222 0 
L 294 0 
L 903 4366 
z
M 1734 3675 
L 1550 2328 
L 1941 2328 
Q 2359 2328 2584 2515 
Q 2809 2703 2809 3028 
Q 2809 3328 2589 3501 
Q 2369 3675 1959 3675 
L 1734 3675 
z
" transform="scale(0.015625)"/>
      <path id="GillSansMT-BoldItalic-43" d="M 4403 4263 
L 4250 3456 
Q 3731 3616 3194 3616 
Q 2309 3616 1820 3109 
Q 1331 2603 1331 1919 
Q 1331 1384 1668 1067 
Q 2006 750 2578 750 
Q 3281 750 4166 1259 
L 4031 288 
Q 3253 -56 2497 -56 
Q 1547 -56 959 497 
Q 372 1050 372 1941 
Q 372 3031 1165 3726 
Q 1959 4422 3219 4422 
Q 3769 4422 4403 4263 
z
" transform="scale(0.015625)"/>
      <path id="GillSansMT-BoldItalic-31" d="M 2553 4366 
L 1941 0 
L 1038 0 
L 1650 4366 
L 2553 4366 
z
" transform="scale(0.015625)"/>
      <path id="GillSansMT-BoldItalic-20" transform="scale(0.015625)"/>
      <path id="GillSansMT-BoldItalic-6c" d="M 1684 4366 
L 1069 0 
L 206 0 
L 819 4366 
L 1684 4366 
z
" transform="scale(0.015625)"/>
      <path id="GillSansMT-BoldItalic-6f" d="M 1900 2956 
Q 2534 2956 2937 2576 
Q 3341 2197 3341 1588 
Q 3341 894 2864 419 
Q 2388 -56 1691 -56 
Q 1072 -56 648 350 
Q 225 756 225 1344 
Q 225 2003 719 2479 
Q 1213 2956 1900 2956 
z
M 1697 647 
Q 2025 647 2234 948 
Q 2444 1250 2444 1613 
Q 2444 1900 2284 2076 
Q 2125 2253 1863 2253 
Q 1516 2253 1317 1942 
Q 1119 1631 1119 1294 
Q 1119 1000 1294 823 
Q 1469 647 1697 647 
z
" transform="scale(0.015625)"/>
      <path id="GillSansMT-BoldItalic-61" d="M 3334 2859 
L 2931 0 
L 2069 0 
L 2106 269 
Q 1700 -56 1269 -56 
Q 828 -56 539 294 
Q 250 644 250 1191 
Q 250 1972 795 2464 
Q 1341 2956 2356 2956 
Q 2863 2956 3334 2859 
z
M 2188 844 
L 2381 2228 
Q 2284 2238 2194 2238 
Q 1675 2238 1411 1923 
Q 1147 1609 1147 1147 
Q 1147 884 1259 736 
Q 1372 588 1569 588 
Q 1881 588 2188 844 
z
" transform="scale(0.015625)"/>
      <path id="GillSansMT-BoldItalic-64" d="M 3506 4366 
L 2900 38 
Q 2347 -56 1900 -56 
Q 1128 -56 673 322 
Q 219 700 219 1338 
Q 219 2009 708 2482 
Q 1197 2956 2022 2956 
Q 2156 2956 2444 2925 
L 2644 4366 
L 3506 4366 
z
M 2125 678 
L 2338 2188 
Q 2225 2203 2119 2203 
Q 1656 2203 1384 1951 
Q 1113 1700 1113 1331 
Q 1113 1016 1320 831 
Q 1528 647 1888 647 
Q 1981 647 2125 678 
z
" transform="scale(0.015625)"/>
      <path id="GillSansMT-BoldItalic-69" d="M 678 3713 
Q 678 3897 809 4028 
Q 941 4159 1125 4159 
Q 1313 4159 1444 4028 
Q 1575 3897 1575 3713 
Q 1575 3525 1444 3394 
Q 1313 3263 1125 3263 
Q 941 3263 809 3394 
Q 678 3525 678 3713 
z
M 1459 2906 
L 1050 0 
L 184 0 
L 594 2906 
L 1459 2906 
z
" transform="scale(0.015625)"/>
      <path id="GillSansMT-BoldItalic-6e" d="M 1466 2906 
L 1416 2578 
Q 1900 2956 2406 2956 
Q 2788 2956 2991 2720 
Q 3194 2484 3194 2059 
Q 3194 1934 3175 1797 
L 2925 0 
L 2059 0 
L 2303 1734 
Q 2316 1809 2316 1884 
Q 2316 2316 2047 2316 
Q 1738 2316 1319 1869 
L 1056 0 
L 191 0 
L 603 2906 
L 1466 2906 
z
" transform="scale(0.015625)"/>
      <path id="GillSansMT-BoldItalic-67" d="M 3238 2906 
L 3156 2266 
L 2688 2266 
Q 2797 2038 2797 1806 
Q 2797 1359 2469 1051 
Q 2141 744 1581 744 
Q 1297 744 1176 717 
Q 1056 691 1056 588 
Q 1056 531 1134 489 
Q 1213 447 1770 358 
Q 2328 269 2568 40 
Q 2809 -188 2809 -525 
Q 2809 -1472 1313 -1472 
Q 625 -1472 276 -1278 
Q -72 -1084 -72 -756 
Q -72 -328 647 -103 
Q 244 97 244 434 
Q 244 841 831 972 
Q 325 1269 325 1813 
Q 325 2250 684 2578 
Q 1044 2906 1613 2906 
L 3238 2906 
z
M 1522 1281 
Q 1997 1281 1997 1906 
Q 1997 2100 1889 2211 
Q 1781 2322 1594 2322 
Q 1119 2322 1119 1684 
Q 1119 1281 1522 1281 
z
M 2003 -641 
Q 2003 -438 1594 -356 
L 1216 -275 
Q 1094 -275 889 -358 
Q 684 -441 684 -616 
Q 684 -916 1325 -916 
Q 1684 -916 1843 -853 
Q 2003 -791 2003 -641 
z
" transform="scale(0.015625)"/>
      <path id="GillSansMT-BoldItalic-73" d="M 2297 2694 
L 2228 2009 
Q 2003 2122 1759 2187 
Q 1516 2253 1388 2253 
Q 1197 2253 1197 2125 
Q 1197 1997 1541 1741 
Q 1934 1447 2048 1250 
Q 2163 1053 2163 856 
Q 2163 463 1858 206 
Q 1553 -50 1075 -50 
Q 578 -50 72 213 
L 191 856 
Q 722 653 984 653 
Q 1269 653 1269 813 
Q 1269 947 891 1233 
Q 513 1519 403 1689 
Q 294 1859 294 2016 
Q 294 2431 598 2693 
Q 903 2956 1381 2956 
Q 1834 2956 2297 2694 
z
" transform="scale(0.015625)"/>
      <path id="GillSansMT-BoldItalic-28" d="M 1759 4422 
L 2413 4422 
Q 1828 3684 1503 2692 
Q 1178 1700 1178 716 
Q 1178 -488 1588 -1472 
L 928 -1472 
Q 281 -78 281 978 
Q 281 2678 1759 4422 
z
" transform="scale(0.015625)"/>
      <path id="GillSansMT-BoldItalic-36" d="M 2875 4366 
L 1772 2663 
L 1784 2650 
Q 1978 2725 2209 2725 
Q 2638 2725 2913 2411 
Q 3188 2097 3188 1600 
Q 3188 903 2730 423 
Q 2272 -56 1613 -56 
Q 1016 -56 648 319 
Q 281 694 281 1306 
Q 281 1663 407 2011 
Q 534 2359 872 2869 
L 1856 4366 
L 2875 4366 
z
M 1631 756 
Q 1888 756 2083 990 
Q 2278 1225 2278 1538 
Q 2278 1738 2164 1861 
Q 2050 1984 1863 1984 
Q 1591 1984 1391 1762 
Q 1191 1541 1191 1234 
Q 1191 1022 1314 889 
Q 1438 756 1631 756 
z
" transform="scale(0.015625)"/>
      <path id="GillSansMT-BoldItalic-2e" d="M 72 488 
Q 72 706 230 865 
Q 388 1025 609 1025 
Q 828 1025 987 865 
Q 1147 706 1147 488 
Q 1147 266 987 108 
Q 828 -50 609 -50 
Q 388 -50 230 108 
Q 72 266 72 488 
z
" transform="scale(0.015625)"/>
      <path id="GillSansMT-BoldItalic-37" d="M 3328 4366 
L 1606 0 
L 653 0 
L 2028 3475 
L 594 3475 
L 769 4366 
L 3328 4366 
z
" transform="scale(0.015625)"/>
      <path id="GillSansMT-BoldItalic-25" d="M 1269 4422 
Q 1694 4422 1995 4122 
Q 2297 3822 2297 3391 
Q 2297 2969 1994 2666 
Q 1691 2363 1269 2363 
Q 844 2363 541 2666 
Q 238 2969 238 3391 
Q 238 3822 539 4122 
Q 841 4422 1269 4422 
z
M 1269 2913 
Q 1456 2913 1589 3052 
Q 1722 3191 1722 3391 
Q 1722 3588 1587 3730 
Q 1453 3872 1269 3872 
Q 1075 3872 944 3734 
Q 813 3597 813 3391 
Q 813 3200 948 3056 
Q 1084 2913 1269 2913 
z
M 4166 4422 
L 1113 -50 
L 581 -50 
L 3653 4422 
L 4166 4422 
z
M 3494 2003 
Q 3922 2003 4223 1701 
Q 4525 1400 4525 972 
Q 4525 550 4222 247 
Q 3919 -56 3494 -56 
Q 3072 -56 2767 247 
Q 2463 550 2463 972 
Q 2463 1400 2766 1701 
Q 3069 2003 3494 2003 
z
M 3494 494 
Q 3684 494 3817 633 
Q 3950 772 3950 972 
Q 3950 1169 3815 1311 
Q 3681 1453 3494 1453 
Q 3303 1453 3172 1315 
Q 3041 1178 3041 972 
Q 3041 781 3175 637 
Q 3309 494 3494 494 
z
" transform="scale(0.015625)"/>
      <path id="GillSansMT-BoldItalic-65" d="M 2994 1331 
L 1094 1331 
Q 1063 988 1250 784 
Q 1438 581 1759 581 
Q 2116 581 2834 878 
L 2681 153 
Q 2116 -56 1672 -56 
Q 1013 -56 619 328 
Q 225 713 225 1356 
Q 225 2022 684 2489 
Q 1144 2956 1797 2956 
Q 2363 2956 2702 2620 
Q 3041 2284 3041 1734 
Q 3041 1541 2994 1331 
z
M 1178 1831 
L 2194 1831 
Q 2203 1884 2203 1938 
Q 2203 2128 2087 2245 
Q 1972 2363 1778 2363 
Q 1363 2363 1178 1831 
z
" transform="scale(0.015625)"/>
      <path id="GillSansMT-BoldItalic-78" d="M 3531 2906 
L 2266 1422 
L 3122 0 
L 2175 0 
L 1703 909 
L 953 0 
L -134 0 
L 1241 1522 
L 409 2906 
L 1363 2906 
L 1797 2053 
L 2472 2906 
L 3531 2906 
z
" transform="scale(0.015625)"/>
      <path id="GillSansMT-BoldItalic-70" d="M 1772 3469 
L 1697 2906 
Q 1953 2956 2228 2956 
Q 2797 2956 3148 2607 
Q 3500 2259 3500 1691 
Q 3500 963 2969 453 
Q 2438 -56 1678 -56 
Q 1506 -56 1288 0 
L 1081 -1472 
L 219 -1472 
L 678 1825 
Q 422 1634 209 1353 
Q 97 1203 25 1203 
Q -25 1203 -25 1259 
Q -25 1391 170 1736 
Q 366 2081 763 2406 
L 909 3469 
L 1772 3469 
z
M 1606 2278 
L 1388 703 
Q 1513 647 1650 647 
Q 2106 647 2356 947 
Q 2606 1247 2606 1672 
Q 2606 2319 1941 2319 
Q 1788 2319 1606 2278 
z
" transform="scale(0.015625)"/>
      <path id="GillSansMT-BoldItalic-76" d="M 3078 2906 
L 1503 -50 
L 916 -50 
L 172 2906 
L 1013 2906 
L 1388 1294 
L 2163 2906 
L 3078 2906 
z
" transform="scale(0.015625)"/>
      <path id="GillSansMT-BoldItalic-72" d="M 1422 2906 
L 1356 2491 
L 1369 2478 
Q 1756 2956 2075 2956 
Q 2319 2956 2591 2638 
L 2188 1838 
Q 1978 2150 1778 2150 
Q 1606 2150 1434 1972 
Q 1263 1794 1253 1728 
L 1013 0 
L 147 0 
L 556 2906 
L 1422 2906 
z
" transform="scale(0.015625)"/>
      <path id="GillSansMT-BoldItalic-29" d="M 416 -1472 
L -238 -1472 
Q 347 -734 672 258 
Q 997 1250 997 2234 
Q 997 3438 588 4422 
L 1247 4422 
Q 1894 3028 1894 1972 
Q 1894 275 416 -1472 
z
" transform="scale(0.015625)"/>
     </defs>
     <use xlink:href="#GillSansMT-BoldItalic-50"/>
     <use xlink:href="#GillSansMT-BoldItalic-43" x="58.300781"/>
     <use xlink:href="#GillSansMT-BoldItalic-31" x="127.099609"/>
     <use xlink:href="#GillSansMT-BoldItalic-20" x="180.175781"/>
     <use xlink:href="#GillSansMT-BoldItalic-6c" x="207.958984"/>
     <use xlink:href="#GillSansMT-BoldItalic-6f" x="233.935547"/>
     <use xlink:href="#GillSansMT-BoldItalic-61" x="290.234375"/>
     <use xlink:href="#GillSansMT-BoldItalic-64" x="345.410156"/>
     <use xlink:href="#GillSansMT-BoldItalic-69" x="399.609375"/>
     <use xlink:href="#GillSansMT-BoldItalic-6e" x="425.585938"/>
     <use xlink:href="#GillSansMT-BoldItalic-67" x="480.761719"/>
     <use xlink:href="#GillSansMT-BoldItalic-73" x="529.785156"/>
     <use xlink:href="#GillSansMT-BoldItalic-20" x="567.285156"/>
     <use xlink:href="#GillSansMT-BoldItalic-28" x="595.068359"/>
     <use xlink:href="#GillSansMT-BoldItalic-36" x="629.492188"/>
     <use xlink:href="#GillSansMT-BoldItalic-36" x="682.568359"/>
     <use xlink:href="#GillSansMT-BoldItalic-2e" x="735.644531"/>
     <use xlink:href="#GillSansMT-BoldItalic-37" x="761.621094"/>
     <use xlink:href="#GillSansMT-BoldItalic-31" x="814.697266"/>
     <use xlink:href="#GillSansMT-BoldItalic-25" x="867.773438"/>
     <use xlink:href="#GillSansMT-BoldItalic-20" x="939.697266"/>
     <use xlink:href="#GillSansMT-BoldItalic-65" x="967.480469"/>
     <use xlink:href="#GillSansMT-BoldItalic-78" x="1016.457031"/>
     <use xlink:href="#GillSansMT-BoldItalic-70" x="1069.533203"/>
     <use xlink:href="#GillSansMT-BoldItalic-2e" x="1127.833984"/>
     <use xlink:href="#GillSansMT-BoldItalic-20" x="1143.810547"/>
     <use xlink:href="#GillSansMT-BoldItalic-76" x="1171.59375"/>
     <use xlink:href="#GillSansMT-BoldItalic-61" x="1215.394531"/>
     <use xlink:href="#GillSansMT-BoldItalic-72" x="1270.570312"/>
     <use xlink:href="#GillSansMT-BoldItalic-29" x="1307.09375"/>
    </g>
   </g>
  </g>
  <g id="axes_2">
   <g id="patch_37">
    <path d="M 412.828125 191.72 
L 757.158125 191.72 
L 757.158125 38.43375 
L 412.828125 38.43375 
z
" style="fill: #ffffff"/>
   </g>
   <g id="patch_38">
    <path d="M 428.479489 75.819511 
L 436.882905 75.819511 
L 436.882905 45.401307 
L 428.479489 45.401307 
z
" clip-path="url(#pbaed46acc2)" style="fill: #38329a"/>
   </g>
   <g id="patch_39">
    <path d="M 438.98376 75.819511 
L 447.387176 75.819511 
L 447.387176 48.249373 
L 438.98376 48.249373 
z
" clip-path="url(#pbaed46acc2)" style="fill: #38329a"/>
   </g>
   <g id="patch_40">
    <path d="M 449.48803 75.819511 
L 457.891447 75.819511 
L 457.891447 57.439419 
L 449.48803 57.439419 
z
" clip-path="url(#pbaed46acc2)" style="fill: #38329a"/>
   </g>
   <g id="patch_41">
    <path d="M 459.992301 75.819511 
L 468.395718 75.819511 
L 468.395718 65.416673 
L 459.992301 65.416673 
z
" clip-path="url(#pbaed46acc2)" style="fill: #38329a"/>
   </g>
   <g id="patch_42">
    <path d="M 470.496572 75.819511 
L 478.899989 75.819511 
L 478.899989 70.457738 
L 470.496572 70.457738 
z
" clip-path="url(#pbaed46acc2)" style="fill: #38329a"/>
   </g>
   <g id="patch_43">
    <path d="M 481.000843 75.819511 
L 489.40426 75.819511 
L 489.40426 73.010993 
L 481.000843 73.010993 
z
" clip-path="url(#pbaed46acc2)" style="fill: #38329a"/>
   </g>
   <g id="patch_44">
    <path d="M 491.505114 75.819511 
L 499.908531 75.819511 
L 499.908531 73.934805 
L 491.505114 73.934805 
z
" clip-path="url(#pbaed46acc2)" style="fill: #38329a"/>
   </g>
   <g id="patch_45">
    <path d="M 502.009385 75.819511 
L 510.412802 75.819511 
L 510.412802 73.999534 
L 502.009385 73.999534 
z
" clip-path="url(#pbaed46acc2)" style="fill: #38329a"/>
   </g>
   <g id="patch_46">
    <path d="M 512.513656 75.819511 
L 520.917073 75.819511 
L 520.917073 73.773503 
L 512.513656 73.773503 
z
" clip-path="url(#pbaed46acc2)" style="fill: #38329a"/>
   </g>
   <g id="patch_47">
    <path d="M 523.017927 75.819511 
L 531.421343 75.819511 
L 531.421343 73.632118 
L 523.017927 73.632118 
z
" clip-path="url(#pbaed46acc2)" style="fill: #38329a"/>
   </g>
   <g id="patch_48">
    <path d="M 533.522198 75.819511 
L 541.925614 75.819511 
L 541.925614 73.830971 
L 533.522198 73.830971 
z
" clip-path="url(#pbaed46acc2)" style="fill: #38329a"/>
   </g>
   <g id="patch_49">
    <path d="M 544.026469 75.819511 
L 552.429885 75.819511 
L 552.429885 74.526943 
L 544.026469 74.526943 
z
" clip-path="url(#pbaed46acc2)" style="fill: #38329a"/>
   </g>
   <g id="patch_50">
    <path d="M 554.530739 75.819511 
L 562.934156 75.819511 
L 562.934156 75.813379 
L 554.530739 75.813379 
z
" clip-path="url(#pbaed46acc2)" style="fill: #38329a"/>
   </g>
   <g id="patch_51">
    <path d="M 565.03501 75.819511 
L 573.438427 75.819511 
L 573.438427 77.746474 
L 565.03501 77.746474 
z
" clip-path="url(#pbaed46acc2)" style="fill: #38329a"/>
   </g>
   <g id="patch_52">
    <path d="M 575.539281 75.819511 
L 583.942698 75.819511 
L 583.942698 80.343335 
L 575.539281 80.343335 
z
" clip-path="url(#pbaed46acc2)" style="fill: #38329a"/>
   </g>
   <g id="patch_53">
    <path d="M 586.043552 75.819511 
L 594.446969 75.819511 
L 594.446969 83.61286 
L 586.043552 83.61286 
z
" clip-path="url(#pbaed46acc2)" style="fill: #38329a"/>
   </g>
   <g id="patch_54">
    <path d="M 596.547823 75.819511 
L 604.95124 75.819511 
L 604.95124 87.543493 
L 596.547823 87.543493 
z
" clip-path="url(#pbaed46acc2)" style="fill: #38329a"/>
   </g>
   <g id="patch_55">
    <path d="M 607.052094 75.819511 
L 615.455511 75.819511 
L 615.455511 92.121774 
L 607.052094 92.121774 
z
" clip-path="url(#pbaed46acc2)" style="fill: #38329a"/>
   </g>
   <g id="patch_56">
    <path d="M 617.556365 75.819511 
L 625.959781 75.819511 
L 625.959781 97.314288 
L 617.556365 97.314288 
z
" clip-path="url(#pbaed46acc2)" style="fill: #38329a"/>
   </g>
   <g id="patch_57">
    <path d="M 628.060636 75.819511 
L 636.464052 75.819511 
L 636.464052 103.093405 
L 628.060636 103.093405 
z
" clip-path="url(#pbaed46acc2)" style="fill: #38329a"/>
   </g>
   <g id="patch_58">
    <path d="M 638.564907 75.819511 
L 646.968323 75.819511 
L 646.968323 109.429593 
L 638.564907 109.429593 
z
" clip-path="url(#pbaed46acc2)" style="fill: #38329a"/>
   </g>
   <g id="patch_59">
    <path d="M 649.069177 75.819511 
L 657.472594 75.819511 
L 657.472594 116.274174 
L 649.069177 116.274174 
z
" clip-path="url(#pbaed46acc2)" style="fill: #38329a"/>
   </g>
   <g id="patch_60">
    <path d="M 659.573448 75.819511 
L 667.976865 75.819511 
L 667.976865 123.593757 
L 659.573448 123.593757 
z
" clip-path="url(#pbaed46acc2)" style="fill: #38329a"/>
   </g>
   <g id="patch_61">
    <path d="M 670.077719 75.819511 
L 678.481136 75.819511 
L 678.481136 131.348179 
L 670.077719 131.348179 
z
" clip-path="url(#pbaed46acc2)" style="fill: #38329a"/>
   </g>
   <g id="patch_62">
    <path d="M 680.58199 75.819511 
L 688.985407 75.819511 
L 688.985407 139.496533 
L 680.58199 139.496533 
z
" clip-path="url(#pbaed46acc2)" style="fill: #38329a"/>
   </g>
   <g id="patch_63">
    <path d="M 691.086261 75.819511 
L 699.489678 75.819511 
L 699.489678 147.996703 
L 691.086261 147.996703 
z
" clip-path="url(#pbaed46acc2)" style="fill: #38329a"/>
   </g>
   <g id="patch_64">
    <path d="M 701.590532 75.819511 
L 709.993949 75.819511 
L 709.993949 156.809606 
L 701.590532 156.809606 
z
" clip-path="url(#pbaed46acc2)" style="fill: #38329a"/>
   </g>
   <g id="patch_65">
    <path d="M 712.094803 75.819511 
L 720.49822 75.819511 
L 720.49822 165.896935 
L 712.094803 165.896935 
z
" clip-path="url(#pbaed46acc2)" style="fill: #38329a"/>
   </g>
   <g id="patch_66">
    <path d="M 722.599074 75.819511 
L 731.00249 75.819511 
L 731.00249 175.222575 
L 722.599074 175.222575 
z
" clip-path="url(#pbaed46acc2)" style="fill: #38329a"/>
   </g>
   <g id="patch_67">
    <path d="M 733.103345 75.819511 
L 741.506761 75.819511 
L 741.506761 184.752443 
L 733.103345 184.752443 
z
" clip-path="url(#pbaed46acc2)" style="fill: #38329a"/>
   </g>
   <g id="matplotlib.axis_3">
    <g id="xtick_8">
     <g id="line2d_23">
      <path d="M 422.176926 191.72 
L 422.176926 38.43375 
" clip-path="url(#pbaed46acc2)" style="fill: none; stroke: #b0b0b0; stroke-width: 0.8; stroke-linecap: square"/>
     </g>
     <g id="line2d_24">
      <g>
       <use xlink:href="#m145277bfdd" x="422.176926" y="191.72" style="stroke: #000000; stroke-width: 0.8"/>
      </g>
     </g>
     <g id="text_13">
      <!-- 0 -->
      <g transform="translate(419.833176 205.209063) scale(0.1 -0.1)">
       <use xlink:href="#Garamond-30"/>
      </g>
     </g>
    </g>
    <g id="xtick_9">
     <g id="line2d_25">
      <path d="M 474.698281 191.72 
L 474.698281 38.43375 
" clip-path="url(#pbaed46acc2)" style="fill: none; stroke: #b0b0b0; stroke-width: 0.8; stroke-linecap: square"/>
     </g>
     <g id="line2d_26">
      <g>
       <use xlink:href="#m145277bfdd" x="474.698281" y="191.72" style="stroke: #000000; stroke-width: 0.8"/>
      </g>
     </g>
     <g id="text_14">
      <!-- 5 -->
      <g transform="translate(472.354531 205.209063) scale(0.1 -0.1)">
       <use xlink:href="#Garamond-35"/>
      </g>
     </g>
    </g>
    <g id="xtick_10">
     <g id="line2d_27">
      <path d="M 527.219635 191.72 
L 527.219635 38.43375 
" clip-path="url(#pbaed46acc2)" style="fill: none; stroke: #b0b0b0; stroke-width: 0.8; stroke-linecap: square"/>
     </g>
     <g id="line2d_28">
      <g>
       <use xlink:href="#m145277bfdd" x="527.219635" y="191.72" style="stroke: #000000; stroke-width: 0.8"/>
      </g>
     </g>
     <g id="text_15">
      <!-- 10 -->
      <g transform="translate(522.532135 205.209063) scale(0.1 -0.1)">
       <use xlink:href="#Garamond-31"/>
       <use xlink:href="#Garamond-30" x="46.875"/>
      </g>
     </g>
    </g>
    <g id="xtick_11">
     <g id="line2d_29">
      <path d="M 579.74099 191.72 
L 579.74099 38.43375 
" clip-path="url(#pbaed46acc2)" style="fill: none; stroke: #b0b0b0; stroke-width: 0.8; stroke-linecap: square"/>
     </g>
     <g id="line2d_30">
      <g>
       <use xlink:href="#m145277bfdd" x="579.74099" y="191.72" style="stroke: #000000; stroke-width: 0.8"/>
      </g>
     </g>
     <g id="text_16">
      <!-- 15 -->
      <g transform="translate(575.05349 205.209063) scale(0.1 -0.1)">
       <use xlink:href="#Garamond-31"/>
       <use xlink:href="#Garamond-35" x="46.875"/>
      </g>
     </g>
    </g>
    <g id="xtick_12">
     <g id="line2d_31">
      <path d="M 632.262344 191.72 
L 632.262344 38.43375 
" clip-path="url(#pbaed46acc2)" style="fill: none; stroke: #b0b0b0; stroke-width: 0.8; stroke-linecap: square"/>
     </g>
     <g id="line2d_32">
      <g>
       <use xlink:href="#m145277bfdd" x="632.262344" y="191.72" style="stroke: #000000; stroke-width: 0.8"/>
      </g>
     </g>
     <g id="text_17">
      <!-- 20 -->
      <g transform="translate(627.574844 205.209063) scale(0.1 -0.1)">
       <use xlink:href="#Garamond-32"/>
       <use xlink:href="#Garamond-30" x="46.875"/>
      </g>
     </g>
    </g>
    <g id="xtick_13">
     <g id="line2d_33">
      <path d="M 684.783699 191.72 
L 684.783699 38.43375 
" clip-path="url(#pbaed46acc2)" style="fill: none; stroke: #b0b0b0; stroke-width: 0.8; stroke-linecap: square"/>
     </g>
     <g id="line2d_34">
      <g>
       <use xlink:href="#m145277bfdd" x="684.783699" y="191.72" style="stroke: #000000; stroke-width: 0.8"/>
      </g>
     </g>
     <g id="text_18">
      <!-- 25 -->
      <g transform="translate(680.096199 205.209063) scale(0.1 -0.1)">
       <use xlink:href="#Garamond-32"/>
       <use xlink:href="#Garamond-35" x="46.875"/>
      </g>
     </g>
    </g>
    <g id="xtick_14">
     <g id="line2d_35">
      <path d="M 737.305053 191.72 
L 737.305053 38.43375 
" clip-path="url(#pbaed46acc2)" style="fill: none; stroke: #b0b0b0; stroke-width: 0.8; stroke-linecap: square"/>
     </g>
     <g id="line2d_36">
      <g>
       <use xlink:href="#m145277bfdd" x="737.305053" y="191.72" style="stroke: #000000; stroke-width: 0.8"/>
      </g>
     </g>
     <g id="text_19">
      <!-- 30 -->
      <g transform="translate(732.617553 205.209063) scale(0.1 -0.1)">
       <use xlink:href="#Garamond-33"/>
       <use xlink:href="#Garamond-30" x="46.875"/>
      </g>
     </g>
    </g>
   </g>
   <g id="matplotlib.axis_4">
    <g id="ytick_5">
     <g id="line2d_37">
      <path d="M 412.828125 171.903286 
L 757.158125 171.903286 
" clip-path="url(#pbaed46acc2)" style="fill: none; stroke: #b0b0b0; stroke-width: 0.8; stroke-linecap: square"/>
     </g>
     <g id="line2d_38">
      <g>
       <use xlink:href="#m5b6f11c8f6" x="412.828125" y="171.903286" style="stroke: #000000; stroke-width: 0.8"/>
      </g>
     </g>
     <g id="text_20">
      <!-- −0.4 -->
      <g transform="translate(387.6 175.147817) scale(0.1 -0.1)">
       <use xlink:href="#Garamond-2212"/>
       <use xlink:href="#Garamond-30" x="66.650391"/>
       <use xlink:href="#Garamond-2e" x="113.525391"/>
       <use xlink:href="#Garamond-34" x="135.400391"/>
      </g>
     </g>
    </g>
    <g id="ytick_6">
     <g id="line2d_39">
      <path d="M 412.828125 147.882342 
L 757.158125 147.882342 
" clip-path="url(#pbaed46acc2)" style="fill: none; stroke: #b0b0b0; stroke-width: 0.8; stroke-linecap: square"/>
     </g>
     <g id="line2d_40">
      <g>
       <use xlink:href="#m5b6f11c8f6" x="412.828125" y="147.882342" style="stroke: #000000; stroke-width: 0.8"/>
      </g>
     </g>
     <g id="text_21">
      <!-- −0.3 -->
      <g transform="translate(387.6 151.126873) scale(0.1 -0.1)">
       <use xlink:href="#Garamond-2212"/>
       <use xlink:href="#Garamond-30" x="66.650391"/>
       <use xlink:href="#Garamond-2e" x="113.525391"/>
       <use xlink:href="#Garamond-33" x="135.400391"/>
      </g>
     </g>
    </g>
    <g id="ytick_7">
     <g id="line2d_41">
      <path d="M 412.828125 123.861398 
L 757.158125 123.861398 
" clip-path="url(#pbaed46acc2)" style="fill: none; stroke: #b0b0b0; stroke-width: 0.8; stroke-linecap: square"/>
     </g>
     <g id="line2d_42">
      <g>
       <use xlink:href="#m5b6f11c8f6" x="412.828125" y="123.861398" style="stroke: #000000; stroke-width: 0.8"/>
      </g>
     </g>
     <g id="text_22">
      <!-- −0.2 -->
      <g transform="translate(387.6 127.10593) scale(0.1 -0.1)">
       <use xlink:href="#Garamond-2212"/>
       <use xlink:href="#Garamond-30" x="66.650391"/>
       <use xlink:href="#Garamond-2e" x="113.525391"/>
       <use xlink:href="#Garamond-32" x="135.400391"/>
      </g>
     </g>
    </g>
    <g id="ytick_8">
     <g id="line2d_43">
      <path d="M 412.828125 99.840455 
L 757.158125 99.840455 
" clip-path="url(#pbaed46acc2)" style="fill: none; stroke: #b0b0b0; stroke-width: 0.8; stroke-linecap: square"/>
     </g>
     <g id="line2d_44">
      <g>
       <use xlink:href="#m5b6f11c8f6" x="412.828125" y="99.840455" style="stroke: #000000; stroke-width: 0.8"/>
      </g>
     </g>
     <g id="text_23">
      <!-- −0.1 -->
      <g transform="translate(387.6 103.084986) scale(0.1 -0.1)">
       <use xlink:href="#Garamond-2212"/>
       <use xlink:href="#Garamond-30" x="66.650391"/>
       <use xlink:href="#Garamond-2e" x="113.525391"/>
       <use xlink:href="#Garamond-31" x="135.400391"/>
      </g>
     </g>
    </g>
    <g id="ytick_9">
     <g id="line2d_45">
      <path d="M 412.828125 75.819511 
L 757.158125 75.819511 
" clip-path="url(#pbaed46acc2)" style="fill: none; stroke: #b0b0b0; stroke-width: 0.8; stroke-linecap: square"/>
     </g>
     <g id="line2d_46">
      <g>
       <use xlink:href="#m5b6f11c8f6" x="412.828125" y="75.819511" style="stroke: #000000; stroke-width: 0.8"/>
      </g>
     </g>
     <g id="text_24">
      <!-- 0.0 -->
      <g transform="translate(394.265625 79.064042) scale(0.1 -0.1)">
       <use xlink:href="#Garamond-30"/>
       <use xlink:href="#Garamond-2e" x="46.875"/>
       <use xlink:href="#Garamond-30" x="68.75"/>
      </g>
     </g>
    </g>
    <g id="ytick_10">
     <g id="line2d_47">
      <path d="M 412.828125 51.798567 
L 757.158125 51.798567 
" clip-path="url(#pbaed46acc2)" style="fill: none; stroke: #b0b0b0; stroke-width: 0.8; stroke-linecap: square"/>
     </g>
     <g id="line2d_48">
      <g>
       <use xlink:href="#m5b6f11c8f6" x="412.828125" y="51.798567" style="stroke: #000000; stroke-width: 0.8"/>
      </g>
     </g>
     <g id="text_25">
      <!-- 0.1 -->
      <g transform="translate(394.265625 55.043098) scale(0.1 -0.1)">
       <use xlink:href="#Garamond-30"/>
       <use xlink:href="#Garamond-2e" x="46.875"/>
       <use xlink:href="#Garamond-31" x="68.75"/>
      </g>
     </g>
    </g>
   </g>
   <g id="patch_68">
    <path d="M 412.828125 191.72 
L 412.828125 38.43375 
" style="fill: none; stroke: #000000; stroke-width: 0.8; stroke-linejoin: miter; stroke-linecap: square"/>
   </g>
   <g id="patch_69">
    <path d="M 757.158125 191.72 
L 757.158125 38.43375 
" style="fill: none; stroke: #000000; stroke-width: 0.8; stroke-linejoin: miter; stroke-linecap: square"/>
   </g>
   <g id="patch_70">
    <path d="M 412.828125 191.72 
L 757.158125 191.72 
" style="fill: none; stroke: #000000; stroke-width: 0.8; stroke-linejoin: miter; stroke-linecap: square"/>
   </g>
   <g id="patch_71">
    <path d="M 412.828125 38.43375 
L 757.158125 38.43375 
" style="fill: none; stroke: #000000; stroke-width: 0.8; stroke-linejoin: miter; stroke-linecap: square"/>
   </g>
   <g id="text_26">
    <!-- PC2 loadings (19.55% exp. var) -->
    <g transform="translate(504.500312 32.43375) scale(0.12 -0.12)">
     <defs>
      <path id="GillSansMT-BoldItalic-32" d="M 2816 891 
L 2694 0 
L 184 0 
L 184 141 
Q 1097 1338 1586 2070 
Q 2075 2803 2075 3175 
Q 2075 3359 1940 3484 
Q 1806 3609 1606 3609 
Q 1297 3609 678 3213 
L 800 4091 
Q 1228 4422 1772 4422 
Q 2313 4422 2647 4089 
Q 2981 3756 2981 3256 
Q 2981 2841 2745 2389 
Q 2509 1938 1728 891 
L 2816 891 
z
" transform="scale(0.015625)"/>
      <path id="GillSansMT-BoldItalic-39" d="M 684 0 
L 1791 1716 
L 1778 1728 
Q 1559 1644 1363 1644 
Q 934 1644 653 1961 
Q 372 2278 372 2766 
Q 372 3422 805 3922 
Q 1238 4422 1947 4422 
Q 2553 4422 2912 4051 
Q 3272 3681 3272 3053 
Q 3272 2388 2725 1563 
L 1697 0 
L 684 0 
z
M 1716 2400 
Q 2006 2400 2184 2634 
Q 2363 2869 2363 3144 
Q 2363 3344 2234 3476 
Q 2106 3609 1913 3609 
Q 1669 3609 1475 3370 
Q 1281 3131 1281 2822 
Q 1281 2631 1400 2515 
Q 1519 2400 1716 2400 
z
" transform="scale(0.015625)"/>
      <path id="GillSansMT-BoldItalic-35" d="M 3109 4366 
L 2981 3475 
L 1838 3475 
L 1734 2759 
Q 2325 2694 2625 2355 
Q 2925 2016 2925 1472 
Q 2925 794 2469 369 
Q 2013 -56 1281 -56 
Q 644 -56 147 269 
L 403 1081 
Q 872 756 1269 756 
Q 1594 756 1805 939 
Q 2016 1122 2016 1403 
Q 2016 1697 1792 1869 
Q 1569 2041 1184 2041 
Q 950 2041 691 2003 
L 1088 4366 
L 3109 4366 
z
" transform="scale(0.015625)"/>
     </defs>
     <use xlink:href="#GillSansMT-BoldItalic-50"/>
     <use xlink:href="#GillSansMT-BoldItalic-43" x="58.300781"/>
     <use xlink:href="#GillSansMT-BoldItalic-32" x="127.099609"/>
     <use xlink:href="#GillSansMT-BoldItalic-20" x="180.175781"/>
     <use xlink:href="#GillSansMT-BoldItalic-6c" x="207.958984"/>
     <use xlink:href="#GillSansMT-BoldItalic-6f" x="233.935547"/>
     <use xlink:href="#GillSansMT-BoldItalic-61" x="290.234375"/>
     <use xlink:href="#GillSansMT-BoldItalic-64" x="345.410156"/>
     <use xlink:href="#GillSansMT-BoldItalic-69" x="399.609375"/>
     <use xlink:href="#GillSansMT-BoldItalic-6e" x="425.585938"/>
     <use xlink:href="#GillSansMT-BoldItalic-67" x="480.761719"/>
     <use xlink:href="#GillSansMT-BoldItalic-73" x="529.785156"/>
     <use xlink:href="#GillSansMT-BoldItalic-20" x="567.285156"/>
     <use xlink:href="#GillSansMT-BoldItalic-28" x="595.068359"/>
     <use xlink:href="#GillSansMT-BoldItalic-31" x="629.492188"/>
     <use xlink:href="#GillSansMT-BoldItalic-39" x="682.568359"/>
     <use xlink:href="#GillSansMT-BoldItalic-2e" x="735.644531"/>
     <use xlink:href="#GillSansMT-BoldItalic-35" x="761.621094"/>
     <use xlink:href="#GillSansMT-BoldItalic-35" x="814.697266"/>
     <use xlink:href="#GillSansMT-BoldItalic-25" x="867.773438"/>
     <use xlink:href="#GillSansMT-BoldItalic-20" x="939.697266"/>
     <use xlink:href="#GillSansMT-BoldItalic-65" x="967.480469"/>
     <use xlink:href="#GillSansMT-BoldItalic-78" x="1016.457031"/>
     <use xlink:href="#GillSansMT-BoldItalic-70" x="1069.533203"/>
     <use xlink:href="#GillSansMT-BoldItalic-2e" x="1127.833984"/>
     <use xlink:href="#GillSansMT-BoldItalic-20" x="1143.810547"/>
     <use xlink:href="#GillSansMT-BoldItalic-76" x="1171.59375"/>
     <use xlink:href="#GillSansMT-BoldItalic-61" x="1215.394531"/>
     <use xlink:href="#GillSansMT-BoldItalic-72" x="1270.570312"/>
     <use xlink:href="#GillSansMT-BoldItalic-29" x="1307.09375"/>
    </g>
   </g>
  </g>
  <g id="axes_3">
   <g id="patch_72">
    <path d="M 793.228125 191.72 
L 1137.558125 191.72 
L 1137.558125 38.43375 
L 793.228125 38.43375 
z
" style="fill: #ffffff"/>
   </g>
   <g id="patch_73">
    <path d="M 808.879489 87.155555 
L 817.282905 87.155555 
L 817.282905 103.452664 
L 808.879489 103.452664 
z
" clip-path="url(#p1f0bfc9421)" style="fill: #38329a"/>
   </g>
   <g id="patch_74">
    <path d="M 819.38376 87.155555 
L 827.787176 87.155555 
L 827.787176 45.401307 
L 819.38376 45.401307 
z
" clip-path="url(#p1f0bfc9421)" style="fill: #38329a"/>
   </g>
   <g id="patch_75">
    <path d="M 829.88803 87.155555 
L 838.291447 87.155555 
L 838.291447 59.31939 
L 829.88803 59.31939 
z
" clip-path="url(#p1f0bfc9421)" style="fill: #38329a"/>
   </g>
   <g id="patch_76">
    <path d="M 840.392301 87.155555 
L 848.795718 87.155555 
L 848.795718 97.861384 
L 840.392301 97.861384 
z
" clip-path="url(#p1f0bfc9421)" style="fill: #38329a"/>
   </g>
   <g id="patch_77">
    <path d="M 850.896572 87.155555 
L 859.299989 87.155555 
L 859.299989 134.830971 
L 850.896572 134.830971 
z
" clip-path="url(#p1f0bfc9421)" style="fill: #38329a"/>
   </g>
   <g id="patch_78">
    <path d="M 861.400843 87.155555 
L 869.80426 87.155555 
L 869.80426 161.809761 
L 861.400843 161.809761 
z
" clip-path="url(#p1f0bfc9421)" style="fill: #38329a"/>
   </g>
   <g id="patch_79">
    <path d="M 871.905114 87.155555 
L 880.308531 87.155555 
L 880.308531 177.899198 
L 871.905114 177.899198 
z
" clip-path="url(#p1f0bfc9421)" style="fill: #38329a"/>
   </g>
   <g id="patch_80">
    <path d="M 882.409385 87.155555 
L 890.812802 87.155555 
L 890.812802 184.752443 
L 882.409385 184.752443 
z
" clip-path="url(#p1f0bfc9421)" style="fill: #38329a"/>
   </g>
   <g id="patch_81">
    <path d="M 892.913656 87.155555 
L 901.317073 87.155555 
L 901.317073 184.587215 
L 892.913656 184.587215 
z
" clip-path="url(#p1f0bfc9421)" style="fill: #38329a"/>
   </g>
   <g id="patch_82">
    <path d="M 903.417927 87.155555 
L 911.821343 87.155555 
L 911.821343 179.455827 
L 903.417927 179.455827 
z
" clip-path="url(#p1f0bfc9421)" style="fill: #38329a"/>
   </g>
   <g id="patch_83">
    <path d="M 913.922198 87.155555 
L 922.325614 87.155555 
L 922.325614 171.064893 
L 913.922198 171.064893 
z
" clip-path="url(#p1f0bfc9421)" style="fill: #38329a"/>
   </g>
   <g id="patch_84">
    <path d="M 924.426469 87.155555 
L 932.829885 87.155555 
L 932.829885 160.73502 
L 924.426469 160.73502 
z
" clip-path="url(#p1f0bfc9421)" style="fill: #38329a"/>
   </g>
   <g id="patch_85">
    <path d="M 934.930739 87.155555 
L 943.334156 87.155555 
L 943.334156 149.475085 
L 934.930739 149.475085 
z
" clip-path="url(#p1f0bfc9421)" style="fill: #38329a"/>
   </g>
   <g id="patch_86">
    <path d="M 945.43501 87.155555 
L 953.838427 87.155555 
L 953.838427 138.025834 
L 945.43501 138.025834 
z
" clip-path="url(#p1f0bfc9421)" style="fill: #38329a"/>
   </g>
   <g id="patch_87">
    <path d="M 955.939281 87.155555 
L 964.342698 87.155555 
L 964.342698 126.933569 
L 955.939281 126.933569 
z
" clip-path="url(#p1f0bfc9421)" style="fill: #38329a"/>
   </g>
   <g id="patch_88">
    <path d="M 966.443552 87.155555 
L 974.846969 87.155555 
L 974.846969 116.571781 
L 966.443552 116.571781 
z
" clip-path="url(#p1f0bfc9421)" style="fill: #38329a"/>
   </g>
   <g id="patch_89">
    <path d="M 976.947823 87.155555 
L 985.35124 87.155555 
L 985.35124 107.213038 
L 976.947823 107.213038 
z
" clip-path="url(#p1f0bfc9421)" style="fill: #38329a"/>
   </g>
   <g id="patch_90">
    <path d="M 987.452094 87.155555 
L 995.855511 87.155555 
L 995.855511 99.031828 
L 987.452094 99.031828 
z
" clip-path="url(#p1f0bfc9421)" style="fill: #38329a"/>
   </g>
   <g id="patch_91">
    <path d="M 997.956365 87.155555 
L 1006.359781 87.155555 
L 1006.359781 92.131913 
L 997.956365 92.131913 
z
" clip-path="url(#p1f0bfc9421)" style="fill: #38329a"/>
   </g>
   <g id="patch_92">
    <path d="M 1008.460636 87.155555 
L 1016.864052 87.155555 
L 1016.864052 86.57355 
L 1008.460636 86.57355 
z
" clip-path="url(#p1f0bfc9421)" style="fill: #38329a"/>
   </g>
   <g id="patch_93">
    <path d="M 1018.964907 87.155555 
L 1027.368323 87.155555 
L 1027.368323 82.376829 
L 1018.964907 82.376829 
z
" clip-path="url(#p1f0bfc9421)" style="fill: #38329a"/>
   </g>
   <g id="patch_94">
    <path d="M 1029.469177 87.155555 
L 1037.872594 87.155555 
L 1037.872594 79.52966 
L 1029.469177 79.52966 
z
" clip-path="url(#p1f0bfc9421)" style="fill: #38329a"/>
   </g>
   <g id="patch_95">
    <path d="M 1039.973448 87.155555 
L 1048.376865 87.155555 
L 1048.376865 78.001029 
L 1039.973448 78.001029 
z
" clip-path="url(#p1f0bfc9421)" style="fill: #38329a"/>
   </g>
   <g id="patch_96">
    <path d="M 1050.477719 87.155555 
L 1058.881136 87.155555 
L 1058.881136 77.745392 
L 1050.477719 77.745392 
z
" clip-path="url(#p1f0bfc9421)" style="fill: #38329a"/>
   </g>
   <g id="patch_97">
    <path d="M 1060.98199 87.155555 
L 1069.385407 87.155555 
L 1069.385407 78.713378 
L 1060.98199 78.713378 
z
" clip-path="url(#p1f0bfc9421)" style="fill: #38329a"/>
   </g>
   <g id="patch_98">
    <path d="M 1071.486261 87.155555 
L 1079.889678 87.155555 
L 1079.889678 80.832229 
L 1071.486261 80.832229 
z
" clip-path="url(#p1f0bfc9421)" style="fill: #38329a"/>
   </g>
   <g id="patch_99">
    <path d="M 1081.990532 87.155555 
L 1090.393949 87.155555 
L 1090.393949 84.039908 
L 1081.990532 84.039908 
z
" clip-path="url(#p1f0bfc9421)" style="fill: #38329a"/>
   </g>
   <g id="patch_100">
    <path d="M 1092.494803 87.155555 
L 1100.89822 87.155555 
L 1100.89822 88.270598 
L 1092.494803 88.270598 
z
" clip-path="url(#p1f0bfc9421)" style="fill: #38329a"/>
   </g>
   <g id="patch_101">
    <path d="M 1102.999074 87.155555 
L 1111.40249 87.155555 
L 1111.40249 93.444661 
L 1102.999074 93.444661 
z
" clip-path="url(#p1f0bfc9421)" style="fill: #38329a"/>
   </g>
   <g id="patch_102">
    <path d="M 1113.503345 87.155555 
L 1121.906761 87.155555 
L 1121.906761 99.497651 
L 1113.503345 99.497651 
z
" clip-path="url(#p1f0bfc9421)" style="fill: #38329a"/>
   </g>
   <g id="matplotlib.axis_5">
    <g id="xtick_15">
     <g id="line2d_49">
      <path d="M 802.576926 191.72 
L 802.576926 38.43375 
" clip-path="url(#p1f0bfc9421)" style="fill: none; stroke: #b0b0b0; stroke-width: 0.8; stroke-linecap: square"/>
     </g>
     <g id="line2d_50">
      <g>
       <use xlink:href="#m145277bfdd" x="802.576926" y="191.72" style="stroke: #000000; stroke-width: 0.8"/>
      </g>
     </g>
     <g id="text_27">
      <!-- 0 -->
      <g transform="translate(800.233176 205.209063) scale(0.1 -0.1)">
       <use xlink:href="#Garamond-30"/>
      </g>
     </g>
    </g>
    <g id="xtick_16">
     <g id="line2d_51">
      <path d="M 855.098281 191.72 
L 855.098281 38.43375 
" clip-path="url(#p1f0bfc9421)" style="fill: none; stroke: #b0b0b0; stroke-width: 0.8; stroke-linecap: square"/>
     </g>
     <g id="line2d_52">
      <g>
       <use xlink:href="#m145277bfdd" x="855.098281" y="191.72" style="stroke: #000000; stroke-width: 0.8"/>
      </g>
     </g>
     <g id="text_28">
      <!-- 5 -->
      <g transform="translate(852.754531 205.209063) scale(0.1 -0.1)">
       <use xlink:href="#Garamond-35"/>
      </g>
     </g>
    </g>
    <g id="xtick_17">
     <g id="line2d_53">
      <path d="M 907.619635 191.72 
L 907.619635 38.43375 
" clip-path="url(#p1f0bfc9421)" style="fill: none; stroke: #b0b0b0; stroke-width: 0.8; stroke-linecap: square"/>
     </g>
     <g id="line2d_54">
      <g>
       <use xlink:href="#m145277bfdd" x="907.619635" y="191.72" style="stroke: #000000; stroke-width: 0.8"/>
      </g>
     </g>
     <g id="text_29">
      <!-- 10 -->
      <g transform="translate(902.932135 205.209063) scale(0.1 -0.1)">
       <use xlink:href="#Garamond-31"/>
       <use xlink:href="#Garamond-30" x="46.875"/>
      </g>
     </g>
    </g>
    <g id="xtick_18">
     <g id="line2d_55">
      <path d="M 960.14099 191.72 
L 960.14099 38.43375 
" clip-path="url(#p1f0bfc9421)" style="fill: none; stroke: #b0b0b0; stroke-width: 0.8; stroke-linecap: square"/>
     </g>
     <g id="line2d_56">
      <g>
       <use xlink:href="#m145277bfdd" x="960.14099" y="191.72" style="stroke: #000000; stroke-width: 0.8"/>
      </g>
     </g>
     <g id="text_30">
      <!-- 15 -->
      <g transform="translate(955.45349 205.209063) scale(0.1 -0.1)">
       <use xlink:href="#Garamond-31"/>
       <use xlink:href="#Garamond-35" x="46.875"/>
      </g>
     </g>
    </g>
    <g id="xtick_19">
     <g id="line2d_57">
      <path d="M 1012.662344 191.72 
L 1012.662344 38.43375 
" clip-path="url(#p1f0bfc9421)" style="fill: none; stroke: #b0b0b0; stroke-width: 0.8; stroke-linecap: square"/>
     </g>
     <g id="line2d_58">
      <g>
       <use xlink:href="#m145277bfdd" x="1012.662344" y="191.72" style="stroke: #000000; stroke-width: 0.8"/>
      </g>
     </g>
     <g id="text_31">
      <!-- 20 -->
      <g transform="translate(1007.974844 205.209063) scale(0.1 -0.1)">
       <use xlink:href="#Garamond-32"/>
       <use xlink:href="#Garamond-30" x="46.875"/>
      </g>
     </g>
    </g>
    <g id="xtick_20">
     <g id="line2d_59">
      <path d="M 1065.183699 191.72 
L 1065.183699 38.43375 
" clip-path="url(#p1f0bfc9421)" style="fill: none; stroke: #b0b0b0; stroke-width: 0.8; stroke-linecap: square"/>
     </g>
     <g id="line2d_60">
      <g>
       <use xlink:href="#m145277bfdd" x="1065.183699" y="191.72" style="stroke: #000000; stroke-width: 0.8"/>
      </g>
     </g>
     <g id="text_32">
      <!-- 25 -->
      <g transform="translate(1060.496199 205.209063) scale(0.1 -0.1)">
       <use xlink:href="#Garamond-32"/>
       <use xlink:href="#Garamond-35" x="46.875"/>
      </g>
     </g>
    </g>
    <g id="xtick_21">
     <g id="line2d_61">
      <path d="M 1117.705053 191.72 
L 1117.705053 38.43375 
" clip-path="url(#p1f0bfc9421)" style="fill: none; stroke: #b0b0b0; stroke-width: 0.8; stroke-linecap: square"/>
     </g>
     <g id="line2d_62">
      <g>
       <use xlink:href="#m145277bfdd" x="1117.705053" y="191.72" style="stroke: #000000; stroke-width: 0.8"/>
      </g>
     </g>
     <g id="text_33">
      <!-- 30 -->
      <g transform="translate(1113.017553 205.209063) scale(0.1 -0.1)">
       <use xlink:href="#Garamond-33"/>
       <use xlink:href="#Garamond-30" x="46.875"/>
      </g>
     </g>
    </g>
   </g>
   <g id="matplotlib.axis_6">
    <g id="ytick_11">
     <g id="line2d_63">
      <path d="M 793.228125 165.974078 
L 1137.558125 165.974078 
" clip-path="url(#p1f0bfc9421)" style="fill: none; stroke: #b0b0b0; stroke-width: 0.8; stroke-linecap: square"/>
     </g>
     <g id="line2d_64">
      <g>
       <use xlink:href="#m5b6f11c8f6" x="793.228125" y="165.974078" style="stroke: #000000; stroke-width: 0.8"/>
      </g>
     </g>
     <g id="text_34">
      <!-- −0.3 -->
      <g transform="translate(768 169.218609) scale(0.1 -0.1)">
       <use xlink:href="#Garamond-2212"/>
       <use xlink:href="#Garamond-30" x="66.650391"/>
       <use xlink:href="#Garamond-2e" x="113.525391"/>
       <use xlink:href="#Garamond-33" x="135.400391"/>
      </g>
     </g>
    </g>
    <g id="ytick_12">
     <g id="line2d_65">
      <path d="M 793.228125 139.701237 
L 1137.558125 139.701237 
" clip-path="url(#p1f0bfc9421)" style="fill: none; stroke: #b0b0b0; stroke-width: 0.8; stroke-linecap: square"/>
     </g>
     <g id="line2d_66">
      <g>
       <use xlink:href="#m5b6f11c8f6" x="793.228125" y="139.701237" style="stroke: #000000; stroke-width: 0.8"/>
      </g>
     </g>
     <g id="text_35">
      <!-- −0.2 -->
      <g transform="translate(768 142.945768) scale(0.1 -0.1)">
       <use xlink:href="#Garamond-2212"/>
       <use xlink:href="#Garamond-30" x="66.650391"/>
       <use xlink:href="#Garamond-2e" x="113.525391"/>
       <use xlink:href="#Garamond-32" x="135.400391"/>
      </g>
     </g>
    </g>
    <g id="ytick_13">
     <g id="line2d_67">
      <path d="M 793.228125 113.428396 
L 1137.558125 113.428396 
" clip-path="url(#p1f0bfc9421)" style="fill: none; stroke: #b0b0b0; stroke-width: 0.8; stroke-linecap: square"/>
     </g>
     <g id="line2d_68">
      <g>
       <use xlink:href="#m5b6f11c8f6" x="793.228125" y="113.428396" style="stroke: #000000; stroke-width: 0.8"/>
      </g>
     </g>
     <g id="text_36">
      <!-- −0.1 -->
      <g transform="translate(768 116.672927) scale(0.1 -0.1)">
       <use xlink:href="#Garamond-2212"/>
       <use xlink:href="#Garamond-30" x="66.650391"/>
       <use xlink:href="#Garamond-2e" x="113.525391"/>
       <use xlink:href="#Garamond-31" x="135.400391"/>
      </g>
     </g>
    </g>
    <g id="ytick_14">
     <g id="line2d_69">
      <path d="M 793.228125 87.155555 
L 1137.558125 87.155555 
" clip-path="url(#p1f0bfc9421)" style="fill: none; stroke: #b0b0b0; stroke-width: 0.8; stroke-linecap: square"/>
     </g>
     <g id="line2d_70">
      <g>
       <use xlink:href="#m5b6f11c8f6" x="793.228125" y="87.155555" style="stroke: #000000; stroke-width: 0.8"/>
      </g>
     </g>
     <g id="text_37">
      <!-- 0.0 -->
      <g transform="translate(774.665625 90.400086) scale(0.1 -0.1)">
       <use xlink:href="#Garamond-30"/>
       <use xlink:href="#Garamond-2e" x="46.875"/>
       <use xlink:href="#Garamond-30" x="68.75"/>
      </g>
     </g>
    </g>
    <g id="ytick_15">
     <g id="line2d_71">
      <path d="M 793.228125 60.882714 
L 1137.558125 60.882714 
" clip-path="url(#p1f0bfc9421)" style="fill: none; stroke: #b0b0b0; stroke-width: 0.8; stroke-linecap: square"/>
     </g>
     <g id="line2d_72">
      <g>
       <use xlink:href="#m5b6f11c8f6" x="793.228125" y="60.882714" style="stroke: #000000; stroke-width: 0.8"/>
      </g>
     </g>
     <g id="text_38">
      <!-- 0.1 -->
      <g transform="translate(774.665625 64.127245) scale(0.1 -0.1)">
       <use xlink:href="#Garamond-30"/>
       <use xlink:href="#Garamond-2e" x="46.875"/>
       <use xlink:href="#Garamond-31" x="68.75"/>
      </g>
     </g>
    </g>
   </g>
   <g id="patch_103">
    <path d="M 793.228125 191.72 
L 793.228125 38.43375 
" style="fill: none; stroke: #000000; stroke-width: 0.8; stroke-linejoin: miter; stroke-linecap: square"/>
   </g>
   <g id="patch_104">
    <path d="M 1137.558125 191.72 
L 1137.558125 38.43375 
" style="fill: none; stroke: #000000; stroke-width: 0.8; stroke-linejoin: miter; stroke-linecap: square"/>
   </g>
   <g id="patch_105">
    <path d="M 793.228125 191.72 
L 1137.558125 191.72 
" style="fill: none; stroke: #000000; stroke-width: 0.8; stroke-linejoin: miter; stroke-linecap: square"/>
   </g>
   <g id="patch_106">
    <path d="M 793.228125 38.43375 
L 1137.558125 38.43375 
" style="fill: none; stroke: #000000; stroke-width: 0.8; stroke-linejoin: miter; stroke-linecap: square"/>
   </g>
   <g id="text_39">
    <!-- PC3 loadings (12.81% exp. var) -->
    <g transform="translate(884.900313 32.43375) scale(0.12 -0.12)">
     <defs>
      <path id="GillSansMT-BoldItalic-33" d="M 659 3322 
L 781 4184 
Q 1319 4422 1819 4422 
Q 2403 4422 2770 4103 
Q 3138 3784 3138 3284 
Q 3138 2478 2406 2228 
Q 2913 1963 2913 1313 
Q 2913 706 2459 325 
Q 2006 -56 1288 -56 
Q 763 -56 184 219 
L 300 1050 
Q 856 756 1259 756 
Q 1553 756 1759 926 
Q 1966 1097 1966 1338 
Q 1966 1581 1772 1728 
Q 1578 1875 1253 1875 
Q 1100 1875 922 1844 
L 1038 2675 
Q 1338 2606 1528 2606 
Q 1831 2606 2029 2759 
Q 2228 2913 2228 3144 
Q 2228 3347 2078 3478 
Q 1928 3609 1691 3609 
Q 1306 3609 659 3322 
z
" transform="scale(0.015625)"/>
      <path id="GillSansMT-BoldItalic-38" d="M 2425 2253 
Q 3053 1966 3053 1281 
Q 3053 722 2631 333 
Q 2209 -56 1606 -56 
Q 1016 -56 636 286 
Q 256 628 256 1159 
Q 256 1541 487 1900 
Q 719 2259 1141 2356 
Q 709 2659 709 3181 
Q 709 3697 1106 4059 
Q 1503 4422 2069 4422 
Q 2569 4422 2900 4120 
Q 3231 3819 3231 3366 
Q 3231 2625 2425 2253 
z
M 1888 2675 
Q 2088 2675 2205 2850 
Q 2322 3025 2322 3272 
Q 2322 3419 2233 3514 
Q 2144 3609 2003 3609 
Q 1816 3609 1692 3425 
Q 1569 3241 1569 2994 
Q 1569 2853 1656 2764 
Q 1744 2675 1888 2675 
z
M 1594 756 
Q 1822 756 1983 942 
Q 2144 1128 2144 1403 
Q 2144 1606 2022 1734 
Q 1900 1863 1709 1863 
Q 1484 1863 1325 1673 
Q 1166 1484 1166 1216 
Q 1166 1009 1284 882 
Q 1403 756 1594 756 
z
" transform="scale(0.015625)"/>
     </defs>
     <use xlink:href="#GillSansMT-BoldItalic-50"/>
     <use xlink:href="#GillSansMT-BoldItalic-43" x="58.300781"/>
     <use xlink:href="#GillSansMT-BoldItalic-33" x="127.099609"/>
     <use xlink:href="#GillSansMT-BoldItalic-20" x="180.175781"/>
     <use xlink:href="#GillSansMT-BoldItalic-6c" x="207.958984"/>
     <use xlink:href="#GillSansMT-BoldItalic-6f" x="233.935547"/>
     <use xlink:href="#GillSansMT-BoldItalic-61" x="290.234375"/>
     <use xlink:href="#GillSansMT-BoldItalic-64" x="345.410156"/>
     <use xlink:href="#GillSansMT-BoldItalic-69" x="399.609375"/>
     <use xlink:href="#GillSansMT-BoldItalic-6e" x="425.585938"/>
     <use xlink:href="#GillSansMT-BoldItalic-67" x="480.761719"/>
     <use xlink:href="#GillSansMT-BoldItalic-73" x="529.785156"/>
     <use xlink:href="#GillSansMT-BoldItalic-20" x="567.285156"/>
     <use xlink:href="#GillSansMT-BoldItalic-28" x="595.068359"/>
     <use xlink:href="#GillSansMT-BoldItalic-31" x="629.492188"/>
     <use xlink:href="#GillSansMT-BoldItalic-32" x="682.568359"/>
     <use xlink:href="#GillSansMT-BoldItalic-2e" x="735.644531"/>
     <use xlink:href="#GillSansMT-BoldItalic-38" x="761.621094"/>
     <use xlink:href="#GillSansMT-BoldItalic-31" x="814.697266"/>
     <use xlink:href="#GillSansMT-BoldItalic-25" x="867.773438"/>
     <use xlink:href="#GillSansMT-BoldItalic-20" x="939.697266"/>
     <use xlink:href="#GillSansMT-BoldItalic-65" x="967.480469"/>
     <use xlink:href="#GillSansMT-BoldItalic-78" x="1016.457031"/>
     <use xlink:href="#GillSansMT-BoldItalic-70" x="1069.533203"/>
     <use xlink:href="#GillSansMT-BoldItalic-2e" x="1127.833984"/>
     <use xlink:href="#GillSansMT-BoldItalic-20" x="1143.810547"/>
     <use xlink:href="#GillSansMT-BoldItalic-76" x="1171.59375"/>
     <use xlink:href="#GillSansMT-BoldItalic-61" x="1215.394531"/>
     <use xlink:href="#GillSansMT-BoldItalic-72" x="1270.570312"/>
     <use xlink:href="#GillSansMT-BoldItalic-29" x="1307.09375"/>
    </g>
   </g>
  </g>
  <g id="text_40">
   <!-- PCA on OOS fitting errors, U.S. Treasuries -->
   <g transform="translate(463.357812 15.49125) scale(0.12 -0.12)">
    <defs>
     <path id="GillSansMT-BoldItalic-41" d="M 2950 4422 
L 3719 0 
L 2766 0 
L 2631 953 
L 1275 953 
L 850 0 
L -172 0 
L 1966 4422 
L 2950 4422 
z
M 1544 1575 
L 2553 1575 
L 2322 3506 
L 1544 1575 
z
" transform="scale(0.015625)"/>
     <path id="GillSansMT-BoldItalic-4f" d="M 2950 4422 
Q 3900 4422 4500 3865 
Q 5100 3309 5100 2431 
Q 5100 1328 4394 636 
Q 3688 -56 2584 -56 
Q 1628 -56 1006 516 
Q 384 1088 384 1972 
Q 384 3025 1114 3723 
Q 1844 4422 2950 4422 
z
M 2591 750 
Q 3238 750 3689 1222 
Q 4141 1694 4141 2369 
Q 4141 2909 3786 3262 
Q 3431 3616 2888 3616 
Q 2256 3616 1800 3144 
Q 1344 2672 1344 2016 
Q 1344 1456 1692 1103 
Q 2041 750 2591 750 
z
" transform="scale(0.015625)"/>
     <path id="GillSansMT-BoldItalic-53" d="M 3256 4078 
L 3128 3309 
Q 2894 3478 2586 3586 
Q 2278 3694 2047 3694 
Q 1784 3694 1609 3558 
Q 1434 3422 1434 3213 
Q 1434 3088 1532 2961 
Q 1631 2834 2154 2521 
Q 2678 2209 2859 1907 
Q 3041 1606 3041 1281 
Q 3041 703 2641 323 
Q 2241 -56 1563 -56 
Q 703 -56 78 359 
L 219 1119 
Q 500 919 845 795 
Q 1191 672 1453 672 
Q 1738 672 1909 805 
Q 2081 938 2081 1153 
Q 2081 1303 1970 1456 
Q 1859 1609 1332 1934 
Q 806 2259 640 2534 
Q 475 2809 475 3103 
Q 475 3666 912 4044 
Q 1350 4422 2009 4422 
Q 2669 4422 3256 4078 
z
" transform="scale(0.015625)"/>
     <path id="GillSansMT-BoldItalic-66" d="M 2919 4275 
L 2822 3578 
Q 2547 3719 2338 3719 
Q 1766 3719 1709 2906 
L 2266 2906 
L 2175 2266 
L 1613 2266 
L 1113 -1275 
L 250 -1275 
L 750 2266 
L 159 2266 
L 250 2906 
L 844 2906 
Q 928 3650 1297 4036 
Q 1666 4422 2222 4422 
Q 2553 4422 2919 4275 
z
" transform="scale(0.015625)"/>
     <path id="GillSansMT-BoldItalic-74" d="M 1772 3519 
L 1650 2906 
L 2291 2906 
L 2175 2266 
L 1538 2266 
L 1369 1325 
Q 1347 1203 1347 1100 
Q 1347 716 1606 716 
Q 1763 716 2106 891 
L 2106 128 
Q 1725 -56 1363 -56 
Q 941 -56 698 211 
Q 456 478 456 903 
Q 456 1034 481 1159 
L 684 2266 
L 97 2266 
L 206 2906 
L 794 2906 
L 897 3519 
L 1772 3519 
z
" transform="scale(0.015625)"/>
     <path id="GillSansMT-BoldItalic-2c" d="M -288 -928 
L -191 -538 
Q 219 -444 359 -78 
Q 50 97 50 409 
Q 50 625 204 773 
Q 359 922 588 922 
Q 841 922 1022 725 
Q 1203 528 1203 250 
Q 1203 -219 786 -573 
Q 369 -928 -288 -928 
z
" transform="scale(0.015625)"/>
     <path id="GillSansMT-BoldItalic-55" d="M 4788 4366 
L 4403 1644 
Q 4166 -56 2394 -56 
Q 1459 -56 959 364 
Q 459 784 459 1534 
Q 459 1700 484 1881 
L 844 4366 
L 1772 4366 
L 1419 1894 
Q 1403 1769 1403 1659 
Q 1403 1209 1678 979 
Q 1953 750 2394 750 
Q 2841 750 3131 998 
Q 3422 1247 3488 1722 
L 3859 4366 
L 4788 4366 
z
" transform="scale(0.015625)"/>
     <path id="GillSansMT-BoldItalic-54" d="M 4263 4366 
L 4159 3634 
L 2741 3634 
L 2228 0 
L 1300 0 
L 1813 3634 
L 428 3634 
L 531 4366 
L 4263 4366 
z
" transform="scale(0.015625)"/>
     <path id="GillSansMT-BoldItalic-75" d="M 3331 2906 
L 2922 0 
L 2056 0 
L 2109 325 
Q 1656 -50 1169 -50 
Q 763 -50 541 187 
Q 319 425 319 834 
Q 319 941 334 1063 
L 597 2906 
L 1463 2906 
L 1244 1363 
Q 1216 1166 1216 1022 
Q 1216 588 1475 588 
Q 1809 588 2203 1013 
L 2466 2906 
L 3331 2906 
z
" transform="scale(0.015625)"/>
    </defs>
    <use xlink:href="#GillSansMT-BoldItalic-50"/>
    <use xlink:href="#GillSansMT-BoldItalic-43" x="58.300781"/>
    <use xlink:href="#GillSansMT-BoldItalic-41" x="130.099609"/>
    <use xlink:href="#GillSansMT-BoldItalic-20" x="192.599609"/>
    <use xlink:href="#GillSansMT-BoldItalic-6f" x="220.382812"/>
    <use xlink:href="#GillSansMT-BoldItalic-6e" x="276.681641"/>
    <use xlink:href="#GillSansMT-BoldItalic-20" x="331.857422"/>
    <use xlink:href="#GillSansMT-BoldItalic-4f" x="359.640625"/>
    <use xlink:href="#GillSansMT-BoldItalic-4f" x="442.941406"/>
    <use xlink:href="#GillSansMT-BoldItalic-53" x="526.242188"/>
    <use xlink:href="#GillSansMT-BoldItalic-20" x="578.341797"/>
    <use xlink:href="#GillSansMT-BoldItalic-66" x="606.125"/>
    <use xlink:href="#GillSansMT-BoldItalic-69" x="639.425781"/>
    <use xlink:href="#GillSansMT-BoldItalic-74" x="665.402344"/>
    <use xlink:href="#GillSansMT-BoldItalic-74" x="701.925781"/>
    <use xlink:href="#GillSansMT-BoldItalic-69" x="738.449219"/>
    <use xlink:href="#GillSansMT-BoldItalic-6e" x="764.425781"/>
    <use xlink:href="#GillSansMT-BoldItalic-67" x="819.601562"/>
    <use xlink:href="#GillSansMT-BoldItalic-20" x="868.625"/>
    <use xlink:href="#GillSansMT-BoldItalic-65" x="896.408203"/>
    <use xlink:href="#GillSansMT-BoldItalic-72" x="947.384766"/>
    <use xlink:href="#GillSansMT-BoldItalic-72" x="983.908203"/>
    <use xlink:href="#GillSansMT-BoldItalic-6f" x="1018.431641"/>
    <use xlink:href="#GillSansMT-BoldItalic-72" x="1074.730469"/>
    <use xlink:href="#GillSansMT-BoldItalic-73" x="1113.253906"/>
    <use xlink:href="#GillSansMT-BoldItalic-2c" x="1153.753906"/>
    <use xlink:href="#GillSansMT-BoldItalic-20" x="1169.730469"/>
    <use xlink:href="#GillSansMT-BoldItalic-55" x="1197.513672"/>
    <use xlink:href="#GillSansMT-BoldItalic-2e" x="1271.013672"/>
    <use xlink:href="#GillSansMT-BoldItalic-53" x="1296.990234"/>
    <use xlink:href="#GillSansMT-BoldItalic-2e" x="1350.589844"/>
    <use xlink:href="#GillSansMT-BoldItalic-20" x="1366.566406"/>
    <use xlink:href="#GillSansMT-BoldItalic-54" x="1379.349609"/>
    <use xlink:href="#GillSansMT-BoldItalic-72" x="1431.263672"/>
    <use xlink:href="#GillSansMT-BoldItalic-65" x="1466.787109"/>
    <use xlink:href="#GillSansMT-BoldItalic-61" x="1517.763672"/>
    <use xlink:href="#GillSansMT-BoldItalic-73" x="1572.939453"/>
    <use xlink:href="#GillSansMT-BoldItalic-75" x="1610.439453"/>
    <use xlink:href="#GillSansMT-BoldItalic-72" x="1665.615234"/>
    <use xlink:href="#GillSansMT-BoldItalic-69" x="1702.138672"/>
    <use xlink:href="#GillSansMT-BoldItalic-65" x="1728.115234"/>
    <use xlink:href="#GillSansMT-BoldItalic-73" x="1779.091797"/>
   </g>
  </g>
  <g id="text_41">
   <!-- Source: BSIC -->
   <g transform="translate(546.370625 218.88) scale(0.1 -0.1)">
    <defs>
     <path id="Garamond-53" d="M 2484 3856 
Q 2509 3650 2509 3619 
L 2497 3341 
Q 2491 3163 2481 3113 
Q 2453 3100 2434 3100 
L 2406 3106 
Q 2306 3544 2067 3744 
Q 1828 3944 1484 3944 
Q 1128 3944 900 3744 
Q 672 3544 672 3278 
Q 672 3075 831 2906 
Q 991 2738 1647 2400 
Q 2147 2141 2362 1977 
Q 2578 1813 2687 1597 
Q 2797 1381 2797 1116 
Q 2797 781 2623 487 
Q 2450 194 2156 45 
Q 1863 -103 1378 -103 
Q 956 -103 569 31 
Q 341 113 291 163 
Q 241 213 241 269 
Q 241 303 247 356 
Q 291 725 294 963 
Q 300 1109 316 1134 
Q 328 1156 363 1156 
Q 391 1156 408 1136 
Q 425 1116 431 1059 
Q 466 675 788 372 
Q 1106 69 1509 69 
Q 1756 69 1964 172 
Q 2172 275 2289 470 
Q 2406 666 2406 850 
Q 2406 1103 2228 1313 
Q 2050 1522 1512 1801 
Q 975 2081 813 2209 
Q 550 2419 419 2653 
Q 322 2834 322 3075 
Q 322 3509 665 3811 
Q 1009 4113 1588 4113 
Q 1906 4113 2138 4041 
Q 2306 3984 2484 3856 
z
" transform="scale(0.015625)"/>
     <path id="Garamond-6f" d="M 228 1256 
Q 228 1469 317 1711 
Q 406 1953 587 2145 
Q 769 2338 972 2431 
Q 1256 2563 1666 2563 
Q 2250 2563 2642 2163 
Q 3034 1763 3034 1200 
Q 3034 700 2623 308 
Q 2213 -84 1584 -84 
Q 1197 -84 853 119 
Q 597 272 412 572 
Q 228 872 228 1256 
z
M 1609 38 
Q 1847 38 2067 166 
Q 2288 294 2419 576 
Q 2550 859 2550 1231 
Q 2550 1475 2448 1797 
Q 2347 2119 2136 2280 
Q 1925 2441 1641 2441 
Q 1434 2441 1220 2344 
Q 1006 2247 857 1972 
Q 709 1697 709 1191 
Q 709 622 967 330 
Q 1225 38 1609 38 
z
" transform="scale(0.015625)"/>
     <path id="Garamond-75" d="M 103 2453 
L 338 2453 
L 441 2447 
L 522 2453 
Q 844 2453 922 2447 
L 925 2388 
Q 925 1947 913 1534 
Q 903 1291 903 1256 
Q 903 706 939 568 
Q 975 431 1108 348 
Q 1241 266 1428 266 
Q 1656 266 1864 361 
Q 2072 456 2219 594 
Q 2234 713 2234 856 
Q 2234 1322 2244 1484 
Q 2247 1581 2247 1653 
Q 2247 2159 2197 2225 
Q 2147 2291 1816 2325 
Q 1706 2338 1656 2347 
Q 1631 2388 1631 2409 
L 1641 2444 
Q 1722 2453 1800 2453 
L 2297 2447 
Q 2563 2453 2578 2453 
Q 2613 2453 2644 2450 
L 2650 2222 
Q 2628 1747 2625 1047 
L 2619 794 
L 2631 369 
Q 2659 319 2681 309 
Q 2719 294 2834 294 
L 2863 294 
Q 2903 294 3094 275 
Q 3097 234 3097 216 
L 3097 181 
Q 2678 91 2419 0 
Q 2316 -34 2244 -50 
Q 2228 59 2228 84 
L 2228 338 
Q 2228 353 2225 422 
Q 2184 394 2131 353 
Q 1884 163 1609 31 
Q 1425 -59 1253 -59 
Q 925 -59 719 184 
Q 509 428 509 1016 
Q 509 1047 513 1128 
Q 525 1278 525 1338 
Q 525 1359 522 1475 
Q 519 1525 519 1563 
Q 519 1591 522 1689 
Q 525 1788 525 1828 
Q 525 1881 522 1922 
L 516 2088 
L 519 2175 
Q 519 2225 469 2266 
Q 272 2319 211 2326 
Q 150 2334 103 2353 
L 103 2453 
z
" transform="scale(0.015625)"/>
     <path id="Garamond-72" d="M 128 -9 
L 116 31 
Q 116 53 144 97 
L 328 134 
L 588 181 
Q 619 197 631 225 
Q 650 266 650 466 
Q 650 1528 637 1692 
Q 625 1856 581 1900 
Q 538 1944 356 1969 
Q 250 1984 188 2009 
L 200 2103 
Q 528 2238 641 2334 
Q 797 2475 906 2703 
L 1013 2700 
Q 1031 2544 1031 2006 
L 1028 1953 
Q 1028 1934 1034 1894 
Q 1153 2109 1331 2291 
L 1403 2363 
Q 1447 2413 1488 2441 
Q 1706 2572 1813 2572 
Q 1950 2572 2037 2480 
Q 2125 2388 2125 2253 
Q 2125 2147 2063 2088 
Q 1978 2009 1869 2009 
Q 1819 2009 1672 2062 
Q 1525 2116 1478 2116 
Q 1391 2116 1356 2088 
Q 1269 2019 1144 1806 
Q 1047 1647 1047 1513 
L 1063 997 
L 1069 378 
Q 1078 272 1094 241 
Q 1106 219 1156 188 
Q 1494 159 1556 147 
Q 1600 144 1622 141 
Q 1756 138 1809 103 
Q 1838 88 1838 56 
Q 1838 38 1813 6 
L 1466 9 
L 1334 13 
L 1144 9 
L 825 9 
L 653 0 
L 128 -9 
z
" transform="scale(0.015625)"/>
     <path id="Garamond-63" d="M 2497 572 
L 2500 369 
Q 2256 109 2018 6 
Q 1781 -97 1459 -97 
Q 1109 -97 828 86 
Q 547 269 395 603 
Q 244 938 244 1259 
Q 244 1613 426 1927 
Q 609 2241 911 2395 
Q 1213 2550 1669 2550 
Q 2106 2550 2334 2400 
Q 2463 2313 2463 2175 
Q 2463 2075 2397 2009 
Q 2331 1944 2228 1944 
Q 2072 1944 1884 2138 
Q 1769 2256 1675 2301 
Q 1581 2347 1466 2347 
Q 1188 2347 1003 2119 
Q 747 1794 747 1303 
Q 747 797 1009 497 
Q 1272 197 1622 197 
Q 1866 197 2055 276 
Q 2244 356 2497 572 
z
" transform="scale(0.015625)"/>
     <path id="Garamond-65" d="M 2475 1650 
L 1222 1641 
L 984 1641 
Q 841 1641 691 1628 
Q 663 1534 663 1500 
L 666 1469 
L 666 1438 
L 663 1284 
Q 663 1094 783 817 
Q 903 541 1126 395 
Q 1350 250 1684 241 
Q 1863 250 1969 284 
Q 2075 319 2269 444 
L 2494 628 
L 2513 503 
Q 2513 481 2509 456 
Q 2369 278 2153 143 
Q 1938 9 1716 -53 
Q 1609 -81 1366 -81 
Q 1144 -81 928 9 
Q 609 147 426 451 
Q 244 756 244 1191 
Q 244 1328 295 1543 
Q 347 1759 481 2003 
Q 572 2169 703 2275 
Q 891 2425 1031 2484 
Q 1234 2569 1503 2569 
Q 1794 2569 1978 2463 
Q 2228 2322 2351 2100 
Q 2475 1878 2475 1694 
L 2475 1650 
z
M 731 1763 
L 878 1763 
Q 1038 1763 1828 1813 
Q 1953 1819 1981 1838 
Q 2038 1897 2038 1944 
Q 2038 2041 1975 2164 
Q 1913 2288 1783 2355 
Q 1653 2422 1481 2422 
Q 1119 2422 900 2150 
Q 731 1944 731 1763 
z
" transform="scale(0.015625)"/>
     <path id="Garamond-3a" d="M 366 2163 
Q 366 2281 464 2381 
Q 563 2481 691 2481 
Q 828 2481 931 2378 
Q 1034 2275 1034 2141 
Q 1034 1988 916 1863 
Q 838 1775 684 1775 
Q 547 1775 456 1875 
Q 366 1975 366 2163 
z
M 381 259 
Q 381 397 482 500 
Q 584 603 719 603 
Q 847 603 939 506 
Q 1031 409 1031 263 
Q 1031 116 936 16 
Q 841 -84 706 -84 
Q 550 -84 465 33 
Q 381 150 381 259 
z
" transform="scale(0.015625)"/>
     <path id="Garamond-20" transform="scale(0.015625)"/>
     <path id="Garamond-42" d="M 84 3872 
L 84 3969 
Q 138 3981 169 3984 
L 463 4000 
Q 828 4031 1281 4050 
Q 1463 4056 1853 4056 
Q 2384 4056 2631 3978 
Q 2991 3863 3167 3630 
Q 3344 3397 3344 3113 
Q 3344 2650 2684 2334 
L 2669 2309 
Q 3006 2219 3222 2056 
Q 3438 1894 3553 1659 
Q 3638 1488 3638 1209 
Q 3638 744 3214 380 
Q 2791 16 2047 16 
L 1581 16 
L 1109 0 
Q 484 -6 378 -6 
Q 269 -6 163 3 
L 163 38 
Q 163 75 178 91 
Q 197 109 250 122 
Q 641 203 692 233 
Q 744 263 763 328 
Q 800 453 800 972 
Q 800 1019 797 1091 
Q 791 1300 791 1331 
L 791 1656 
Q 791 2481 772 3097 
L 769 3725 
L 766 3803 
Q 500 3841 297 3850 
Q 166 3853 84 3872 
z
M 1325 2291 
Q 1481 2259 1653 2259 
Q 2328 2259 2568 2556 
Q 2809 2853 2809 3147 
Q 2809 3278 2767 3414 
Q 2725 3550 2617 3659 
Q 2509 3769 2350 3822 
Q 2078 3913 1794 3913 
Q 1528 3913 1300 3853 
Q 1297 3788 1297 3756 
Q 1297 3725 1303 3578 
Q 1306 3484 1306 3391 
L 1297 3013 
L 1300 2788 
L 1322 2347 
L 1325 2291 
z
M 2059 166 
Q 2369 188 2578 297 
Q 2675 347 2808 476 
Q 2941 606 3014 787 
Q 3088 969 3088 1138 
Q 3088 1266 3036 1453 
Q 2984 1641 2861 1783 
Q 2738 1925 2494 2017 
Q 2250 2109 1956 2109 
Q 1388 2109 1319 2088 
Q 1316 2016 1316 1981 
L 1319 1866 
L 1316 1631 
L 1316 1366 
Q 1325 631 1350 497 
Q 1375 363 1520 266 
Q 1666 169 2059 166 
z
" transform="scale(0.015625)"/>
     <path id="Garamond-49" d="M 134 100 
Q 203 128 275 134 
Q 753 166 822 248 
Q 891 331 891 1050 
L 888 1378 
L 888 1722 
L 875 2100 
L 881 2322 
L 878 2566 
L 878 2853 
L 872 2981 
L 878 3144 
Q 881 3200 881 3275 
Q 881 3472 863 3691 
Q 850 3734 828 3775 
Q 713 3834 455 3854 
Q 197 3875 163 3900 
Q 138 3919 134 3997 
L 397 3997 
L 1225 3978 
Q 1544 3978 2075 3997 
Q 2075 3947 2069 3903 
Q 2006 3888 1859 3869 
Q 1563 3834 1497 3803 
Q 1456 3788 1438 3750 
Q 1406 3694 1400 3541 
L 1384 3138 
L 1397 1747 
L 1397 1197 
Q 1391 938 1391 844 
Q 1391 494 1408 397 
Q 1425 300 1467 258 
Q 1509 216 1606 191 
Q 1750 156 1831 153 
Q 2006 147 2053 103 
Q 2063 63 2063 34 
L 2063 9 
Q 1778 0 1644 0 
Q 1566 0 1366 9 
L 934 3 
L 200 6 
L 141 6 
L 134 100 
z
" transform="scale(0.015625)"/>
     <path id="Garamond-43" d="M 3703 3825 
Q 3741 3584 3741 3331 
Q 3741 3281 3738 3197 
Q 3694 3188 3672 3188 
Q 3653 3188 3619 3194 
Q 3488 3559 3191 3756 
Q 2894 3953 2456 3953 
Q 2225 3953 2066 3900 
Q 1784 3803 1571 3633 
Q 1359 3463 1212 3227 
Q 1066 2991 980 2655 
Q 894 2319 894 1969 
Q 894 1300 1097 864 
Q 1300 428 1653 242 
Q 2006 56 2366 56 
L 2513 59 
Q 2763 91 2853 119 
Q 3081 184 3229 273 
Q 3378 363 3520 525 
Q 3663 688 3763 903 
L 3800 916 
Q 3816 916 3847 897 
Q 3844 822 3841 800 
Q 3709 272 3650 78 
Q 3600 66 3525 41 
Q 3159 -84 2547 -84 
Q 2053 -84 1808 -17 
Q 1563 50 1273 192 
Q 984 334 765 568 
Q 547 803 412 1161 
Q 278 1519 278 1941 
Q 278 2341 384 2639 
Q 491 2938 712 3244 
Q 934 3550 1236 3753 
Q 1538 3956 1906 4041 
Q 2166 4097 2641 4097 
Q 2988 4097 3294 4005 
Q 3600 3913 3703 3825 
z
" transform="scale(0.015625)"/>
    </defs>
    <use xlink:href="#Garamond-53"/>
    <use xlink:href="#Garamond-6f" x="47.900391"/>
    <use xlink:href="#Garamond-75" x="98.925781"/>
    <use xlink:href="#Garamond-72" x="147.900391"/>
    <use xlink:href="#Garamond-63" x="181.25"/>
    <use xlink:href="#Garamond-65" x="222.900391"/>
    <use xlink:href="#Garamond-3a" x="264.550781"/>
    <use xlink:href="#Garamond-20" x="286.425781"/>
    <use xlink:href="#Garamond-42" x="311.425781"/>
    <use xlink:href="#Garamond-53" x="372.900391"/>
    <use xlink:href="#Garamond-49" x="420.800781"/>
    <use xlink:href="#Garamond-43" x="456.201172"/>
   </g>
  </g>
 </g>
 <defs>
  <clipPath id="pe2aaefe5f8">
   <rect x="32.428125" y="38.43375" width="344.33" height="153.28625"/>
  </clipPath>
  <clipPath id="pbaed46acc2">
   <rect x="412.828125" y="38.43375" width="344.33" height="153.28625"/>
  </clipPath>
  <clipPath id="p1f0bfc9421">
   <rect x="793.228125" y="38.43375" width="344.33" height="153.28625"/>
  </clipPath>
 </defs>
</svg>
