<?xml version="1.0" encoding="utf-8" standalone="no"?>
<!DOCTYPE svg PUBLIC "-//W3C//DTD SVG 1.1//EN"
  "http://www.w3.org/Graphics/SVG/1.1/DTD/svg11.dtd">
<svg xmlns:xlink="http://www.w3.org/1999/xlink" width="1072.815pt" height="225.46625pt" viewBox="0 0 1072.815 225.46625" xmlns="http://www.w3.org/2000/svg" version="1.1">
 <metadata>
  <rdf:RDF xmlns:dc="http://purl.org/dc/elements/1.1/" xmlns:cc="http://creativecommons.org/ns#" xmlns:rdf="http://www.w3.org/1999/02/22-rdf-syntax-ns#">
   <cc:Work>
    <dc:type rdf:resource="http://purl.org/dc/dcmitype/StillImage"/>
    <dc:date>2026-04-29T10:51:39.279126</dc:date>
    <dc:format>image/svg+xml</dc:format>
    <dc:creator>
     <cc:Agent>
      <dc:title>Matplotlib v3.9.2, https://matplotlib.org/</dc:title>
     </cc:Agent>
    </dc:creator>
   </cc:Work>
  </rdf:RDF>
 </metadata>
 <defs>
  <style type="text/css">*{stroke-linejoin: round; stroke-linecap: butt}</style>
 </defs>
 <g id="figure_1">
  <g id="patch_1">
   <path d="M 0 225.46625 
L 1072.815 225.46625 
L 1072.815 0 
L 0 0 
z
" style="fill: #ffffff"/>
  </g>
  <g id="axes_1">
   <g id="patch_2">
    <path d="M 23.575 189.16 
L 530.97 189.16 
L 530.97 38.4 
L 23.575 38.4 
z
" style="fill: #ffffff"/>
   </g>
   <g id="patch_3">
    <path d="M 46.638409 189.16 
L 62.014015 189.16 
L 62.014015 170.578936 
L 46.638409 170.578936 
z
" clip-path="url(#p179036e7d9)" style="fill: #38329a"/>
   </g>
   <g id="patch_4">
    <path d="M 62.014015 189.16 
L 77.389621 189.16 
L 77.389621 170.578936 
L 62.014015 170.578936 
z
" clip-path="url(#p179036e7d9)" style="fill: #38329a"/>
   </g>
   <g id="patch_5">
    <path d="M 77.389621 189.16 
L 92.765227 189.16 
L 92.765227 165.511373 
L 77.389621 165.511373 
z
" clip-path="url(#p179036e7d9)" style="fill: #38329a"/>
   </g>
   <g id="patch_6">
    <path d="M 92.765227 189.16 
L 108.140833 189.16 
L 108.140833 138.48437 
L 92.765227 138.48437 
z
" clip-path="url(#p179036e7d9)" style="fill: #38329a"/>
   </g>
   <g id="patch_7">
    <path d="M 108.140833 189.16 
L 123.516439 189.16 
L 123.516439 103.011429 
L 108.140833 103.011429 
z
" clip-path="url(#p179036e7d9)" style="fill: #38329a"/>
   </g>
   <g id="patch_8">
    <path d="M 123.516439 189.16 
L 138.892045 189.16 
L 138.892045 45.579048 
L 123.516439 45.579048 
z
" clip-path="url(#p179036e7d9)" style="fill: #38329a"/>
   </g>
   <g id="patch_9">
    <path d="M 138.892045 189.16 
L 154.267652 189.16 
L 154.267652 82.741176 
L 138.892045 82.741176 
z
" clip-path="url(#p179036e7d9)" style="fill: #38329a"/>
   </g>
   <g id="patch_10">
    <path d="M 154.267652 189.16 
L 169.643258 189.16 
L 169.643258 87.808739 
L 154.267652 87.808739 
z
" clip-path="url(#p179036e7d9)" style="fill: #38329a"/>
   </g>
   <g id="patch_11">
    <path d="M 169.643258 189.16 
L 185.018864 189.16 
L 185.018864 119.903305 
L 169.643258 119.903305 
z
" clip-path="url(#p179036e7d9)" style="fill: #38329a"/>
   </g>
   <g id="patch_12">
    <path d="M 185.018864 189.16 
L 200.39447 189.16 
L 200.39447 135.105994 
L 185.018864 135.105994 
z
" clip-path="url(#p179036e7d9)" style="fill: #38329a"/>
   </g>
   <g id="patch_13">
    <path d="M 200.39447 189.16 
L 215.770076 189.16 
L 215.770076 141.862745 
L 200.39447 141.862745 
z
" clip-path="url(#p179036e7d9)" style="fill: #38329a"/>
   </g>
   <g id="patch_14">
    <path d="M 215.770076 189.16 
L 231.145682 189.16 
L 231.145682 157.065434 
L 215.770076 157.065434 
z
" clip-path="url(#p179036e7d9)" style="fill: #38329a"/>
   </g>
   <g id="patch_15">
    <path d="M 231.145682 189.16 
L 246.521288 189.16 
L 246.521288 165.511373 
L 231.145682 165.511373 
z
" clip-path="url(#p179036e7d9)" style="fill: #38329a"/>
   </g>
   <g id="patch_16">
    <path d="M 246.521288 189.16 
L 261.896894 189.16 
L 261.896894 175.646499 
L 246.521288 175.646499 
z
" clip-path="url(#p179036e7d9)" style="fill: #38329a"/>
   </g>
   <g id="patch_17">
    <path d="M 261.896894 189.16 
L 277.2725 189.16 
L 277.2725 173.957311 
L 261.896894 173.957311 
z
" clip-path="url(#p179036e7d9)" style="fill: #38329a"/>
   </g>
   <g id="patch_18">
    <path d="M 277.2725 189.16 
L 292.648106 189.16 
L 292.648106 177.335686 
L 277.2725 177.335686 
z
" clip-path="url(#p179036e7d9)" style="fill: #38329a"/>
   </g>
   <g id="patch_19">
    <path d="M 292.648106 189.16 
L 308.023712 189.16 
L 308.023712 182.403249 
L 292.648106 182.403249 
z
" clip-path="url(#p179036e7d9)" style="fill: #38329a"/>
   </g>
   <g id="patch_20">
    <path d="M 308.023712 189.16 
L 323.399318 189.16 
L 323.399318 185.781625 
L 308.023712 185.781625 
z
" clip-path="url(#p179036e7d9)" style="fill: #38329a"/>
   </g>
   <g id="patch_21">
    <path d="M 323.399318 189.16 
L 338.774924 189.16 
L 338.774924 187.470812 
L 323.399318 187.470812 
z
" clip-path="url(#p179036e7d9)" style="fill: #38329a"/>
   </g>
   <g id="patch_22">
    <path d="M 338.774924 189.16 
L 354.15053 189.16 
L 354.15053 184.092437 
L 338.774924 184.092437 
z
" clip-path="url(#p179036e7d9)" style="fill: #38329a"/>
   </g>
   <g id="patch_23">
    <path d="M 354.15053 189.16 
L 369.526136 189.16 
L 369.526136 184.092437 
L 354.15053 184.092437 
z
" clip-path="url(#p179036e7d9)" style="fill: #38329a"/>
   </g>
   <g id="patch_24">
    <path d="M 369.526136 189.16 
L 384.901742 189.16 
L 384.901742 184.092437 
L 369.526136 184.092437 
z
" clip-path="url(#p179036e7d9)" style="fill: #38329a"/>
   </g>
   <g id="patch_25">
    <path d="M 384.901742 189.16 
L 400.277348 189.16 
L 400.277348 184.092437 
L 384.901742 184.092437 
z
" clip-path="url(#p179036e7d9)" style="fill: #38329a"/>
   </g>
   <g id="patch_26">
    <path d="M 400.277348 189.16 
L 415.652955 189.16 
L 415.652955 182.403249 
L 400.277348 182.403249 
z
" clip-path="url(#p179036e7d9)" style="fill: #38329a"/>
   </g>
   <g id="patch_27">
    <path d="M 415.652955 189.16 
L 431.028561 189.16 
L 431.028561 187.470812 
L 415.652955 187.470812 
z
" clip-path="url(#p179036e7d9)" style="fill: #38329a"/>
   </g>
   <g id="patch_28">
    <path d="M 431.028561 189.16 
L 446.404167 189.16 
L 446.404167 189.16 
L 431.028561 189.16 
z
" clip-path="url(#p179036e7d9)" style="fill: #38329a"/>
   </g>
   <g id="patch_29">
    <path d="M 446.404167 189.16 
L 461.779773 189.16 
L 461.779773 189.16 
L 446.404167 189.16 
z
" clip-path="url(#p179036e7d9)" style="fill: #38329a"/>
   </g>
   <g id="patch_30">
    <path d="M 461.779773 189.16 
L 477.155379 189.16 
L 477.155379 187.470812 
L 461.779773 187.470812 
z
" clip-path="url(#p179036e7d9)" style="fill: #38329a"/>
   </g>
   <g id="patch_31">
    <path d="M 477.155379 189.16 
L 492.530985 189.16 
L 492.530985 189.16 
L 477.155379 189.16 
z
" clip-path="url(#p179036e7d9)" style="fill: #38329a"/>
   </g>
   <g id="patch_32">
    <path d="M 492.530985 189.16 
L 507.906591 189.16 
L 507.906591 187.470812 
L 492.530985 187.470812 
z
" clip-path="url(#p179036e7d9)" style="fill: #38329a"/>
   </g>
   <g id="matplotlib.axis_1">
    <g id="xtick_1">
     <g id="line2d_1">
      <defs>
       <path id="m7f52f16e98" d="M 0 0 
L 0 3.5 
" style="stroke: #000000; stroke-width: 0.8"/>
      </defs>
      <g>
       <use xlink:href="#m7f52f16e98" x="39.830023" y="189.16" style="stroke: #000000; stroke-width: 0.8"/>
      </g>
     </g>
     <g id="text_1">
      <!-- 1.0 -->
      <g transform="translate(34.048773 202.649063) scale(0.1 -0.1)">
       <defs>
        <path id="Garamond-31" d="M 2269 6 
L 838 6 
Q 834 34 834 53 
Q 834 106 856 126 
Q 878 147 994 169 
Q 1175 206 1288 259 
Q 1319 328 1319 388 
L 1319 581 
Q 1319 616 1328 897 
Q 1331 1003 1334 1816 
L 1341 2550 
L 1334 2978 
Q 1334 3072 1341 3569 
Q 631 3063 563 3063 
Q 538 3063 509 3089 
Q 481 3116 481 3141 
Q 481 3172 503 3191 
Q 547 3231 713 3325 
Q 738 3338 928 3494 
Q 1231 3747 1372 3890 
Q 1513 4034 1544 4053 
Q 1606 4056 1641 4056 
Q 1722 4056 1742 4029 
Q 1763 4003 1763 3838 
L 1741 1053 
L 1741 778 
Q 1741 678 1737 576 
Q 1734 475 1734 428 
Q 1734 316 1763 281 
Q 1781 259 1878 225 
L 2091 181 
Q 2228 147 2241 134 
Q 2272 106 2272 47 
L 2269 6 
z
" transform="scale(0.015625)"/>
        <path id="Garamond-2e" d="M 375 253 
Q 375 391 476 494 
Q 578 597 713 597 
Q 844 597 934 500 
Q 1025 403 1025 256 
Q 1025 109 929 9 
Q 834 -91 700 -91 
Q 569 -91 472 11 
Q 375 113 375 253 
z
" transform="scale(0.015625)"/>
        <path id="Garamond-30" d="M 2800 1972 
Q 2800 1650 2753 1400 
Q 2669 969 2519 678 
Q 2369 388 2163 188 
Q 2013 41 1844 -26 
Q 1675 -94 1500 -94 
Q 1191 -94 914 112 
Q 638 319 431 794 
Q 225 1269 225 1913 
Q 225 2416 350 2878 
Q 475 3341 679 3595 
Q 884 3850 1086 3962 
Q 1288 4075 1525 4075 
Q 1859 4075 2173 3812 
Q 2488 3550 2675 2997 
Q 2800 2625 2800 1972 
z
M 2331 2075 
Q 2328 2844 2275 3119 
Q 2188 3572 1989 3753 
Q 1791 3934 1525 3934 
Q 1303 3934 1104 3790 
Q 906 3647 831 3341 
Q 703 2844 703 1834 
Q 703 834 901 436 
Q 1100 38 1497 38 
Q 1769 38 1967 206 
Q 2166 375 2252 833 
Q 2338 1291 2334 1859 
L 2331 2075 
z
" transform="scale(0.015625)"/>
       </defs>
       <use xlink:href="#Garamond-31"/>
       <use xlink:href="#Garamond-2e" x="46.875"/>
       <use xlink:href="#Garamond-30" x="68.75"/>
      </g>
     </g>
    </g>
    <g id="xtick_2">
     <g id="line2d_2">
      <g>
       <use xlink:href="#m7f52f16e98" x="96.566576" y="189.16" style="stroke: #000000; stroke-width: 0.8"/>
      </g>
     </g>
     <g id="text_2">
      <!-- 1.5 -->
      <g transform="translate(90.785326 202.649063) scale(0.1 -0.1)">
       <defs>
        <path id="Garamond-35" d="M 2369 3606 
Q 2019 3578 1803 3578 
Q 1644 3578 1466 3588 
Q 1369 3594 1350 3594 
Q 969 3594 941 3578 
Q 928 3572 925 3550 
Q 916 3500 844 2434 
Q 984 2506 1115 2536 
Q 1247 2566 1463 2566 
Q 1616 2566 1675 2547 
Q 1972 2450 2103 2372 
Q 2284 2259 2398 2115 
Q 2513 1972 2609 1694 
Q 2678 1494 2678 1275 
Q 2678 1038 2611 833 
Q 2544 628 2444 490 
Q 2344 353 2147 204 
Q 1950 56 1683 -22 
Q 1416 -100 1325 -103 
L 872 -63 
Q 684 -31 543 39 
Q 403 109 356 175 
Q 328 216 328 281 
Q 328 331 398 390 
Q 469 450 572 450 
Q 619 450 675 422 
L 922 263 
Q 1006 188 1131 122 
Q 1150 113 1225 100 
Q 1406 75 1422 75 
Q 1491 75 1656 131 
Q 1822 188 1962 323 
Q 2103 459 2204 667 
Q 2306 875 2306 1128 
Q 2306 1581 2022 1875 
Q 1738 2169 1338 2169 
Q 1159 2169 1007 2109 
Q 856 2050 803 1978 
L 756 1959 
Q 719 1944 703 1944 
L 663 1953 
Q 653 2009 653 2038 
Q 653 2063 663 2125 
Q 684 2278 686 2442 
Q 688 2606 719 2738 
L 709 2888 
Q 731 3003 734 3109 
Q 744 3828 794 3934 
Q 816 3984 869 3984 
Q 891 3984 941 3978 
L 959 3975 
L 1356 3978 
Q 1625 3963 1753 3963 
Q 2047 3963 2225 4003 
Q 2313 4084 2359 4084 
Q 2378 4084 2428 4078 
L 2438 4041 
L 2413 3909 
L 2397 3700 
Q 2394 3678 2369 3606 
z
" transform="scale(0.015625)"/>
       </defs>
       <use xlink:href="#Garamond-31"/>
       <use xlink:href="#Garamond-2e" x="46.875"/>
       <use xlink:href="#Garamond-35" x="68.75"/>
      </g>
     </g>
    </g>
    <g id="xtick_3">
     <g id="line2d_3">
      <g>
       <use xlink:href="#m7f52f16e98" x="153.30313" y="189.16" style="stroke: #000000; stroke-width: 0.8"/>
      </g>
     </g>
     <g id="text_3">
      <!-- 2.0 -->
      <g transform="translate(147.52188 202.649063) scale(0.1 -0.1)">
       <defs>
        <path id="Garamond-32" d="M 2728 6 
Q 2259 25 1472 25 
L 794 6 
L 491 16 
L 250 6 
Q 213 9 141 22 
Q 197 153 284 263 
Q 544 581 1044 1084 
Q 1744 1788 1966 2189 
Q 2188 2591 2188 2944 
Q 2188 3275 1963 3500 
Q 1738 3725 1409 3725 
Q 1213 3725 1028 3633 
Q 844 3541 731 3400 
Q 659 3309 541 3038 
Q 475 2888 463 2875 
Q 444 2853 419 2853 
Q 394 2853 370 2879 
Q 347 2906 347 2947 
Q 347 3088 489 3397 
Q 631 3706 907 3881 
Q 1184 4056 1550 4056 
Q 2028 4056 2348 3745 
Q 2669 3434 2669 3003 
Q 2669 2663 2450 2311 
Q 2231 1959 1444 1234 
Q 1184 997 1075 884 
Q 966 772 634 397 
Q 1113 378 1503 378 
Q 1588 378 1688 384 
Q 1872 391 1903 391 
L 2338 381 
Q 2409 381 2484 450 
Q 2559 519 2688 838 
L 2763 841 
Q 2778 841 2809 838 
Q 2825 806 2825 791 
L 2819 766 
Q 2794 675 2775 434 
Q 2763 294 2728 6 
z
" transform="scale(0.015625)"/>
       </defs>
       <use xlink:href="#Garamond-32"/>
       <use xlink:href="#Garamond-2e" x="46.875"/>
       <use xlink:href="#Garamond-30" x="68.75"/>
      </g>
     </g>
    </g>
    <g id="xtick_4">
     <g id="line2d_4">
      <g>
       <use xlink:href="#m7f52f16e98" x="210.039684" y="189.16" style="stroke: #000000; stroke-width: 0.8"/>
      </g>
     </g>
     <g id="text_4">
      <!-- 2.5 -->
      <g transform="translate(204.258434 202.649063) scale(0.1 -0.1)">
       <use xlink:href="#Garamond-32"/>
       <use xlink:href="#Garamond-2e" x="46.875"/>
       <use xlink:href="#Garamond-35" x="68.75"/>
      </g>
     </g>
    </g>
    <g id="xtick_5">
     <g id="line2d_5">
      <g>
       <use xlink:href="#m7f52f16e98" x="266.776238" y="189.16" style="stroke: #000000; stroke-width: 0.8"/>
      </g>
     </g>
     <g id="text_5">
      <!-- 3.0 -->
      <g transform="translate(260.994988 202.649063) scale(0.1 -0.1)">
       <defs>
        <path id="Garamond-33" d="M 534 3150 
L 431 3206 
Q 628 3684 900 3879 
Q 1172 4075 1534 4075 
Q 1872 4075 2075 3925 
Q 2378 3700 2378 3419 
Q 2378 3191 2223 2959 
Q 2069 2728 1681 2441 
L 1756 2444 
Q 2000 2444 2226 2320 
Q 2453 2197 2584 1936 
Q 2716 1675 2716 1375 
Q 2716 772 2273 342 
Q 1831 -88 1147 -88 
Q 628 -88 381 63 
Q 247 141 247 259 
Q 247 325 301 378 
Q 356 431 438 431 
Q 541 431 688 319 
Q 1034 53 1291 53 
Q 1678 53 1978 379 
Q 2278 706 2278 1203 
Q 2278 1616 2076 1880 
Q 1875 2144 1566 2144 
Q 1334 2144 1084 1925 
L 1009 2050 
Q 1166 2184 1291 2278 
Q 1672 2556 1859 2825 
Q 1994 3019 1994 3166 
Q 1994 3413 1819 3583 
Q 1644 3753 1359 3753 
Q 891 3753 534 3150 
z
" transform="scale(0.015625)"/>
       </defs>
       <use xlink:href="#Garamond-33"/>
       <use xlink:href="#Garamond-2e" x="46.875"/>
       <use xlink:href="#Garamond-30" x="68.75"/>
      </g>
     </g>
    </g>
    <g id="xtick_6">
     <g id="line2d_6">
      <g>
       <use xlink:href="#m7f52f16e98" x="323.512791" y="189.16" style="stroke: #000000; stroke-width: 0.8"/>
      </g>
     </g>
     <g id="text_6">
      <!-- 3.5 -->
      <g transform="translate(317.731541 202.649063) scale(0.1 -0.1)">
       <use xlink:href="#Garamond-33"/>
       <use xlink:href="#Garamond-2e" x="46.875"/>
       <use xlink:href="#Garamond-35" x="68.75"/>
      </g>
     </g>
    </g>
    <g id="xtick_7">
     <g id="line2d_7">
      <g>
       <use xlink:href="#m7f52f16e98" x="380.249345" y="189.16" style="stroke: #000000; stroke-width: 0.8"/>
      </g>
     </g>
     <g id="text_7">
      <!-- 4.0 -->
      <g transform="translate(374.468095 202.649063) scale(0.1 -0.1)">
       <defs>
        <path id="Garamond-34" d="M 2097 4075 
L 2241 4075 
Q 2238 3978 2238 3959 
L 2247 3500 
L 2228 3088 
L 2241 2628 
L 2241 2266 
L 2247 1772 
Q 2247 1656 2241 1422 
L 2306 1419 
L 2528 1419 
L 2741 1416 
L 2916 1422 
Q 2922 1325 2922 1278 
Q 2922 1231 2916 1134 
Q 2722 1125 2706 1125 
L 2550 1128 
L 2425 1128 
Q 2375 1128 2241 1134 
Q 2234 691 2241 -44 
Q 2222 -63 2200 -69 
L 2006 -75 
Q 1944 -75 1816 -69 
Q 1825 300 1825 459 
Q 1825 600 1819 716 
Q 1809 928 1809 959 
Q 1809 1016 1816 1134 
Q 1684 1119 1613 1119 
Q 1575 1119 1528 1122 
Q 1213 1138 1172 1138 
Q 1131 1138 972 1116 
L 650 1134 
L 475 1125 
L 356 1144 
L 206 1113 
L 178 1134 
Q 172 1203 172 1238 
Q 172 1272 178 1341 
Q 266 1456 500 1809 
L 1109 2694 
Q 1334 3028 1487 3225 
Q 1641 3422 1791 3648 
Q 1941 3875 2097 4075 
z
M 1816 1422 
L 1819 1934 
L 1816 2341 
L 1816 3388 
Q 1559 3050 1103 2366 
Q 581 1584 484 1422 
Q 622 1428 691 1428 
L 1547 1416 
Q 1641 1416 1816 1422 
z
" transform="scale(0.015625)"/>
       </defs>
       <use xlink:href="#Garamond-34"/>
       <use xlink:href="#Garamond-2e" x="46.875"/>
       <use xlink:href="#Garamond-30" x="68.75"/>
      </g>
     </g>
    </g>
    <g id="xtick_8">
     <g id="line2d_8">
      <g>
       <use xlink:href="#m7f52f16e98" x="436.985899" y="189.16" style="stroke: #000000; stroke-width: 0.8"/>
      </g>
     </g>
     <g id="text_8">
      <!-- 4.5 -->
      <g transform="translate(431.204649 202.649063) scale(0.1 -0.1)">
       <use xlink:href="#Garamond-34"/>
       <use xlink:href="#Garamond-2e" x="46.875"/>
       <use xlink:href="#Garamond-35" x="68.75"/>
      </g>
     </g>
    </g>
    <g id="xtick_9">
     <g id="line2d_9">
      <g>
       <use xlink:href="#m7f52f16e98" x="493.722452" y="189.16" style="stroke: #000000; stroke-width: 0.8"/>
      </g>
     </g>
     <g id="text_9">
      <!-- 5.0 -->
      <g transform="translate(487.941202 202.649063) scale(0.1 -0.1)">
       <use xlink:href="#Garamond-35"/>
       <use xlink:href="#Garamond-2e" x="46.875"/>
       <use xlink:href="#Garamond-30" x="68.75"/>
      </g>
     </g>
    </g>
    <g id="text_10">
     <!-- Skew -->
     <g transform="translate(267.186562 215.702188) scale(0.1 -0.1)">
      <defs>
       <path id="Garamond-53" d="M 2484 3856 
Q 2509 3650 2509 3619 
L 2497 3341 
Q 2491 3163 2481 3113 
Q 2453 3100 2434 3100 
L 2406 3106 
Q 2306 3544 2067 3744 
Q 1828 3944 1484 3944 
Q 1128 3944 900 3744 
Q 672 3544 672 3278 
Q 672 3075 831 2906 
Q 991 2738 1647 2400 
Q 2147 2141 2362 1977 
Q 2578 1813 2687 1597 
Q 2797 1381 2797 1116 
Q 2797 781 2623 487 
Q 2450 194 2156 45 
Q 1863 -103 1378 -103 
Q 956 -103 569 31 
Q 341 113 291 163 
Q 241 213 241 269 
Q 241 303 247 356 
Q 291 725 294 963 
Q 300 1109 316 1134 
Q 328 1156 363 1156 
Q 391 1156 408 1136 
Q 425 1116 431 1059 
Q 466 675 788 372 
Q 1106 69 1509 69 
Q 1756 69 1964 172 
Q 2172 275 2289 470 
Q 2406 666 2406 850 
Q 2406 1103 2228 1313 
Q 2050 1522 1512 1801 
Q 975 2081 813 2209 
Q 550 2419 419 2653 
Q 322 2834 322 3075 
Q 322 3509 665 3811 
Q 1009 4113 1588 4113 
Q 1906 4113 2138 4041 
Q 2306 3984 2484 3856 
z
" transform="scale(0.015625)"/>
       <path id="Garamond-6b" d="M 169 0 
L 163 91 
Q 188 109 209 114 
Q 231 119 367 128 
Q 503 138 537 189 
Q 572 241 572 616 
L 578 1850 
L 572 2069 
Q 572 2097 578 2278 
Q 584 2363 584 2481 
L 572 3025 
L 575 3500 
Q 575 3672 526 3720 
Q 478 3769 184 3809 
L 184 3847 
Q 184 3866 188 3900 
Q 366 3938 503 3994 
Q 575 4025 869 4188 
L 966 4188 
Q 963 4116 963 4100 
L 963 3828 
L 959 3694 
L 969 3447 
L 966 3075 
L 969 2456 
L 959 1688 
L 959 1450 
Q 959 1406 963 1328 
L 997 1325 
Q 1103 1325 1213 1403 
Q 1703 1753 1828 1879 
Q 1953 2006 1953 2063 
Q 1953 2097 1913 2150 
Q 1819 2200 1703 2219 
Q 1669 2225 1628 2234 
Q 1572 2250 1534 2256 
L 1528 2288 
Q 1528 2309 1544 2350 
Q 2038 2369 2403 2369 
Q 2609 2369 2844 2359 
L 2844 2319 
Q 2844 2297 2828 2263 
Q 2781 2253 2681 2234 
Q 2488 2203 2388 2147 
Q 2147 2019 1891 1788 
Q 1738 1650 1625 1556 
L 1513 1459 
Q 1525 1438 1553 1406 
Q 1566 1394 1603 1350 
Q 1641 1306 1738 1203 
Q 2075 847 2238 653 
Q 2291 591 2356 516 
Q 2600 244 2641 213 
Q 2728 156 2900 125 
Q 2981 109 3041 97 
Q 3053 59 3053 38 
L 3050 6 
Q 2828 25 2731 25 
L 2675 25 
L 1806 0 
Q 1756 -6 1738 -6 
Q 1706 -6 1672 6 
Q 1663 31 1663 50 
L 1663 72 
Q 1681 100 1697 106 
Q 2006 131 2056 147 
Q 2084 153 2109 181 
Q 2109 234 2018 353 
Q 1928 472 1566 875 
Q 1334 1131 1267 1173 
Q 1200 1216 1081 1216 
L 963 1216 
Q 950 1103 950 700 
Q 950 325 1013 219 
Q 1047 159 1175 143 
Q 1303 128 1341 97 
Q 1366 78 1372 9 
Q 1184 13 1056 13 
Q 850 13 606 3 
Q 459 -3 375 -3 
Q 313 -3 169 0 
z
" transform="scale(0.015625)"/>
       <path id="Garamond-65" d="M 2475 1650 
L 1222 1641 
L 984 1641 
Q 841 1641 691 1628 
Q 663 1534 663 1500 
L 666 1469 
L 666 1438 
L 663 1284 
Q 663 1094 783 817 
Q 903 541 1126 395 
Q 1350 250 1684 241 
Q 1863 250 1969 284 
Q 2075 319 2269 444 
L 2494 628 
L 2513 503 
Q 2513 481 2509 456 
Q 2369 278 2153 143 
Q 1938 9 1716 -53 
Q 1609 -81 1366 -81 
Q 1144 -81 928 9 
Q 609 147 426 451 
Q 244 756 244 1191 
Q 244 1328 295 1543 
Q 347 1759 481 2003 
Q 572 2169 703 2275 
Q 891 2425 1031 2484 
Q 1234 2569 1503 2569 
Q 1794 2569 1978 2463 
Q 2228 2322 2351 2100 
Q 2475 1878 2475 1694 
L 2475 1650 
z
M 731 1763 
L 878 1763 
Q 1038 1763 1828 1813 
Q 1953 1819 1981 1838 
Q 2038 1897 2038 1944 
Q 2038 2041 1975 2164 
Q 1913 2288 1783 2355 
Q 1653 2422 1481 2422 
Q 1119 2422 900 2150 
Q 731 1944 731 1763 
z
" transform="scale(0.015625)"/>
       <path id="Garamond-77" d="M -66 2463 
L 1134 2459 
Q 1169 2459 1181 2446 
Q 1194 2434 1194 2409 
Q 1194 2350 1147 2322 
Q 928 2306 875 2268 
Q 822 2231 822 2166 
Q 822 2134 828 2106 
Q 838 2069 919 1884 
Q 1025 1638 1297 1084 
L 1669 328 
Q 1988 884 2184 1363 
L 1994 1863 
Q 1963 1931 1914 2068 
Q 1866 2206 1839 2229 
Q 1813 2253 1647 2300 
Q 1481 2347 1450 2372 
L 1447 2394 
Q 1447 2413 1466 2447 
Q 1541 2466 1584 2466 
L 1763 2463 
L 2153 2463 
L 2272 2466 
L 2656 2459 
Q 2703 2459 2734 2463 
L 2788 2463 
Q 2806 2463 2841 2459 
L 2834 2359 
Q 2788 2331 2678 2319 
Q 2472 2297 2363 2241 
Q 2328 2203 2328 2175 
Q 2328 2106 2366 2003 
Q 2378 1972 2431 1809 
L 2766 928 
Q 2913 534 2991 378 
Q 3122 619 3359 1244 
Q 3444 1463 3584 1766 
Q 3675 1956 3675 2094 
Q 3675 2166 3622 2216 
Q 3569 2266 3375 2309 
Q 3259 2334 3203 2356 
Q 3188 2381 3188 2397 
Q 3188 2425 3222 2459 
L 3269 2459 
L 3522 2463 
Q 3538 2463 3666 2458 
Q 3794 2453 3916 2453 
Q 4009 2453 4131 2459 
L 4288 2459 
Q 4306 2453 4314 2443 
Q 4322 2434 4322 2413 
Q 4322 2378 4313 2338 
Q 4159 2319 4071 2267 
Q 3984 2216 3834 1984 
L 3275 641 
Q 3197 453 3003 66 
Q 2963 -16 2942 -66 
Q 2922 -116 2903 -131 
Q 2884 -147 2853 -147 
Q 2831 -147 2794 -134 
Q 2706 38 2406 813 
Q 2325 1022 2256 1169 
Q 1744 103 1584 -141 
Q 1541 -147 1519 -147 
Q 1497 -147 1456 -141 
L 866 1094 
L 325 2150 
Q 269 2247 238 2269 
Q 184 2303 50 2325 
Q -25 2338 -66 2344 
Q -69 2391 -69 2416 
Q -69 2431 -66 2463 
z
" transform="scale(0.015625)"/>
      </defs>
      <use xlink:href="#Garamond-53"/>
      <use xlink:href="#Garamond-6b" x="47.900391"/>
      <use xlink:href="#Garamond-65" x="93.400391"/>
      <use xlink:href="#Garamond-77" x="135.050781"/>
     </g>
    </g>
   </g>
   <g id="matplotlib.axis_2">
    <g id="ytick_1">
     <g id="line2d_10">
      <defs>
       <path id="mc12767b042" d="M 0 0 
L -3.5 0 
" style="stroke: #000000; stroke-width: 0.8"/>
      </defs>
      <g>
       <use xlink:href="#mc12767b042" x="23.575" y="189.16" style="stroke: #000000; stroke-width: 0.8"/>
      </g>
     </g>
     <g id="text_11">
      <!-- 0 -->
      <g transform="translate(11.8875 192.404531) scale(0.1 -0.1)">
       <use xlink:href="#Garamond-30"/>
      </g>
     </g>
    </g>
    <g id="ytick_2">
     <g id="line2d_11">
      <g>
       <use xlink:href="#mc12767b042" x="23.575" y="155.376246" style="stroke: #000000; stroke-width: 0.8"/>
      </g>
     </g>
     <g id="text_12">
      <!-- 20 -->
      <g transform="translate(7.2 158.620778) scale(0.1 -0.1)">
       <use xlink:href="#Garamond-32"/>
       <use xlink:href="#Garamond-30" x="46.875"/>
      </g>
     </g>
    </g>
    <g id="ytick_3">
     <g id="line2d_12">
      <g>
       <use xlink:href="#mc12767b042" x="23.575" y="121.592493" style="stroke: #000000; stroke-width: 0.8"/>
      </g>
     </g>
     <g id="text_13">
      <!-- 40 -->
      <g transform="translate(7.2 124.837024) scale(0.1 -0.1)">
       <use xlink:href="#Garamond-34"/>
       <use xlink:href="#Garamond-30" x="46.875"/>
      </g>
     </g>
    </g>
    <g id="ytick_4">
     <g id="line2d_13">
      <g>
       <use xlink:href="#mc12767b042" x="23.575" y="87.808739" style="stroke: #000000; stroke-width: 0.8"/>
      </g>
     </g>
     <g id="text_14">
      <!-- 60 -->
      <g transform="translate(7.2 91.053271) scale(0.1 -0.1)">
       <defs>
        <path id="Garamond-36" d="M 2459 4094 
Q 2488 4047 2500 3991 
Q 2481 3956 2441 3944 
Q 2309 3909 2053 3763 
Q 1994 3731 1691 3472 
Q 1556 3378 1366 3122 
Q 1106 2778 993 2508 
Q 881 2238 794 1800 
Q 769 1675 759 1359 
L 750 1244 
Q 750 844 986 445 
Q 1222 47 1575 47 
Q 1759 47 1920 159 
Q 2081 272 2175 540 
Q 2269 809 2269 1191 
Q 2269 1709 2070 1957 
Q 1872 2206 1594 2206 
Q 1509 2206 1444 2181 
L 1419 2175 
Q 1378 2175 1334 2266 
Q 1416 2319 1531 2353 
Q 1647 2388 1681 2388 
Q 1703 2388 1966 2341 
L 2056 2297 
Q 2206 2250 2284 2188 
Q 2428 2072 2541 1897 
Q 2597 1806 2691 1528 
Q 2697 1509 2734 1253 
L 2719 941 
Q 2653 659 2594 547 
Q 2506 375 2300 172 
Q 2194 69 2025 3 
Q 1788 -88 1522 -88 
Q 1016 -88 664 317 
Q 313 722 313 1491 
Q 313 1919 444 2301 
Q 575 2684 816 3003 
Q 978 3219 1258 3466 
Q 1538 3713 1788 3850 
Q 2128 4031 2459 4094 
z
" transform="scale(0.015625)"/>
       </defs>
       <use xlink:href="#Garamond-36"/>
       <use xlink:href="#Garamond-30" x="46.875"/>
      </g>
     </g>
    </g>
    <g id="ytick_5">
     <g id="line2d_14">
      <g>
       <use xlink:href="#mc12767b042" x="23.575" y="54.024986" style="stroke: #000000; stroke-width: 0.8"/>
      </g>
     </g>
     <g id="text_15">
      <!-- 80 -->
      <g transform="translate(7.2 57.269517) scale(0.1 -0.1)">
       <defs>
        <path id="Garamond-38" d="M 1206 1997 
Q 903 2159 794 2256 
Q 638 2391 533 2603 
Q 428 2816 428 3038 
Q 428 3425 736 3739 
Q 1044 4053 1491 4053 
Q 1994 4053 2287 3787 
Q 2581 3522 2581 3141 
Q 2581 2928 2493 2753 
Q 2406 2578 2234 2438 
Q 2119 2341 1838 2197 
Q 2266 1969 2347 1903 
Q 2516 1772 2631 1556 
Q 2747 1341 2747 1078 
Q 2747 588 2408 250 
Q 2069 -88 1544 -88 
Q 1003 -88 683 207 
Q 363 503 363 938 
Q 363 1184 447 1386 
Q 531 1588 709 1731 
Q 847 1841 1206 1997 
z
M 1697 2269 
Q 1959 2413 2063 2566 
Q 2231 2819 2231 3141 
Q 2231 3391 2131 3570 
Q 2031 3750 1864 3828 
Q 1697 3906 1503 3906 
Q 1194 3906 994 3693 
Q 794 3481 794 3172 
Q 794 2991 847 2870 
Q 900 2750 1016 2647 
Q 1091 2578 1366 2400 
Q 1406 2375 1563 2322 
Q 1609 2306 1697 2269 
z
M 1359 1928 
Q 1134 1809 1044 1719 
Q 906 1588 828 1406 
Q 750 1225 750 906 
Q 750 572 897 381 
Q 1141 66 1534 66 
Q 1894 66 2123 294 
Q 2353 522 2353 881 
Q 2353 1272 2120 1500 
Q 1888 1728 1359 1928 
z
" transform="scale(0.015625)"/>
       </defs>
       <use xlink:href="#Garamond-38"/>
       <use xlink:href="#Garamond-30" x="46.875"/>
      </g>
     </g>
    </g>
   </g>
   <g id="line2d_15">
    <path d="M 162.361714 189.16 
L 162.361714 38.4 
" clip-path="url(#p179036e7d9)" style="fill: none; stroke-dasharray: 5.55,2.4; stroke-dashoffset: 0; stroke: #ff0000; stroke-width: 1.5"/>
   </g>
   <g id="patch_33">
    <path d="M 23.575 189.16 
L 23.575 38.4 
" style="fill: none; stroke: #000000; stroke-width: 0.8; stroke-linejoin: miter; stroke-linecap: square"/>
   </g>
   <g id="patch_34">
    <path d="M 530.97 189.16 
L 530.97 38.4 
" style="fill: none; stroke: #000000; stroke-width: 0.8; stroke-linejoin: miter; stroke-linecap: square"/>
   </g>
   <g id="patch_35">
    <path d="M 23.575 189.16 
L 530.97 189.16 
" style="fill: none; stroke: #000000; stroke-width: 0.8; stroke-linejoin: miter; stroke-linecap: square"/>
   </g>
   <g id="patch_36">
    <path d="M 23.575 38.4 
L 530.97 38.4 
" style="fill: none; stroke: #000000; stroke-width: 0.8; stroke-linejoin: miter; stroke-linecap: square"/>
   </g>
   <g id="text_16">
    <!-- Skew distribution -->
    <g transform="translate(236.735 32.4) scale(0.12 -0.12)">
     <defs>
      <path id="Garamond-20" transform="scale(0.015625)"/>
      <path id="Garamond-64" d="M 2281 2269 
L 2284 2359 
L 2281 2725 
L 2284 3416 
Q 2284 3703 2221 3781 
Q 2159 3859 1856 3941 
Q 1834 3947 1788 3959 
L 1788 3994 
Q 1788 4025 1794 4063 
Q 2219 4106 2525 4209 
L 2684 4213 
Q 2697 4000 2697 3738 
L 2684 2534 
L 2706 1178 
L 2697 456 
Q 2697 234 2728 206 
Q 2791 144 3003 141 
Q 3047 141 3122 134 
L 3122 78 
Q 3122 56 3119 31 
Q 3022 9 2919 -9 
L 2466 -97 
Q 2366 -116 2306 -116 
L 2306 184 
Q 2253 169 2141 122 
Q 1653 -84 1244 -84 
Q 997 -84 740 77 
Q 484 238 346 525 
Q 209 813 209 1113 
Q 209 1381 300 1626 
Q 391 1872 538 2034 
Q 631 2141 803 2245 
Q 975 2350 1088 2378 
Q 1366 2450 1459 2450 
Q 1881 2450 2153 2325 
Q 2238 2284 2281 2269 
z
M 2284 338 
Q 2297 547 2297 1200 
Q 2297 1753 2245 1898 
Q 2194 2044 1987 2173 
Q 1781 2303 1525 2303 
Q 1166 2303 916 2025 
Q 666 1747 666 1203 
Q 666 725 936 440 
Q 1206 156 1609 156 
Q 1841 156 2031 218 
Q 2222 281 2284 338 
z
" transform="scale(0.015625)"/>
      <path id="Garamond-69" d="M 444 3841 
Q 444 3944 523 4019 
Q 603 4094 716 4094 
Q 831 4094 918 4009 
Q 1006 3925 1006 3828 
Q 1006 3731 918 3645 
Q 831 3559 716 3559 
Q 600 3559 522 3637 
Q 444 3716 444 3841 
z
M 181 2222 
L 184 2313 
Q 388 2372 403 2381 
Q 516 2431 639 2534 
Q 763 2638 847 2766 
Q 884 2772 906 2772 
L 944 2769 
Q 956 2619 956 2550 
Q 956 2534 950 2409 
L 950 2244 
L 953 1344 
L 944 391 
Q 941 275 981 229 
Q 1022 184 1222 128 
Q 1347 94 1409 69 
Q 1419 47 1419 31 
Q 1419 13 1403 -16 
Q 1281 -13 1091 0 
Q 831 22 747 22 
Q 706 22 247 6 
Q 153 3 66 -9 
Q 50 -9 16 0 
Q 0 22 0 38 
Q 0 81 59 106 
Q 72 113 378 178 
Q 478 197 509 241 
Q 563 306 563 450 
Q 569 691 569 1769 
Q 569 1984 550 2038 
Q 534 2075 467 2123 
Q 400 2172 181 2222 
z
" transform="scale(0.015625)"/>
      <path id="Garamond-73" d="M 453 794 
Q 569 497 628 409 
Q 747 231 912 132 
Q 1078 34 1272 34 
Q 1450 34 1625 188 
Q 1750 303 1750 456 
Q 1750 659 1603 831 
Q 1456 1000 1045 1154 
Q 634 1309 494 1484 
Q 353 1659 353 1884 
Q 353 2097 468 2259 
Q 584 2422 787 2505 
Q 991 2588 1163 2588 
Q 1384 2588 1561 2553 
Q 1738 2519 1866 2447 
Q 1891 2288 1906 1978 
L 1913 1878 
Q 1872 1875 1844 1875 
L 1800 1875 
Q 1706 2134 1514 2286 
Q 1322 2438 1134 2438 
Q 947 2438 831 2323 
Q 716 2209 716 2025 
Q 716 1884 809 1775 
Q 903 1666 1248 1525 
Q 1594 1384 1751 1264 
Q 1909 1144 1984 972 
Q 2059 800 2059 644 
Q 2059 428 1917 240 
Q 1775 53 1561 -23 
Q 1347 -100 1178 -100 
Q 781 -100 447 47 
Q 416 72 413 141 
Q 413 169 406 231 
Q 356 653 356 731 
Q 356 769 372 781 
Q 388 794 453 794 
z
" transform="scale(0.015625)"/>
      <path id="Garamond-74" d="M 894 3088 
L 991 3084 
L 1003 2788 
L 997 2403 
Q 1056 2400 1072 2400 
Q 1153 2400 1381 2413 
Q 1528 2422 1663 2422 
Q 1725 2422 1850 2419 
Q 1856 2356 1856 2319 
Q 1856 2278 1838 2191 
L 1784 2191 
L 1300 2175 
L 1059 2169 
L 1003 2163 
Q 978 2084 978 1981 
L 988 1513 
L 981 688 
Q 981 363 1066 256 
Q 1147 147 1309 147 
Q 1391 147 1616 197 
Q 1684 213 1800 300 
L 1828 300 
Q 1856 300 1873 283 
Q 1891 266 1891 238 
L 1888 216 
Q 1753 69 1579 1 
Q 1406 -66 1119 -66 
Q 916 -66 783 28 
Q 650 122 612 250 
Q 575 378 575 809 
L 588 1513 
L 584 1850 
L 584 1975 
Q 584 2063 578 2150 
L 525 2153 
L 269 2144 
L 244 2141 
Q 209 2141 192 2156 
Q 175 2172 175 2194 
Q 175 2231 198 2254 
Q 222 2278 341 2328 
Q 422 2363 530 2458 
Q 638 2553 713 2669 
Q 750 2731 819 2906 
Q 869 3034 894 3088 
z
" transform="scale(0.015625)"/>
      <path id="Garamond-72" d="M 128 -9 
L 116 31 
Q 116 53 144 97 
L 328 134 
L 588 181 
Q 619 197 631 225 
Q 650 266 650 466 
Q 650 1528 637 1692 
Q 625 1856 581 1900 
Q 538 1944 356 1969 
Q 250 1984 188 2009 
L 200 2103 
Q 528 2238 641 2334 
Q 797 2475 906 2703 
L 1013 2700 
Q 1031 2544 1031 2006 
L 1028 1953 
Q 1028 1934 1034 1894 
Q 1153 2109 1331 2291 
L 1403 2363 
Q 1447 2413 1488 2441 
Q 1706 2572 1813 2572 
Q 1950 2572 2037 2480 
Q 2125 2388 2125 2253 
Q 2125 2147 2063 2088 
Q 1978 2009 1869 2009 
Q 1819 2009 1672 2062 
Q 1525 2116 1478 2116 
Q 1391 2116 1356 2088 
Q 1269 2019 1144 1806 
Q 1047 1647 1047 1513 
L 1063 997 
L 1069 378 
Q 1078 272 1094 241 
Q 1106 219 1156 188 
Q 1494 159 1556 147 
Q 1600 144 1622 141 
Q 1756 138 1809 103 
Q 1838 88 1838 56 
Q 1838 38 1813 6 
L 1466 9 
L 1334 13 
L 1144 9 
L 825 9 
L 653 0 
L 128 -9 
z
" transform="scale(0.015625)"/>
      <path id="Garamond-62" d="M 106 3928 
L 106 3944 
Q 106 3975 131 4031 
Q 472 4091 856 4213 
Q 878 4216 925 4216 
Q 941 4166 941 4150 
L 941 3219 
L 938 2922 
L 941 2591 
L 934 2322 
Q 934 2306 941 2216 
L 1197 2313 
Q 1238 2325 1466 2394 
Q 1756 2441 1803 2441 
Q 2116 2441 2366 2341 
Q 2519 2278 2669 2133 
Q 2819 1988 2891 1825 
Q 3016 1528 3016 1313 
Q 3016 972 2972 841 
Q 2866 528 2712 347 
Q 2559 166 2284 37 
Q 2009 -91 1700 -91 
Q 1416 -91 1162 15 
Q 909 122 878 122 
Q 781 122 631 -134 
L 541 -131 
Q 528 78 528 384 
L 534 850 
L 531 1088 
L 538 1769 
L 531 1900 
L 544 2222 
L 544 2497 
L 547 2609 
Q 547 2644 544 2881 
L 544 3069 
Q 553 3613 497 3697 
Q 406 3831 106 3928 
z
M 1591 81 
Q 2066 81 2314 348 
Q 2563 616 2563 1144 
Q 2563 1628 2281 1928 
Q 2000 2228 1588 2228 
Q 1288 2228 1084 2131 
Q 963 2072 948 2022 
Q 934 1972 934 1353 
Q 934 619 966 494 
Q 1019 300 1159 216 
Q 1381 81 1591 81 
z
" transform="scale(0.015625)"/>
      <path id="Garamond-75" d="M 103 2453 
L 338 2453 
L 441 2447 
L 522 2453 
Q 844 2453 922 2447 
L 925 2388 
Q 925 1947 913 1534 
Q 903 1291 903 1256 
Q 903 706 939 568 
Q 975 431 1108 348 
Q 1241 266 1428 266 
Q 1656 266 1864 361 
Q 2072 456 2219 594 
Q 2234 713 2234 856 
Q 2234 1322 2244 1484 
Q 2247 1581 2247 1653 
Q 2247 2159 2197 2225 
Q 2147 2291 1816 2325 
Q 1706 2338 1656 2347 
Q 1631 2388 1631 2409 
L 1641 2444 
Q 1722 2453 1800 2453 
L 2297 2447 
Q 2563 2453 2578 2453 
Q 2613 2453 2644 2450 
L 2650 2222 
Q 2628 1747 2625 1047 
L 2619 794 
L 2631 369 
Q 2659 319 2681 309 
Q 2719 294 2834 294 
L 2863 294 
Q 2903 294 3094 275 
Q 3097 234 3097 216 
L 3097 181 
Q 2678 91 2419 0 
Q 2316 -34 2244 -50 
Q 2228 59 2228 84 
L 2228 338 
Q 2228 353 2225 422 
Q 2184 394 2131 353 
Q 1884 163 1609 31 
Q 1425 -59 1253 -59 
Q 925 -59 719 184 
Q 509 428 509 1016 
Q 509 1047 513 1128 
Q 525 1278 525 1338 
Q 525 1359 522 1475 
Q 519 1525 519 1563 
Q 519 1591 522 1689 
Q 525 1788 525 1828 
Q 525 1881 522 1922 
L 516 2088 
L 519 2175 
Q 519 2225 469 2266 
Q 272 2319 211 2326 
Q 150 2334 103 2353 
L 103 2453 
z
" transform="scale(0.015625)"/>
      <path id="Garamond-6f" d="M 228 1256 
Q 228 1469 317 1711 
Q 406 1953 587 2145 
Q 769 2338 972 2431 
Q 1256 2563 1666 2563 
Q 2250 2563 2642 2163 
Q 3034 1763 3034 1200 
Q 3034 700 2623 308 
Q 2213 -84 1584 -84 
Q 1197 -84 853 119 
Q 597 272 412 572 
Q 228 872 228 1256 
z
M 1609 38 
Q 1847 38 2067 166 
Q 2288 294 2419 576 
Q 2550 859 2550 1231 
Q 2550 1475 2448 1797 
Q 2347 2119 2136 2280 
Q 1925 2441 1641 2441 
Q 1434 2441 1220 2344 
Q 1006 2247 857 1972 
Q 709 1697 709 1191 
Q 709 622 967 330 
Q 1225 38 1609 38 
z
" transform="scale(0.015625)"/>
      <path id="Garamond-6e" d="M 119 100 
Q 197 122 300 138 
Q 497 166 536 203 
Q 575 241 575 375 
L 581 488 
Q 584 550 584 647 
L 578 1606 
Q 578 1800 528 1856 
Q 444 1944 216 1978 
L 216 2091 
Q 444 2153 566 2253 
Q 744 2394 866 2634 
L 972 2631 
Q 981 2484 981 2422 
L 981 2216 
L 984 2159 
Q 1022 2184 1072 2222 
Q 1259 2363 1456 2452 
Q 1653 2541 1806 2575 
Q 1903 2600 2025 2600 
Q 2281 2600 2465 2462 
Q 2650 2325 2704 2139 
Q 2759 1953 2759 1400 
L 2759 928 
Q 2759 909 2754 803 
Q 2750 697 2750 559 
Q 2750 341 2769 281 
Q 2784 241 2850 200 
Q 3150 159 3200 103 
L 3200 78 
Q 3200 47 3181 0 
L 3122 0 
L 2709 3 
L 2303 -3 
Q 2078 -9 1888 0 
L 1869 66 
Q 1869 84 1891 116 
Q 1975 153 2128 166 
Q 2219 172 2253 184 
Q 2288 197 2338 234 
Q 2375 309 2375 359 
Q 2375 381 2369 447 
Q 2359 591 2356 1163 
L 2356 1325 
L 2363 1575 
Q 2363 1978 2200 2131 
Q 2038 2284 1766 2284 
Q 1556 2284 1356 2192 
Q 1156 2100 969 1916 
Q 963 1766 963 1659 
L 972 969 
Q 972 428 988 306 
Q 994 256 1009 238 
Q 1034 213 1109 197 
Q 1184 181 1282 153 
Q 1381 125 1413 119 
Q 1475 103 1497 56 
L 1494 -6 
L 1166 -6 
L 491 3 
Q 256 -3 194 -3 
L 116 -3 
L 109 38 
Q 109 59 119 100 
z
" transform="scale(0.015625)"/>
     </defs>
     <use xlink:href="#Garamond-53"/>
     <use xlink:href="#Garamond-6b" x="47.900391"/>
     <use xlink:href="#Garamond-65" x="93.400391"/>
     <use xlink:href="#Garamond-77" x="135.050781"/>
     <use xlink:href="#Garamond-20" x="201.701172"/>
     <use xlink:href="#Garamond-64" x="226.701172"/>
     <use xlink:href="#Garamond-69" x="276.701172"/>
     <use xlink:href="#Garamond-73" x="299.601562"/>
     <use xlink:href="#Garamond-74" x="336.076172"/>
     <use xlink:href="#Garamond-72" x="365.226562"/>
     <use xlink:href="#Garamond-69" x="398.576172"/>
     <use xlink:href="#Garamond-62" x="421.476562"/>
     <use xlink:href="#Garamond-75" x="472.501953"/>
     <use xlink:href="#Garamond-74" x="521.476562"/>
     <use xlink:href="#Garamond-69" x="550.626953"/>
     <use xlink:href="#Garamond-6f" x="573.527344"/>
     <use xlink:href="#Garamond-6e" x="624.552734"/>
    </g>
   </g>
   <g id="legend_1">
    <g id="patch_37">
     <path d="M 411.673125 60.964062 
L 523.97 60.964062 
Q 525.97 60.964062 525.97 58.964062 
L 525.97 45.4 
Q 525.97 43.4 523.97 43.4 
L 411.673125 43.4 
Q 409.673125 43.4 409.673125 45.4 
L 409.673125 58.964062 
Q 409.673125 60.964062 411.673125 60.964062 
z
" style="fill: #ffffff; opacity: 0.8; stroke: #cccccc; stroke-linejoin: miter"/>
    </g>
    <g id="line2d_16">
     <path d="M 413.673125 50.9 
L 423.673125 50.9 
L 433.673125 50.9 
" style="fill: none; stroke-dasharray: 5.55,2.4; stroke-dashoffset: 0; stroke: #ff0000; stroke-width: 1.5"/>
    </g>
    <g id="text_17">
     <!-- Overall skew: 2.0798 -->
     <g transform="translate(441.673125 54.4) scale(0.1 -0.1)">
      <defs>
       <path id="Garamond-4f" d="M 294 1997 
Q 294 2316 370 2564 
Q 447 2813 628 3103 
Q 809 3394 1065 3589 
Q 1322 3784 1775 3934 
Q 2094 4038 2581 4038 
Q 2909 4038 3223 3950 
Q 3538 3863 3794 3706 
Q 4050 3550 4306 3225 
Q 4484 3000 4575 2741 
Q 4694 2400 4694 2038 
Q 4694 1625 4614 1353 
Q 4534 1081 4347 816 
Q 4200 609 3844 341 
Q 3606 159 3253 48 
Q 2900 -63 2491 -63 
Q 2075 -63 1750 34 
Q 1425 131 1208 270 
Q 991 409 761 681 
Q 531 953 412 1281 
Q 294 1609 294 1997 
z
M 2463 53 
Q 2725 53 3008 126 
Q 3291 200 3509 370 
Q 3728 541 3851 758 
Q 3975 975 4050 1315 
Q 4125 1656 4125 1997 
Q 4125 2422 4000 2838 
Q 3903 3153 3684 3401 
Q 3466 3650 3156 3786 
Q 2847 3922 2497 3922 
Q 2213 3922 1941 3828 
Q 1669 3734 1494 3589 
Q 1319 3444 1169 3176 
Q 1019 2909 941 2587 
Q 863 2266 863 2019 
Q 863 1759 941 1431 
Q 1019 1103 1155 862 
Q 1291 622 1489 436 
Q 1688 250 1934 151 
Q 2181 53 2463 53 
z
" transform="scale(0.015625)"/>
       <path id="Garamond-76" d="M -34 2481 
Q 313 2478 572 2459 
Q 756 2459 841 2466 
Q 900 2469 916 2469 
L 1266 2466 
Q 1338 2453 1381 2450 
Q 1400 2444 1416 2416 
Q 1416 2384 1397 2350 
Q 1344 2334 1288 2331 
Q 1053 2306 894 2259 
Q 872 2244 872 2228 
Q 872 2197 903 2131 
Q 909 2116 931 2056 
L 1244 1306 
Q 1453 791 1631 438 
Q 1753 669 1856 916 
Q 1959 1163 2159 1694 
Q 2216 1844 2266 2066 
Q 2275 2109 2275 2141 
Q 2275 2178 2233 2223 
Q 2191 2269 2091 2297 
Q 2069 2300 1806 2344 
Q 1784 2356 1766 2378 
L 1766 2403 
Q 1766 2419 1769 2444 
Q 1844 2453 1878 2453 
L 2247 2450 
Q 2284 2450 2425 2459 
Q 2922 2459 3022 2450 
Q 3041 2444 3056 2413 
Q 3056 2384 3038 2350 
L 2941 2325 
Q 2903 2322 2881 2319 
Q 2613 2294 2550 2244 
Q 2503 2209 2403 1922 
Q 2356 1781 2266 1566 
L 2103 1172 
Q 2069 1088 2028 988 
L 1544 -131 
L 1450 -131 
Q 1422 -56 1381 25 
L 1144 528 
L 584 1838 
Q 416 2219 381 2250 
Q 347 2281 -19 2381 
Q -38 2431 -38 2453 
L -34 2481 
z
" transform="scale(0.015625)"/>
       <path id="Garamond-61" d="M 2541 425 
Q 2559 384 2559 366 
Q 2559 319 2484 200 
Q 2388 44 2269 -28 
Q 2194 -75 2063 -75 
Q 1838 -75 1725 63 
Q 1656 144 1628 353 
L 1278 109 
Q 1094 3 997 -25 
Q 841 -66 622 -66 
Q 463 -66 370 29 
Q 278 125 278 275 
Q 278 491 542 791 
Q 806 1091 1259 1281 
Q 1578 1416 1650 1453 
Q 1656 1556 1656 1678 
Q 1656 2075 1545 2215 
Q 1434 2356 1228 2356 
Q 1013 2356 825 2188 
Q 709 2081 650 1788 
Q 631 1706 578 1613 
Q 444 1525 363 1525 
Q 294 1525 238 1566 
Q 206 1588 206 1616 
Q 206 1697 379 1983 
Q 553 2269 817 2411 
Q 1081 2553 1278 2553 
Q 1547 2553 1678 2504 
Q 1809 2456 1909 2334 
Q 2009 2213 2031 2069 
Q 2044 2000 2044 1578 
L 2034 1081 
L 2038 719 
Q 2038 647 2034 597 
Q 2031 506 2031 463 
Q 2031 359 2091 297 
Q 2150 234 2231 234 
Q 2350 234 2434 353 
L 2472 403 
Q 2488 413 2541 425 
z
M 1622 516 
Q 1644 913 1644 1075 
Q 1644 1159 1634 1303 
Q 1425 1228 1190 1075 
Q 956 922 819 722 
Q 719 578 719 450 
Q 719 328 801 247 
Q 884 166 1009 166 
Q 1106 166 1244 234 
Q 1425 325 1622 516 
z
" transform="scale(0.015625)"/>
       <path id="Garamond-6c" d="M 163 3872 
L 163 3941 
Q 250 3969 356 4000 
Q 513 4050 819 4153 
L 966 4153 
Q 969 4003 969 3981 
Q 969 1416 953 922 
Q 944 631 944 613 
Q 944 263 972 222 
Q 1009 166 1201 144 
Q 1394 122 1428 100 
Q 1453 88 1453 56 
Q 1453 22 1439 8 
Q 1425 -6 1388 -6 
Q 1366 -6 1059 3 
L 650 16 
L 125 -6 
Q 75 -9 50 13 
Q 31 28 31 56 
Q 31 88 51 102 
Q 72 116 276 150 
Q 481 184 511 207 
Q 541 231 550 313 
Q 563 425 563 947 
L 559 1666 
L 569 2409 
L 566 3153 
L 575 3519 
Q 575 3628 540 3676 
Q 506 3725 394 3772 
Q 225 3841 163 3872 
z
" transform="scale(0.015625)"/>
       <path id="Garamond-3a" d="M 366 2163 
Q 366 2281 464 2381 
Q 563 2481 691 2481 
Q 828 2481 931 2378 
Q 1034 2275 1034 2141 
Q 1034 1988 916 1863 
Q 838 1775 684 1775 
Q 547 1775 456 1875 
Q 366 1975 366 2163 
z
M 381 259 
Q 381 397 482 500 
Q 584 603 719 603 
Q 847 603 939 506 
Q 1031 409 1031 263 
Q 1031 116 936 16 
Q 841 -84 706 -84 
Q 550 -84 465 33 
Q 381 150 381 259 
z
" transform="scale(0.015625)"/>
       <path id="Garamond-37" d="M 341 3950 
Q 725 3966 1378 3966 
Q 1675 3966 2056 3956 
Q 2288 3947 2359 3947 
L 2663 3950 
L 2734 3950 
Q 2759 3925 2759 3903 
Q 2759 3866 2688 3722 
Q 2653 3659 2384 3038 
Q 2253 2731 2063 2234 
L 1669 1125 
Q 1528 744 1488 594 
L 1416 303 
Q 1372 175 1372 116 
Q 1372 69 1425 -31 
Q 1388 -81 1256 -81 
Q 1197 -81 1144 -31 
Q 1163 153 1263 456 
Q 1300 566 1390 887 
Q 1481 1209 1569 1456 
L 1925 2425 
Q 2078 2838 2222 3184 
Q 2272 3300 2297 3347 
Q 2363 3463 2363 3538 
L 2322 3534 
L 2288 3534 
L 1875 3547 
Q 1856 3547 1743 3540 
Q 1631 3534 1575 3534 
L 1091 3538 
L 944 3538 
L 738 3544 
Q 556 3547 511 3501 
Q 466 3456 459 3269 
Q 456 3222 434 3178 
Q 400 3169 384 3169 
Q 350 3169 294 3194 
Q 297 3272 297 3309 
L 303 3403 
L 294 3575 
Q 294 3800 306 3878 
Q 313 3909 341 3950 
z
" transform="scale(0.015625)"/>
       <path id="Garamond-39" d="M 2234 3784 
Q 2466 3534 2566 3291 
Q 2700 2947 2700 2494 
Q 2700 1981 2550 1581 
Q 2400 1181 2186 889 
Q 1972 597 1737 408 
Q 1503 219 1159 62 
Q 816 -94 584 -94 
L 559 -94 
Q 522 -66 522 -25 
Q 522 22 537 37 
Q 553 53 619 56 
Q 734 66 1009 200 
Q 1384 388 1581 613 
Q 1916 994 2080 1475 
Q 2244 1956 2244 2553 
Q 2244 3050 2131 3359 
Q 2019 3669 1812 3806 
Q 1606 3944 1416 3944 
Q 1166 3944 991 3706 
Q 750 3375 750 2750 
Q 750 2256 975 1972 
Q 1134 1772 1413 1772 
Q 1513 1772 1556 1791 
L 1581 1800 
Q 1613 1800 1638 1769 
Q 1675 1722 1675 1672 
L 1641 1644 
Q 1572 1613 1483 1597 
Q 1394 1581 1284 1581 
Q 900 1581 590 1931 
Q 281 2281 281 2813 
Q 281 3356 629 3720 
Q 978 4084 1463 4084 
Q 1672 4084 1831 4025 
Q 1991 3966 2234 3784 
z
" transform="scale(0.015625)"/>
      </defs>
      <use xlink:href="#Garamond-4f"/>
      <use xlink:href="#Garamond-76" x="78.125"/>
      <use xlink:href="#Garamond-65" x="123.125"/>
      <use xlink:href="#Garamond-72" x="164.775391"/>
      <use xlink:href="#Garamond-61" x="198.125"/>
      <use xlink:href="#Garamond-6c" x="238.75"/>
      <use xlink:href="#Garamond-6c" x="261.650391"/>
      <use xlink:href="#Garamond-20" x="284.550781"/>
      <use xlink:href="#Garamond-73" x="309.550781"/>
      <use xlink:href="#Garamond-6b" x="346.025391"/>
      <use xlink:href="#Garamond-65" x="391.525391"/>
      <use xlink:href="#Garamond-77" x="433.175781"/>
      <use xlink:href="#Garamond-3a" x="499.826172"/>
      <use xlink:href="#Garamond-20" x="521.701172"/>
      <use xlink:href="#Garamond-32" x="546.701172"/>
      <use xlink:href="#Garamond-2e" x="593.576172"/>
      <use xlink:href="#Garamond-30" x="615.451172"/>
      <use xlink:href="#Garamond-37" x="662.326172"/>
      <use xlink:href="#Garamond-39" x="709.201172"/>
      <use xlink:href="#Garamond-38" x="756.076172"/>
     </g>
    </g>
   </g>
  </g>
  <g id="axes_2">
   <g id="patch_38">
    <path d="M 558.22 189.16 
L 1065.615 189.16 
L 1065.615 38.4 
L 558.22 38.4 
z
" style="fill: #ffffff"/>
   </g>
   <g id="patch_39">
    <path d="M 581.283409 189.16 
L 596.659015 189.16 
L 596.659015 186.766984 
L 581.283409 186.766984 
z
" clip-path="url(#pf9800df808)" style="fill: #38329a"/>
   </g>
   <g id="patch_40">
    <path d="M 596.659015 189.16 
L 612.034621 189.16 
L 612.034621 189.16 
L 596.659015 189.16 
z
" clip-path="url(#pf9800df808)" style="fill: #38329a"/>
   </g>
   <g id="patch_41">
    <path d="M 612.034621 189.16 
L 627.410227 189.16 
L 627.410227 189.16 
L 612.034621 189.16 
z
" clip-path="url(#pf9800df808)" style="fill: #38329a"/>
   </g>
   <g id="patch_42">
    <path d="M 627.410227 189.16 
L 642.785833 189.16 
L 642.785833 189.16 
L 627.410227 189.16 
z
" clip-path="url(#pf9800df808)" style="fill: #38329a"/>
   </g>
   <g id="patch_43">
    <path d="M 642.785833 189.16 
L 658.161439 189.16 
L 658.161439 186.766984 
L 642.785833 186.766984 
z
" clip-path="url(#pf9800df808)" style="fill: #38329a"/>
   </g>
   <g id="patch_44">
    <path d="M 658.161439 189.16 
L 673.537045 189.16 
L 673.537045 181.980952 
L 658.161439 181.980952 
z
" clip-path="url(#pf9800df808)" style="fill: #38329a"/>
   </g>
   <g id="patch_45">
    <path d="M 673.537045 189.16 
L 688.912652 189.16 
L 688.912652 170.015873 
L 673.537045 170.015873 
z
" clip-path="url(#pf9800df808)" style="fill: #38329a"/>
   </g>
   <g id="patch_46">
    <path d="M 688.912652 189.16 
L 704.288258 189.16 
L 704.288258 177.194921 
L 688.912652 177.194921 
z
" clip-path="url(#pf9800df808)" style="fill: #38329a"/>
   </g>
   <g id="patch_47">
    <path d="M 704.288258 189.16 
L 719.663864 189.16 
L 719.663864 179.587937 
L 704.288258 179.587937 
z
" clip-path="url(#pf9800df808)" style="fill: #38329a"/>
   </g>
   <g id="patch_48">
    <path d="M 719.663864 189.16 
L 735.03947 189.16 
L 735.03947 153.264762 
L 719.663864 153.264762 
z
" clip-path="url(#pf9800df808)" style="fill: #38329a"/>
   </g>
   <g id="patch_49">
    <path d="M 735.03947 189.16 
L 750.415076 189.16 
L 750.415076 117.369524 
L 735.03947 117.369524 
z
" clip-path="url(#pf9800df808)" style="fill: #38329a"/>
   </g>
   <g id="patch_50">
    <path d="M 750.415076 189.16 
L 765.790682 189.16 
L 765.790682 129.334603 
L 750.415076 129.334603 
z
" clip-path="url(#pf9800df808)" style="fill: #38329a"/>
   </g>
   <g id="patch_51">
    <path d="M 765.790682 189.16 
L 781.166288 189.16 
L 781.166288 95.832381 
L 765.790682 95.832381 
z
" clip-path="url(#pf9800df808)" style="fill: #38329a"/>
   </g>
   <g id="patch_52">
    <path d="M 781.166288 189.16 
L 796.541894 189.16 
L 796.541894 76.688254 
L 781.166288 76.688254 
z
" clip-path="url(#pf9800df808)" style="fill: #38329a"/>
   </g>
   <g id="patch_53">
    <path d="M 796.541894 189.16 
L 811.9175 189.16 
L 811.9175 138.906667 
L 796.541894 138.906667 
z
" clip-path="url(#pf9800df808)" style="fill: #38329a"/>
   </g>
   <g id="patch_54">
    <path d="M 811.9175 189.16 
L 827.293106 189.16 
L 827.293106 45.579048 
L 811.9175 45.579048 
z
" clip-path="url(#pf9800df808)" style="fill: #38329a"/>
   </g>
   <g id="patch_55">
    <path d="M 827.293106 189.16 
L 842.668712 189.16 
L 842.668712 71.902222 
L 827.293106 71.902222 
z
" clip-path="url(#pf9800df808)" style="fill: #38329a"/>
   </g>
   <g id="patch_56">
    <path d="M 842.668712 189.16 
L 858.044318 189.16 
L 858.044318 124.548571 
L 842.668712 124.548571 
z
" clip-path="url(#pf9800df808)" style="fill: #38329a"/>
   </g>
   <g id="patch_57">
    <path d="M 858.044318 189.16 
L 873.419924 189.16 
L 873.419924 79.08127 
L 858.044318 79.08127 
z
" clip-path="url(#pf9800df808)" style="fill: #38329a"/>
   </g>
   <g id="patch_58">
    <path d="M 873.419924 189.16 
L 888.79553 189.16 
L 888.79553 148.47873 
L 873.419924 148.47873 
z
" clip-path="url(#pf9800df808)" style="fill: #38329a"/>
   </g>
   <g id="patch_59">
    <path d="M 888.79553 189.16 
L 904.171136 189.16 
L 904.171136 79.08127 
L 888.79553 79.08127 
z
" clip-path="url(#pf9800df808)" style="fill: #38329a"/>
   </g>
   <g id="patch_60">
    <path d="M 904.171136 189.16 
L 919.546742 189.16 
L 919.546742 141.299683 
L 904.171136 141.299683 
z
" clip-path="url(#pf9800df808)" style="fill: #38329a"/>
   </g>
   <g id="patch_61">
    <path d="M 919.546742 189.16 
L 934.922348 189.16 
L 934.922348 148.47873 
L 919.546742 148.47873 
z
" clip-path="url(#pf9800df808)" style="fill: #38329a"/>
   </g>
   <g id="patch_62">
    <path d="M 934.922348 189.16 
L 950.297955 189.16 
L 950.297955 158.050794 
L 934.922348 158.050794 
z
" clip-path="url(#pf9800df808)" style="fill: #38329a"/>
   </g>
   <g id="patch_63">
    <path d="M 950.297955 189.16 
L 965.673561 189.16 
L 965.673561 177.194921 
L 950.297955 177.194921 
z
" clip-path="url(#pf9800df808)" style="fill: #38329a"/>
   </g>
   <g id="patch_64">
    <path d="M 965.673561 189.16 
L 981.049167 189.16 
L 981.049167 174.801905 
L 965.673561 174.801905 
z
" clip-path="url(#pf9800df808)" style="fill: #38329a"/>
   </g>
   <g id="patch_65">
    <path d="M 981.049167 189.16 
L 996.424773 189.16 
L 996.424773 179.587937 
L 981.049167 179.587937 
z
" clip-path="url(#pf9800df808)" style="fill: #38329a"/>
   </g>
   <g id="patch_66">
    <path d="M 996.424773 189.16 
L 1011.800379 189.16 
L 1011.800379 186.766984 
L 996.424773 186.766984 
z
" clip-path="url(#pf9800df808)" style="fill: #38329a"/>
   </g>
   <g id="patch_67">
    <path d="M 1011.800379 189.16 
L 1027.175985 189.16 
L 1027.175985 189.16 
L 1011.800379 189.16 
z
" clip-path="url(#pf9800df808)" style="fill: #38329a"/>
   </g>
   <g id="patch_68">
    <path d="M 1027.175985 189.16 
L 1042.551591 189.16 
L 1042.551591 181.980952 
L 1027.175985 181.980952 
z
" clip-path="url(#pf9800df808)" style="fill: #38329a"/>
   </g>
   <g id="matplotlib.axis_3">
    <g id="xtick_10">
     <g id="line2d_17">
      <g>
       <use xlink:href="#m7f52f16e98" x="581.283409" y="189.16" style="stroke: #000000; stroke-width: 0.8"/>
      </g>
     </g>
     <g id="text_18">
      <!-- 0.0 -->
      <g transform="translate(575.502159 202.649063) scale(0.1 -0.1)">
       <use xlink:href="#Garamond-30"/>
       <use xlink:href="#Garamond-2e" x="46.875"/>
       <use xlink:href="#Garamond-30" x="68.75"/>
      </g>
     </g>
    </g>
    <g id="xtick_11">
     <g id="line2d_18">
      <g>
       <use xlink:href="#m7f52f16e98" x="673.537045" y="189.16" style="stroke: #000000; stroke-width: 0.8"/>
      </g>
     </g>
     <g id="text_19">
      <!-- 0.2 -->
      <g transform="translate(667.755795 202.649063) scale(0.1 -0.1)">
       <use xlink:href="#Garamond-30"/>
       <use xlink:href="#Garamond-2e" x="46.875"/>
       <use xlink:href="#Garamond-32" x="68.75"/>
      </g>
     </g>
    </g>
    <g id="xtick_12">
     <g id="line2d_19">
      <g>
       <use xlink:href="#m7f52f16e98" x="765.790682" y="189.16" style="stroke: #000000; stroke-width: 0.8"/>
      </g>
     </g>
     <g id="text_20">
      <!-- 0.4 -->
      <g transform="translate(760.009432 202.649063) scale(0.1 -0.1)">
       <use xlink:href="#Garamond-30"/>
       <use xlink:href="#Garamond-2e" x="46.875"/>
       <use xlink:href="#Garamond-34" x="68.75"/>
      </g>
     </g>
    </g>
    <g id="xtick_13">
     <g id="line2d_20">
      <g>
       <use xlink:href="#m7f52f16e98" x="858.044318" y="189.16" style="stroke: #000000; stroke-width: 0.8"/>
      </g>
     </g>
     <g id="text_21">
      <!-- 0.6 -->
      <g transform="translate(852.263068 202.649063) scale(0.1 -0.1)">
       <use xlink:href="#Garamond-30"/>
       <use xlink:href="#Garamond-2e" x="46.875"/>
       <use xlink:href="#Garamond-36" x="68.75"/>
      </g>
     </g>
    </g>
    <g id="xtick_14">
     <g id="line2d_21">
      <g>
       <use xlink:href="#m7f52f16e98" x="950.297955" y="189.16" style="stroke: #000000; stroke-width: 0.8"/>
      </g>
     </g>
     <g id="text_22">
      <!-- 0.8 -->
      <g transform="translate(944.516705 202.649063) scale(0.1 -0.1)">
       <use xlink:href="#Garamond-30"/>
       <use xlink:href="#Garamond-2e" x="46.875"/>
       <use xlink:href="#Garamond-38" x="68.75"/>
      </g>
     </g>
    </g>
    <g id="xtick_15">
     <g id="line2d_22">
      <g>
       <use xlink:href="#m7f52f16e98" x="1042.551591" y="189.16" style="stroke: #000000; stroke-width: 0.8"/>
      </g>
     </g>
     <g id="text_23">
      <!-- 1.0 -->
      <g transform="translate(1036.770341 202.649063) scale(0.1 -0.1)">
       <use xlink:href="#Garamond-31"/>
       <use xlink:href="#Garamond-2e" x="46.875"/>
       <use xlink:href="#Garamond-30" x="68.75"/>
      </g>
     </g>
    </g>
    <g id="text_24">
     <!-- Hit rate -->
     <g transform="translate(797.02375 215.702188) scale(0.1 -0.1)">
      <defs>
       <path id="Garamond-48" d="M 122 -47 
L 125 22 
Q 231 81 372 97 
Q 594 125 653 154 
Q 713 184 738 238 
Q 781 341 781 447 
L 775 684 
L 778 903 
L 772 1159 
Q 772 1319 781 1558 
Q 791 1797 791 1813 
L 791 2666 
Q 791 2869 800 3105 
Q 809 3341 809 3431 
Q 809 3700 796 3744 
Q 784 3788 750 3806 
Q 716 3825 525 3841 
Q 378 3853 322 3863 
Q 306 3897 306 3919 
Q 306 3944 309 3978 
Q 384 3984 425 3984 
L 719 3981 
Q 1031 3981 1381 4006 
Q 1553 4019 1900 4028 
Q 1906 4000 1906 3975 
Q 1906 3944 1892 3926 
Q 1878 3909 1844 3903 
Q 1434 3869 1361 3801 
Q 1288 3734 1288 3459 
Q 1288 2953 1303 2416 
L 1316 2122 
Q 1331 2109 1722 2091 
Q 1828 2084 1847 2084 
L 2306 2091 
L 2609 2081 
L 3403 2106 
Q 3550 2109 3581 2119 
Q 3600 2663 3600 3172 
Q 3600 3663 3578 3750 
Q 3566 3803 3534 3822 
Q 3516 3831 3209 3872 
Q 3156 3878 3109 3888 
Q 3094 3934 3094 3994 
Q 3200 4009 3228 4009 
L 3434 3997 
Q 3719 3981 4006 3981 
Q 4191 3981 4619 4013 
Q 4616 3950 4603 3900 
Q 4484 3853 4319 3841 
Q 4213 3834 4141 3806 
Q 4081 3763 4081 3628 
Q 4081 3597 4084 3559 
Q 4088 3447 4088 3413 
L 4088 3053 
L 4091 2828 
L 4084 2538 
L 4088 1994 
L 4081 1481 
Q 4081 1328 4091 1003 
L 4088 581 
Q 4088 369 4125 278 
Q 4144 234 4188 216 
L 4441 159 
Q 4628 113 4664 83 
Q 4700 53 4700 13 
L 4691 -25 
L 4675 -28 
Q 4659 -28 4634 -22 
Q 4294 41 3919 41 
Q 3625 41 3501 31 
Q 3378 22 2988 -38 
Q 2981 3 2981 22 
Q 2981 44 2988 81 
Q 3084 138 3294 159 
Q 3450 175 3541 259 
Q 3600 316 3600 425 
L 3597 875 
Q 3606 1078 3606 1097 
Q 3606 1363 3597 1872 
Q 3588 1916 3563 1925 
Q 3478 1953 2731 1913 
Q 2581 1903 2506 1903 
Q 2431 1903 2192 1911 
Q 1953 1919 1750 1919 
Q 1641 1919 1566 1916 
Q 1422 1913 1406 1913 
Q 1334 1913 1307 1884 
Q 1281 1856 1281 1781 
L 1284 1563 
Q 1284 1509 1269 972 
Q 1266 863 1266 791 
Q 1266 363 1297 222 
Q 1313 156 1353 131 
Q 1381 113 1597 66 
Q 1741 34 1816 6 
L 1834 -25 
Q 1834 -41 1822 -50 
Q 1803 -66 1769 -66 
Q 1744 -66 1709 -64 
Q 1675 -63 1575 -59 
Q 1416 -56 1178 -38 
Q 1025 -25 906 -25 
Q 706 -25 266 -44 
Q 181 -47 122 -47 
z
" transform="scale(0.015625)"/>
      </defs>
      <use xlink:href="#Garamond-48"/>
      <use xlink:href="#Garamond-69" x="76.025391"/>
      <use xlink:href="#Garamond-74" x="98.925781"/>
      <use xlink:href="#Garamond-20" x="128.076172"/>
      <use xlink:href="#Garamond-72" x="153.076172"/>
      <use xlink:href="#Garamond-61" x="186.425781"/>
      <use xlink:href="#Garamond-74" x="227.050781"/>
      <use xlink:href="#Garamond-65" x="256.201172"/>
     </g>
    </g>
   </g>
   <g id="matplotlib.axis_4">
    <g id="ytick_6">
     <g id="line2d_23">
      <g>
       <use xlink:href="#mc12767b042" x="558.22" y="189.16" style="stroke: #000000; stroke-width: 0.8"/>
      </g>
     </g>
     <g id="text_25">
      <!-- 0 -->
      <g transform="translate(546.5325 192.404531) scale(0.1 -0.1)">
       <use xlink:href="#Garamond-30"/>
      </g>
     </g>
    </g>
    <g id="ytick_7">
     <g id="line2d_24">
      <g>
       <use xlink:href="#mc12767b042" x="558.22" y="165.229841" style="stroke: #000000; stroke-width: 0.8"/>
      </g>
     </g>
     <g id="text_26">
      <!-- 10 -->
      <g transform="translate(541.845 168.474373) scale(0.1 -0.1)">
       <use xlink:href="#Garamond-31"/>
       <use xlink:href="#Garamond-30" x="46.875"/>
      </g>
     </g>
    </g>
    <g id="ytick_8">
     <g id="line2d_25">
      <g>
       <use xlink:href="#mc12767b042" x="558.22" y="141.299683" style="stroke: #000000; stroke-width: 0.8"/>
      </g>
     </g>
     <g id="text_27">
      <!-- 20 -->
      <g transform="translate(541.845 144.544214) scale(0.1 -0.1)">
       <use xlink:href="#Garamond-32"/>
       <use xlink:href="#Garamond-30" x="46.875"/>
      </g>
     </g>
    </g>
    <g id="ytick_9">
     <g id="line2d_26">
      <g>
       <use xlink:href="#mc12767b042" x="558.22" y="117.369524" style="stroke: #000000; stroke-width: 0.8"/>
      </g>
     </g>
     <g id="text_28">
      <!-- 30 -->
      <g transform="translate(541.845 120.614055) scale(0.1 -0.1)">
       <use xlink:href="#Garamond-33"/>
       <use xlink:href="#Garamond-30" x="46.875"/>
      </g>
     </g>
    </g>
    <g id="ytick_10">
     <g id="line2d_27">
      <g>
       <use xlink:href="#mc12767b042" x="558.22" y="93.439365" style="stroke: #000000; stroke-width: 0.8"/>
      </g>
     </g>
     <g id="text_29">
      <!-- 40 -->
      <g transform="translate(541.845 96.683896) scale(0.1 -0.1)">
       <use xlink:href="#Garamond-34"/>
       <use xlink:href="#Garamond-30" x="46.875"/>
      </g>
     </g>
    </g>
    <g id="ytick_11">
     <g id="line2d_28">
      <g>
       <use xlink:href="#mc12767b042" x="558.22" y="69.509206" style="stroke: #000000; stroke-width: 0.8"/>
      </g>
     </g>
     <g id="text_30">
      <!-- 50 -->
      <g transform="translate(541.845 72.753738) scale(0.1 -0.1)">
       <use xlink:href="#Garamond-35"/>
       <use xlink:href="#Garamond-30" x="46.875"/>
      </g>
     </g>
    </g>
    <g id="ytick_12">
     <g id="line2d_29">
      <g>
       <use xlink:href="#mc12767b042" x="558.22" y="45.579048" style="stroke: #000000; stroke-width: 0.8"/>
      </g>
     </g>
     <g id="text_31">
      <!-- 60 -->
      <g transform="translate(541.845 48.823579) scale(0.1 -0.1)">
       <use xlink:href="#Garamond-36"/>
       <use xlink:href="#Garamond-30" x="46.875"/>
      </g>
     </g>
    </g>
   </g>
   <g id="line2d_30">
    <path d="M 825.091826 189.16 
L 825.091826 38.4 
" clip-path="url(#pf9800df808)" style="fill: none; stroke-dasharray: 5.55,2.4; stroke-dashoffset: 0; stroke: #ff0000; stroke-width: 1.5"/>
   </g>
   <g id="patch_69">
    <path d="M 558.22 189.16 
L 558.22 38.4 
" style="fill: none; stroke: #000000; stroke-width: 0.8; stroke-linejoin: miter; stroke-linecap: square"/>
   </g>
   <g id="patch_70">
    <path d="M 1065.615 189.16 
L 1065.615 38.4 
" style="fill: none; stroke: #000000; stroke-width: 0.8; stroke-linejoin: miter; stroke-linecap: square"/>
   </g>
   <g id="patch_71">
    <path d="M 558.22 189.16 
L 1065.615 189.16 
" style="fill: none; stroke: #000000; stroke-width: 0.8; stroke-linejoin: miter; stroke-linecap: square"/>
   </g>
   <g id="patch_72">
    <path d="M 558.22 38.4 
L 1065.615 38.4 
" style="fill: none; stroke: #000000; stroke-width: 0.8; stroke-linejoin: miter; stroke-linecap: square"/>
   </g>
   <g id="text_32">
    <!-- Hit rate distribution -->
    <g transform="translate(765.610625 32.4) scale(0.12 -0.12)">
     <use xlink:href="#Garamond-48"/>
     <use xlink:href="#Garamond-69" x="76.025391"/>
     <use xlink:href="#Garamond-74" x="98.925781"/>
     <use xlink:href="#Garamond-20" x="128.076172"/>
     <use xlink:href="#Garamond-72" x="153.076172"/>
     <use xlink:href="#Garamond-61" x="186.425781"/>
     <use xlink:href="#Garamond-74" x="227.050781"/>
     <use xlink:href="#Garamond-65" x="256.201172"/>
     <use xlink:href="#Garamond-20" x="297.851562"/>
     <use xlink:href="#Garamond-64" x="322.851562"/>
     <use xlink:href="#Garamond-69" x="372.851562"/>
     <use xlink:href="#Garamond-73" x="395.751953"/>
     <use xlink:href="#Garamond-74" x="432.226562"/>
     <use xlink:href="#Garamond-72" x="461.376953"/>
     <use xlink:href="#Garamond-69" x="494.726562"/>
     <use xlink:href="#Garamond-62" x="517.626953"/>
     <use xlink:href="#Garamond-75" x="568.652344"/>
     <use xlink:href="#Garamond-74" x="617.626953"/>
     <use xlink:href="#Garamond-69" x="646.777344"/>
     <use xlink:href="#Garamond-6f" x="669.677734"/>
     <use xlink:href="#Garamond-6e" x="720.703125"/>
    </g>
   </g>
   <g id="legend_2">
    <g id="patch_73">
     <path d="M 938.05875 60.964062 
L 1058.615 60.964062 
Q 1060.615 60.964062 1060.615 58.964062 
L 1060.615 45.4 
Q 1060.615 43.4 1058.615 43.4 
L 938.05875 43.4 
Q 936.05875 43.4 936.05875 45.4 
L 936.05875 58.964062 
Q 936.05875 60.964062 938.05875 60.964062 
z
" style="fill: #ffffff; opacity: 0.8; stroke: #cccccc; stroke-linejoin: miter"/>
    </g>
    <g id="line2d_31">
     <path d="M 940.05875 50.9 
L 950.05875 50.9 
L 960.05875 50.9 
" style="fill: none; stroke-dasharray: 5.55,2.4; stroke-dashoffset: 0; stroke: #ff0000; stroke-width: 1.5"/>
    </g>
    <g id="text_33">
     <!-- Overall hit rate: 0.5286 -->
     <g transform="translate(968.05875 54.4) scale(0.1 -0.1)">
      <defs>
       <path id="Garamond-68" d="M 119 75 
Q 484 141 541 175 
Q 575 197 575 275 
L 572 481 
L 575 847 
L 569 1778 
L 572 2125 
L 572 2372 
L 581 2675 
Q 581 3388 567 3527 
Q 553 3666 513 3700 
Q 438 3772 100 3850 
L 100 3866 
Q 100 3888 106 3928 
Q 150 3934 190 3943 
Q 231 3953 269 3956 
Q 641 4063 809 4163 
L 963 4163 
Q 969 4075 969 3609 
L 966 3213 
L 969 2700 
L 956 2069 
Q 956 2013 963 1944 
Q 1159 2172 1250 2247 
Q 1413 2378 1597 2454 
Q 1781 2531 1984 2531 
Q 2369 2531 2613 2206 
Q 2753 2016 2753 1666 
L 2744 1347 
L 2747 1169 
L 2734 859 
Q 2722 475 2722 403 
Q 2722 322 2728 184 
L 2906 144 
Q 3084 106 3181 75 
L 3178 -22 
L 2513 -3 
Q 2456 -3 2206 -16 
Q 2053 -22 2028 -22 
L 1959 -22 
Q 1944 6 1944 25 
L 1944 53 
Q 1988 109 2106 128 
L 2294 172 
Q 2331 203 2338 238 
Q 2350 319 2366 1044 
L 2372 1275 
Q 2384 1641 2316 1881 
Q 2272 2047 2117 2145 
Q 1963 2244 1759 2244 
Q 1591 2244 1441 2172 
Q 1338 2119 1194 1987 
Q 1050 1856 994 1763 
Q 956 1700 956 1556 
L 959 1338 
L 953 1109 
Q 953 1081 963 719 
L 959 519 
L 966 300 
Q 969 253 975 231 
L 1416 125 
Q 1450 116 1519 88 
L 1528 53 
Q 1528 38 1513 3 
Q 1422 0 1375 0 
L 1131 3 
L 594 -3 
L 191 -16 
Q 159 -13 97 -9 
L 94 13 
Q 94 38 119 75 
z
" transform="scale(0.015625)"/>
      </defs>
      <use xlink:href="#Garamond-4f"/>
      <use xlink:href="#Garamond-76" x="78.125"/>
      <use xlink:href="#Garamond-65" x="123.125"/>
      <use xlink:href="#Garamond-72" x="164.775391"/>
      <use xlink:href="#Garamond-61" x="198.125"/>
      <use xlink:href="#Garamond-6c" x="238.75"/>
      <use xlink:href="#Garamond-6c" x="261.650391"/>
      <use xlink:href="#Garamond-20" x="284.550781"/>
      <use xlink:href="#Garamond-68" x="309.550781"/>
      <use xlink:href="#Garamond-69" x="360.576172"/>
      <use xlink:href="#Garamond-74" x="383.476562"/>
      <use xlink:href="#Garamond-20" x="412.626953"/>
      <use xlink:href="#Garamond-72" x="437.626953"/>
      <use xlink:href="#Garamond-61" x="470.976562"/>
      <use xlink:href="#Garamond-74" x="511.601562"/>
      <use xlink:href="#Garamond-65" x="540.751953"/>
      <use xlink:href="#Garamond-3a" x="582.402344"/>
      <use xlink:href="#Garamond-20" x="604.277344"/>
      <use xlink:href="#Garamond-30" x="629.277344"/>
      <use xlink:href="#Garamond-2e" x="676.152344"/>
      <use xlink:href="#Garamond-35" x="698.027344"/>
      <use xlink:href="#Garamond-32" x="744.902344"/>
      <use xlink:href="#Garamond-38" x="791.777344"/>
      <use xlink:href="#Garamond-36" x="838.652344"/>
     </g>
    </g>
   </g>
  </g>
  <g id="text_34">
   <!-- German Bunds -->
   <g transform="translate(500.563125 14.986875) scale(0.12 -0.12)">
    <defs>
     <path id="Garamond-47" d="M 4172 3794 
L 4206 3319 
Q 4225 3103 4225 3025 
L 4138 3009 
Q 3928 3484 3617 3721 
Q 3306 3959 2856 3959 
Q 2306 3959 2000 3825 
Q 1556 3634 1240 3162 
Q 925 2691 925 2025 
Q 925 1641 1040 1334 
Q 1156 1028 1367 764 
Q 1578 500 1866 306 
Q 2053 178 2313 113 
Q 2459 78 2750 78 
Q 2938 78 3166 131 
Q 3394 184 3509 273 
Q 3625 363 3667 475 
Q 3709 588 3709 913 
Q 3709 1453 3637 1542 
Q 3566 1631 3184 1659 
L 3059 1669 
L 2975 1666 
Q 2956 1669 2925 1675 
L 2878 1753 
Q 2878 1769 2900 1794 
Q 3063 1819 3606 1819 
Q 3728 1819 4003 1813 
L 4325 1800 
L 4616 1803 
Q 4700 1803 4819 1797 
Q 4841 1794 4847 1786 
Q 4853 1778 4853 1759 
Q 4853 1725 4838 1672 
Q 4706 1644 4634 1644 
L 4431 1647 
Q 4328 1647 4266 1575 
Q 4234 1541 4234 1341 
L 4238 931 
Q 4238 509 4203 394 
Q 4184 325 4125 270 
Q 4066 216 3875 141 
Q 3603 31 3381 -6 
Q 2969 -78 2584 -78 
Q 1966 -78 1570 80 
Q 1175 238 889 519 
Q 603 800 481 1088 
Q 297 1509 297 1947 
Q 297 2494 586 3017 
Q 875 3541 1519 3869 
Q 1972 4100 2750 4100 
Q 3288 4100 3630 4006 
Q 3972 3913 4172 3794 
z
" transform="scale(0.015625)"/>
     <path id="Garamond-6d" d="M 125 109 
Q 175 144 263 156 
Q 388 172 456 206 
Q 513 253 531 341 
Q 553 453 553 1131 
Q 553 1797 513 1991 
Q 444 2034 334 2059 
Q 300 2066 191 2094 
L 191 2197 
Q 375 2250 489 2334 
Q 603 2419 806 2672 
L 825 2672 
Q 844 2672 884 2675 
Q 909 2672 925 2659 
L 922 2303 
Q 922 2194 928 2069 
Q 1263 2372 1528 2494 
Q 1709 2575 1938 2575 
Q 2209 2575 2368 2472 
Q 2528 2369 2672 2100 
Q 2950 2375 3176 2484 
Q 3403 2594 3634 2594 
Q 3984 2594 4209 2366 
Q 4431 2134 4438 1688 
L 4438 1428 
L 4441 1144 
L 4438 413 
Q 4434 284 4494 219 
Q 4519 209 4684 163 
Q 4788 134 4806 118 
Q 4825 103 4825 75 
Q 4825 41 4806 -6 
L 4784 -6 
L 4469 13 
Q 4413 16 4291 16 
Q 4141 16 3872 3 
L 3713 3 
Q 3678 3 3578 0 
Q 3575 28 3575 50 
Q 3575 75 3597 113 
Q 3681 150 3828 173 
Q 3975 197 4011 258 
Q 4047 319 4047 744 
Q 4047 1666 4025 1813 
Q 3988 2047 3827 2180 
Q 3666 2313 3422 2313 
Q 3234 2313 3056 2214 
Q 2878 2116 2706 1919 
L 2703 1844 
L 2703 1366 
L 2691 994 
Q 2691 425 2702 347 
Q 2713 269 2755 233 
Q 2797 197 3000 169 
Q 3091 156 3141 144 
Q 3178 113 3178 63 
Q 3178 22 3150 6 
L 3097 6 
L 2941 9 
L 2031 9 
L 1781 6 
Q 1775 53 1775 75 
L 1778 113 
Q 1847 150 2034 184 
Q 2131 200 2234 238 
Q 2253 253 2263 278 
Q 2278 322 2284 528 
L 2300 891 
L 2294 1300 
L 2297 1528 
Q 2297 1913 2140 2089 
Q 1984 2266 1747 2266 
Q 1525 2266 1301 2156 
Q 1078 2047 931 1863 
Q 928 1775 928 1703 
L 941 653 
Q 944 309 980 261 
Q 1016 213 1141 194 
Q 1341 166 1400 125 
Q 1428 106 1428 69 
Q 1428 44 1425 9 
Q 1069 34 947 34 
Q 822 34 722 31 
L 566 22 
L 469 22 
L 119 9 
Q 113 31 113 47 
Q 113 63 125 109 
z
" transform="scale(0.015625)"/>
     <path id="Garamond-42" d="M 84 3872 
L 84 3969 
Q 138 3981 169 3984 
L 463 4000 
Q 828 4031 1281 4050 
Q 1463 4056 1853 4056 
Q 2384 4056 2631 3978 
Q 2991 3863 3167 3630 
Q 3344 3397 3344 3113 
Q 3344 2650 2684 2334 
L 2669 2309 
Q 3006 2219 3222 2056 
Q 3438 1894 3553 1659 
Q 3638 1488 3638 1209 
Q 3638 744 3214 380 
Q 2791 16 2047 16 
L 1581 16 
L 1109 0 
Q 484 -6 378 -6 
Q 269 -6 163 3 
L 163 38 
Q 163 75 178 91 
Q 197 109 250 122 
Q 641 203 692 233 
Q 744 263 763 328 
Q 800 453 800 972 
Q 800 1019 797 1091 
Q 791 1300 791 1331 
L 791 1656 
Q 791 2481 772 3097 
L 769 3725 
L 766 3803 
Q 500 3841 297 3850 
Q 166 3853 84 3872 
z
M 1325 2291 
Q 1481 2259 1653 2259 
Q 2328 2259 2568 2556 
Q 2809 2853 2809 3147 
Q 2809 3278 2767 3414 
Q 2725 3550 2617 3659 
Q 2509 3769 2350 3822 
Q 2078 3913 1794 3913 
Q 1528 3913 1300 3853 
Q 1297 3788 1297 3756 
Q 1297 3725 1303 3578 
Q 1306 3484 1306 3391 
L 1297 3013 
L 1300 2788 
L 1322 2347 
L 1325 2291 
z
M 2059 166 
Q 2369 188 2578 297 
Q 2675 347 2808 476 
Q 2941 606 3014 787 
Q 3088 969 3088 1138 
Q 3088 1266 3036 1453 
Q 2984 1641 2861 1783 
Q 2738 1925 2494 2017 
Q 2250 2109 1956 2109 
Q 1388 2109 1319 2088 
Q 1316 2016 1316 1981 
L 1319 1866 
L 1316 1631 
L 1316 1366 
Q 1325 631 1350 497 
Q 1375 363 1520 266 
Q 1666 169 2059 166 
z
" transform="scale(0.015625)"/>
    </defs>
    <use xlink:href="#Garamond-47"/>
    <use xlink:href="#Garamond-65" x="77.099609"/>
    <use xlink:href="#Garamond-72" x="118.75"/>
    <use xlink:href="#Garamond-6d" x="155.849609"/>
    <use xlink:href="#Garamond-61" x="232.949219"/>
    <use xlink:href="#Garamond-6e" x="273.574219"/>
    <use xlink:href="#Garamond-20" x="324.599609"/>
    <use xlink:href="#Garamond-42" x="349.599609"/>
    <use xlink:href="#Garamond-75" x="411.074219"/>
    <use xlink:href="#Garamond-6e" x="460.048828"/>
    <use xlink:href="#Garamond-64" x="511.074219"/>
    <use xlink:href="#Garamond-73" x="561.074219"/>
   </g>
  </g>
 </g>
 <defs>
  <clipPath id="p179036e7d9">
   <rect x="23.575" y="38.4" width="507.395" height="150.76"/>
  </clipPath>
  <clipPath id="pf9800df808">
   <rect x="558.22" y="38.4" width="507.395" height="150.76"/>
  </clipPath>
 </defs>
</svg>
