<?xml version="1.0" encoding="utf-8" standalone="no"?>
<!DOCTYPE svg PUBLIC "-//W3C//DTD SVG 1.1//EN"
  "http://www.w3.org/Graphics/SVG/1.1/DTD/svg11.dtd">
<svg xmlns:xlink="http://www.w3.org/1999/xlink" width="1072.8225pt" height="228.644063pt" viewBox="0 0 1072.8225 228.644063" xmlns="http://www.w3.org/2000/svg" version="1.1">
 <metadata>
  <rdf:RDF xmlns:dc="http://purl.org/dc/elements/1.1/" xmlns:cc="http://creativecommons.org/ns#" xmlns:rdf="http://www.w3.org/1999/02/22-rdf-syntax-ns#">
   <cc:Work>
    <dc:type rdf:resource="http://purl.org/dc/dcmitype/StillImage"/>
    <dc:date>2026-04-28T15:22:54.110591</dc:date>
    <dc:format>image/svg+xml</dc:format>
    <dc:creator>
     <cc:Agent>
      <dc:title>Matplotlib v3.9.2, https://matplotlib.org/</dc:title>
     </cc:Agent>
    </dc:creator>
   </cc:Work>
  </rdf:RDF>
 </metadata>
 <defs>
  <style type="text/css">*{stroke-linejoin: round; stroke-linecap: butt}</style>
 </defs>
 <g id="figure_1">
  <g id="patch_1">
   <path d="M 0 228.644063 
L 1072.8225 228.644063 
L 1072.8225 0 
L 0 0 
z
" style="fill: #ffffff"/>
  </g>
  <g id="axes_1">
   <g id="patch_2">
    <path d="M 28.2625 189.16 
L 533.3625 189.16 
L 533.3625 38.4 
L 28.2625 38.4 
z
" style="fill: #ffffff"/>
   </g>
   <g id="patch_3">
    <path d="M 51.221591 189.16 
L 66.527652 189.16 
L 66.527652 146.208433 
L 51.221591 146.208433 
z
" clip-path="url(#pbfe4fb0dab)" style="fill: #38329a"/>
   </g>
   <g id="patch_4">
    <path d="M 66.527652 189.16 
L 81.833712 189.16 
L 81.833712 111.847179 
L 66.527652 111.847179 
z
" clip-path="url(#pbfe4fb0dab)" style="fill: #38329a"/>
   </g>
   <g id="patch_5">
    <path d="M 81.833712 189.16 
L 97.139773 189.16 
L 97.139773 76.258738 
L 81.833712 76.258738 
z
" clip-path="url(#pbfe4fb0dab)" style="fill: #38329a"/>
   </g>
   <g id="patch_6">
    <path d="M 97.139773 189.16 
L 112.445833 189.16 
L 112.445833 45.579048 
L 97.139773 45.579048 
z
" clip-path="url(#pbfe4fb0dab)" style="fill: #38329a"/>
   </g>
   <g id="patch_7">
    <path d="M 112.445833 189.16 
L 127.751894 189.16 
L 127.751894 57.850924 
L 112.445833 57.850924 
z
" clip-path="url(#pbfe4fb0dab)" style="fill: #38329a"/>
   </g>
   <g id="patch_8">
    <path d="M 127.751894 189.16 
L 143.057955 189.16 
L 143.057955 92.212177 
L 127.751894 92.212177 
z
" clip-path="url(#pbfe4fb0dab)" style="fill: #38329a"/>
   </g>
   <g id="patch_9">
    <path d="M 143.057955 189.16 
L 158.364015 189.16 
L 158.364015 126.573431 
L 143.057955 126.573431 
z
" clip-path="url(#pbfe4fb0dab)" style="fill: #38329a"/>
   </g>
   <g id="patch_10">
    <path d="M 158.364015 189.16 
L 173.670076 189.16 
L 173.670076 153.571559 
L 158.364015 153.571559 
z
" clip-path="url(#pbfe4fb0dab)" style="fill: #38329a"/>
   </g>
   <g id="patch_11">
    <path d="M 173.670076 189.16 
L 188.976136 189.16 
L 188.976136 178.115311 
L 173.670076 178.115311 
z
" clip-path="url(#pbfe4fb0dab)" style="fill: #38329a"/>
   </g>
   <g id="patch_12">
    <path d="M 188.976136 189.16 
L 204.282197 189.16 
L 204.282197 176.888124 
L 188.976136 176.888124 
z
" clip-path="url(#pbfe4fb0dab)" style="fill: #38329a"/>
   </g>
   <g id="patch_13">
    <path d="M 204.282197 189.16 
L 219.588258 189.16 
L 219.588258 185.478437 
L 204.282197 185.478437 
z
" clip-path="url(#pbfe4fb0dab)" style="fill: #38329a"/>
   </g>
   <g id="patch_14">
    <path d="M 219.588258 189.16 
L 234.894318 189.16 
L 234.894318 187.932812 
L 219.588258 187.932812 
z
" clip-path="url(#pbfe4fb0dab)" style="fill: #38329a"/>
   </g>
   <g id="patch_15">
    <path d="M 234.894318 189.16 
L 250.200379 189.16 
L 250.200379 186.705625 
L 234.894318 186.705625 
z
" clip-path="url(#pbfe4fb0dab)" style="fill: #38329a"/>
   </g>
   <g id="patch_16">
    <path d="M 250.200379 189.16 
L 265.506439 189.16 
L 265.506439 186.705625 
L 250.200379 186.705625 
z
" clip-path="url(#pbfe4fb0dab)" style="fill: #38329a"/>
   </g>
   <g id="patch_17">
    <path d="M 265.506439 189.16 
L 280.8125 189.16 
L 280.8125 187.932812 
L 265.506439 187.932812 
z
" clip-path="url(#pbfe4fb0dab)" style="fill: #38329a"/>
   </g>
   <g id="patch_18">
    <path d="M 280.8125 189.16 
L 296.118561 189.16 
L 296.118561 189.16 
L 280.8125 189.16 
z
" clip-path="url(#pbfe4fb0dab)" style="fill: #38329a"/>
   </g>
   <g id="patch_19">
    <path d="M 296.118561 189.16 
L 311.424621 189.16 
L 311.424621 189.16 
L 296.118561 189.16 
z
" clip-path="url(#pbfe4fb0dab)" style="fill: #38329a"/>
   </g>
   <g id="patch_20">
    <path d="M 311.424621 189.16 
L 326.730682 189.16 
L 326.730682 189.16 
L 311.424621 189.16 
z
" clip-path="url(#pbfe4fb0dab)" style="fill: #38329a"/>
   </g>
   <g id="patch_21">
    <path d="M 326.730682 189.16 
L 342.036742 189.16 
L 342.036742 189.16 
L 326.730682 189.16 
z
" clip-path="url(#pbfe4fb0dab)" style="fill: #38329a"/>
   </g>
   <g id="patch_22">
    <path d="M 342.036742 189.16 
L 357.342803 189.16 
L 357.342803 189.16 
L 342.036742 189.16 
z
" clip-path="url(#pbfe4fb0dab)" style="fill: #38329a"/>
   </g>
   <g id="patch_23">
    <path d="M 357.342803 189.16 
L 372.648864 189.16 
L 372.648864 189.16 
L 357.342803 189.16 
z
" clip-path="url(#pbfe4fb0dab)" style="fill: #38329a"/>
   </g>
   <g id="patch_24">
    <path d="M 372.648864 189.16 
L 387.954924 189.16 
L 387.954924 189.16 
L 372.648864 189.16 
z
" clip-path="url(#pbfe4fb0dab)" style="fill: #38329a"/>
   </g>
   <g id="patch_25">
    <path d="M 387.954924 189.16 
L 403.260985 189.16 
L 403.260985 189.16 
L 387.954924 189.16 
z
" clip-path="url(#pbfe4fb0dab)" style="fill: #38329a"/>
   </g>
   <g id="patch_26">
    <path d="M 403.260985 189.16 
L 418.567045 189.16 
L 418.567045 189.16 
L 403.260985 189.16 
z
" clip-path="url(#pbfe4fb0dab)" style="fill: #38329a"/>
   </g>
   <g id="patch_27">
    <path d="M 418.567045 189.16 
L 433.873106 189.16 
L 433.873106 189.16 
L 418.567045 189.16 
z
" clip-path="url(#pbfe4fb0dab)" style="fill: #38329a"/>
   </g>
   <g id="patch_28">
    <path d="M 433.873106 189.16 
L 449.179167 189.16 
L 449.179167 189.16 
L 433.873106 189.16 
z
" clip-path="url(#pbfe4fb0dab)" style="fill: #38329a"/>
   </g>
   <g id="patch_29">
    <path d="M 449.179167 189.16 
L 464.485227 189.16 
L 464.485227 189.16 
L 449.179167 189.16 
z
" clip-path="url(#pbfe4fb0dab)" style="fill: #38329a"/>
   </g>
   <g id="patch_30">
    <path d="M 464.485227 189.16 
L 479.791288 189.16 
L 479.791288 189.16 
L 464.485227 189.16 
z
" clip-path="url(#pbfe4fb0dab)" style="fill: #38329a"/>
   </g>
   <g id="patch_31">
    <path d="M 479.791288 189.16 
L 495.097348 189.16 
L 495.097348 189.16 
L 479.791288 189.16 
z
" clip-path="url(#pbfe4fb0dab)" style="fill: #38329a"/>
   </g>
   <g id="patch_32">
    <path d="M 495.097348 189.16 
L 510.403409 189.16 
L 510.403409 187.932812 
L 495.097348 187.932812 
z
" clip-path="url(#pbfe4fb0dab)" style="fill: #38329a"/>
   </g>
   <g id="matplotlib.axis_1">
    <g id="xtick_1">
     <g id="line2d_1">
      <defs>
       <path id="m0834c5082f" d="M 0 0 
L 0 3.5 
" style="stroke: #000000; stroke-width: 0.8"/>
      </defs>
      <g>
       <use xlink:href="#m0834c5082f" x="127.935047" y="189.16" style="stroke: #000000; stroke-width: 0.8"/>
      </g>
     </g>
     <g id="text_1">
      <!-- 2 -->
      <g transform="translate(125.591297 202.649063) scale(0.1 -0.1)">
       <defs>
        <path id="Garamond-32" d="M 2728 6 
Q 2259 25 1472 25 
L 794 6 
L 491 16 
L 250 6 
Q 213 9 141 22 
Q 197 153 284 263 
Q 544 581 1044 1084 
Q 1744 1788 1966 2189 
Q 2188 2591 2188 2944 
Q 2188 3275 1963 3500 
Q 1738 3725 1409 3725 
Q 1213 3725 1028 3633 
Q 844 3541 731 3400 
Q 659 3309 541 3038 
Q 475 2888 463 2875 
Q 444 2853 419 2853 
Q 394 2853 370 2879 
Q 347 2906 347 2947 
Q 347 3088 489 3397 
Q 631 3706 907 3881 
Q 1184 4056 1550 4056 
Q 2028 4056 2348 3745 
Q 2669 3434 2669 3003 
Q 2669 2663 2450 2311 
Q 2231 1959 1444 1234 
Q 1184 997 1075 884 
Q 966 772 634 397 
Q 1113 378 1503 378 
Q 1588 378 1688 384 
Q 1872 391 1903 391 
L 2338 381 
Q 2409 381 2484 450 
Q 2559 519 2688 838 
L 2763 841 
Q 2778 841 2809 838 
Q 2825 806 2825 791 
L 2819 766 
Q 2794 675 2775 434 
Q 2763 294 2728 6 
z
" transform="scale(0.015625)"/>
       </defs>
       <use xlink:href="#Garamond-32"/>
      </g>
     </g>
    </g>
    <g id="xtick_2">
     <g id="line2d_2">
      <g>
       <use xlink:href="#m0834c5082f" x="230.939087" y="189.16" style="stroke: #000000; stroke-width: 0.8"/>
      </g>
     </g>
     <g id="text_2">
      <!-- 4 -->
      <g transform="translate(228.595337 202.649063) scale(0.1 -0.1)">
       <defs>
        <path id="Garamond-34" d="M 2097 4075 
L 2241 4075 
Q 2238 3978 2238 3959 
L 2247 3500 
L 2228 3088 
L 2241 2628 
L 2241 2266 
L 2247 1772 
Q 2247 1656 2241 1422 
L 2306 1419 
L 2528 1419 
L 2741 1416 
L 2916 1422 
Q 2922 1325 2922 1278 
Q 2922 1231 2916 1134 
Q 2722 1125 2706 1125 
L 2550 1128 
L 2425 1128 
Q 2375 1128 2241 1134 
Q 2234 691 2241 -44 
Q 2222 -63 2200 -69 
L 2006 -75 
Q 1944 -75 1816 -69 
Q 1825 300 1825 459 
Q 1825 600 1819 716 
Q 1809 928 1809 959 
Q 1809 1016 1816 1134 
Q 1684 1119 1613 1119 
Q 1575 1119 1528 1122 
Q 1213 1138 1172 1138 
Q 1131 1138 972 1116 
L 650 1134 
L 475 1125 
L 356 1144 
L 206 1113 
L 178 1134 
Q 172 1203 172 1238 
Q 172 1272 178 1341 
Q 266 1456 500 1809 
L 1109 2694 
Q 1334 3028 1487 3225 
Q 1641 3422 1791 3648 
Q 1941 3875 2097 4075 
z
M 1816 1422 
L 1819 1934 
L 1816 2341 
L 1816 3388 
Q 1559 3050 1103 2366 
Q 581 1584 484 1422 
Q 622 1428 691 1428 
L 1547 1416 
Q 1641 1416 1816 1422 
z
" transform="scale(0.015625)"/>
       </defs>
       <use xlink:href="#Garamond-34"/>
      </g>
     </g>
    </g>
    <g id="xtick_3">
     <g id="line2d_3">
      <g>
       <use xlink:href="#m0834c5082f" x="333.943126" y="189.16" style="stroke: #000000; stroke-width: 0.8"/>
      </g>
     </g>
     <g id="text_3">
      <!-- 6 -->
      <g transform="translate(331.599376 202.649063) scale(0.1 -0.1)">
       <defs>
        <path id="Garamond-36" d="M 2459 4094 
Q 2488 4047 2500 3991 
Q 2481 3956 2441 3944 
Q 2309 3909 2053 3763 
Q 1994 3731 1691 3472 
Q 1556 3378 1366 3122 
Q 1106 2778 993 2508 
Q 881 2238 794 1800 
Q 769 1675 759 1359 
L 750 1244 
Q 750 844 986 445 
Q 1222 47 1575 47 
Q 1759 47 1920 159 
Q 2081 272 2175 540 
Q 2269 809 2269 1191 
Q 2269 1709 2070 1957 
Q 1872 2206 1594 2206 
Q 1509 2206 1444 2181 
L 1419 2175 
Q 1378 2175 1334 2266 
Q 1416 2319 1531 2353 
Q 1647 2388 1681 2388 
Q 1703 2388 1966 2341 
L 2056 2297 
Q 2206 2250 2284 2188 
Q 2428 2072 2541 1897 
Q 2597 1806 2691 1528 
Q 2697 1509 2734 1253 
L 2719 941 
Q 2653 659 2594 547 
Q 2506 375 2300 172 
Q 2194 69 2025 3 
Q 1788 -88 1522 -88 
Q 1016 -88 664 317 
Q 313 722 313 1491 
Q 313 1919 444 2301 
Q 575 2684 816 3003 
Q 978 3219 1258 3466 
Q 1538 3713 1788 3850 
Q 2128 4031 2459 4094 
z
" transform="scale(0.015625)"/>
       </defs>
       <use xlink:href="#Garamond-36"/>
      </g>
     </g>
    </g>
    <g id="xtick_4">
     <g id="line2d_4">
      <g>
       <use xlink:href="#m0834c5082f" x="436.947166" y="189.16" style="stroke: #000000; stroke-width: 0.8"/>
      </g>
     </g>
     <g id="text_4">
      <!-- 8 -->
      <g transform="translate(434.603416 202.649063) scale(0.1 -0.1)">
       <defs>
        <path id="Garamond-38" d="M 1206 1997 
Q 903 2159 794 2256 
Q 638 2391 533 2603 
Q 428 2816 428 3038 
Q 428 3425 736 3739 
Q 1044 4053 1491 4053 
Q 1994 4053 2287 3787 
Q 2581 3522 2581 3141 
Q 2581 2928 2493 2753 
Q 2406 2578 2234 2438 
Q 2119 2341 1838 2197 
Q 2266 1969 2347 1903 
Q 2516 1772 2631 1556 
Q 2747 1341 2747 1078 
Q 2747 588 2408 250 
Q 2069 -88 1544 -88 
Q 1003 -88 683 207 
Q 363 503 363 938 
Q 363 1184 447 1386 
Q 531 1588 709 1731 
Q 847 1841 1206 1997 
z
M 1697 2269 
Q 1959 2413 2063 2566 
Q 2231 2819 2231 3141 
Q 2231 3391 2131 3570 
Q 2031 3750 1864 3828 
Q 1697 3906 1503 3906 
Q 1194 3906 994 3693 
Q 794 3481 794 3172 
Q 794 2991 847 2870 
Q 900 2750 1016 2647 
Q 1091 2578 1366 2400 
Q 1406 2375 1563 2322 
Q 1609 2306 1697 2269 
z
M 1359 1928 
Q 1134 1809 1044 1719 
Q 906 1588 828 1406 
Q 750 1225 750 906 
Q 750 572 897 381 
Q 1141 66 1534 66 
Q 1894 66 2123 294 
Q 2353 522 2353 881 
Q 2353 1272 2120 1500 
Q 1888 1728 1359 1928 
z
" transform="scale(0.015625)"/>
       </defs>
       <use xlink:href="#Garamond-38"/>
      </g>
     </g>
    </g>
    <g id="text_5">
     <!-- Skew -->
     <g transform="translate(270.726562 215.702188) scale(0.1 -0.1)">
      <defs>
       <path id="Garamond-53" d="M 2484 3856 
Q 2509 3650 2509 3619 
L 2497 3341 
Q 2491 3163 2481 3113 
Q 2453 3100 2434 3100 
L 2406 3106 
Q 2306 3544 2067 3744 
Q 1828 3944 1484 3944 
Q 1128 3944 900 3744 
Q 672 3544 672 3278 
Q 672 3075 831 2906 
Q 991 2738 1647 2400 
Q 2147 2141 2362 1977 
Q 2578 1813 2687 1597 
Q 2797 1381 2797 1116 
Q 2797 781 2623 487 
Q 2450 194 2156 45 
Q 1863 -103 1378 -103 
Q 956 -103 569 31 
Q 341 113 291 163 
Q 241 213 241 269 
Q 241 303 247 356 
Q 291 725 294 963 
Q 300 1109 316 1134 
Q 328 1156 363 1156 
Q 391 1156 408 1136 
Q 425 1116 431 1059 
Q 466 675 788 372 
Q 1106 69 1509 69 
Q 1756 69 1964 172 
Q 2172 275 2289 470 
Q 2406 666 2406 850 
Q 2406 1103 2228 1313 
Q 2050 1522 1512 1801 
Q 975 2081 813 2209 
Q 550 2419 419 2653 
Q 322 2834 322 3075 
Q 322 3509 665 3811 
Q 1009 4113 1588 4113 
Q 1906 4113 2138 4041 
Q 2306 3984 2484 3856 
z
" transform="scale(0.015625)"/>
       <path id="Garamond-6b" d="M 169 0 
L 163 91 
Q 188 109 209 114 
Q 231 119 367 128 
Q 503 138 537 189 
Q 572 241 572 616 
L 578 1850 
L 572 2069 
Q 572 2097 578 2278 
Q 584 2363 584 2481 
L 572 3025 
L 575 3500 
Q 575 3672 526 3720 
Q 478 3769 184 3809 
L 184 3847 
Q 184 3866 188 3900 
Q 366 3938 503 3994 
Q 575 4025 869 4188 
L 966 4188 
Q 963 4116 963 4100 
L 963 3828 
L 959 3694 
L 969 3447 
L 966 3075 
L 969 2456 
L 959 1688 
L 959 1450 
Q 959 1406 963 1328 
L 997 1325 
Q 1103 1325 1213 1403 
Q 1703 1753 1828 1879 
Q 1953 2006 1953 2063 
Q 1953 2097 1913 2150 
Q 1819 2200 1703 2219 
Q 1669 2225 1628 2234 
Q 1572 2250 1534 2256 
L 1528 2288 
Q 1528 2309 1544 2350 
Q 2038 2369 2403 2369 
Q 2609 2369 2844 2359 
L 2844 2319 
Q 2844 2297 2828 2263 
Q 2781 2253 2681 2234 
Q 2488 2203 2388 2147 
Q 2147 2019 1891 1788 
Q 1738 1650 1625 1556 
L 1513 1459 
Q 1525 1438 1553 1406 
Q 1566 1394 1603 1350 
Q 1641 1306 1738 1203 
Q 2075 847 2238 653 
Q 2291 591 2356 516 
Q 2600 244 2641 213 
Q 2728 156 2900 125 
Q 2981 109 3041 97 
Q 3053 59 3053 38 
L 3050 6 
Q 2828 25 2731 25 
L 2675 25 
L 1806 0 
Q 1756 -6 1738 -6 
Q 1706 -6 1672 6 
Q 1663 31 1663 50 
L 1663 72 
Q 1681 100 1697 106 
Q 2006 131 2056 147 
Q 2084 153 2109 181 
Q 2109 234 2018 353 
Q 1928 472 1566 875 
Q 1334 1131 1267 1173 
Q 1200 1216 1081 1216 
L 963 1216 
Q 950 1103 950 700 
Q 950 325 1013 219 
Q 1047 159 1175 143 
Q 1303 128 1341 97 
Q 1366 78 1372 9 
Q 1184 13 1056 13 
Q 850 13 606 3 
Q 459 -3 375 -3 
Q 313 -3 169 0 
z
" transform="scale(0.015625)"/>
       <path id="Garamond-65" d="M 2475 1650 
L 1222 1641 
L 984 1641 
Q 841 1641 691 1628 
Q 663 1534 663 1500 
L 666 1469 
L 666 1438 
L 663 1284 
Q 663 1094 783 817 
Q 903 541 1126 395 
Q 1350 250 1684 241 
Q 1863 250 1969 284 
Q 2075 319 2269 444 
L 2494 628 
L 2513 503 
Q 2513 481 2509 456 
Q 2369 278 2153 143 
Q 1938 9 1716 -53 
Q 1609 -81 1366 -81 
Q 1144 -81 928 9 
Q 609 147 426 451 
Q 244 756 244 1191 
Q 244 1328 295 1543 
Q 347 1759 481 2003 
Q 572 2169 703 2275 
Q 891 2425 1031 2484 
Q 1234 2569 1503 2569 
Q 1794 2569 1978 2463 
Q 2228 2322 2351 2100 
Q 2475 1878 2475 1694 
L 2475 1650 
z
M 731 1763 
L 878 1763 
Q 1038 1763 1828 1813 
Q 1953 1819 1981 1838 
Q 2038 1897 2038 1944 
Q 2038 2041 1975 2164 
Q 1913 2288 1783 2355 
Q 1653 2422 1481 2422 
Q 1119 2422 900 2150 
Q 731 1944 731 1763 
z
" transform="scale(0.015625)"/>
       <path id="Garamond-77" d="M -66 2463 
L 1134 2459 
Q 1169 2459 1181 2446 
Q 1194 2434 1194 2409 
Q 1194 2350 1147 2322 
Q 928 2306 875 2268 
Q 822 2231 822 2166 
Q 822 2134 828 2106 
Q 838 2069 919 1884 
Q 1025 1638 1297 1084 
L 1669 328 
Q 1988 884 2184 1363 
L 1994 1863 
Q 1963 1931 1914 2068 
Q 1866 2206 1839 2229 
Q 1813 2253 1647 2300 
Q 1481 2347 1450 2372 
L 1447 2394 
Q 1447 2413 1466 2447 
Q 1541 2466 1584 2466 
L 1763 2463 
L 2153 2463 
L 2272 2466 
L 2656 2459 
Q 2703 2459 2734 2463 
L 2788 2463 
Q 2806 2463 2841 2459 
L 2834 2359 
Q 2788 2331 2678 2319 
Q 2472 2297 2363 2241 
Q 2328 2203 2328 2175 
Q 2328 2106 2366 2003 
Q 2378 1972 2431 1809 
L 2766 928 
Q 2913 534 2991 378 
Q 3122 619 3359 1244 
Q 3444 1463 3584 1766 
Q 3675 1956 3675 2094 
Q 3675 2166 3622 2216 
Q 3569 2266 3375 2309 
Q 3259 2334 3203 2356 
Q 3188 2381 3188 2397 
Q 3188 2425 3222 2459 
L 3269 2459 
L 3522 2463 
Q 3538 2463 3666 2458 
Q 3794 2453 3916 2453 
Q 4009 2453 4131 2459 
L 4288 2459 
Q 4306 2453 4314 2443 
Q 4322 2434 4322 2413 
Q 4322 2378 4313 2338 
Q 4159 2319 4071 2267 
Q 3984 2216 3834 1984 
L 3275 641 
Q 3197 453 3003 66 
Q 2963 -16 2942 -66 
Q 2922 -116 2903 -131 
Q 2884 -147 2853 -147 
Q 2831 -147 2794 -134 
Q 2706 38 2406 813 
Q 2325 1022 2256 1169 
Q 1744 103 1584 -141 
Q 1541 -147 1519 -147 
Q 1497 -147 1456 -141 
L 866 1094 
L 325 2150 
Q 269 2247 238 2269 
Q 184 2303 50 2325 
Q -25 2338 -66 2344 
Q -69 2391 -69 2416 
Q -69 2431 -66 2463 
z
" transform="scale(0.015625)"/>
      </defs>
      <use xlink:href="#Garamond-53"/>
      <use xlink:href="#Garamond-6b" x="47.900391"/>
      <use xlink:href="#Garamond-65" x="93.400391"/>
      <use xlink:href="#Garamond-77" x="135.050781"/>
     </g>
    </g>
   </g>
   <g id="matplotlib.axis_2">
    <g id="ytick_1">
     <g id="line2d_5">
      <defs>
       <path id="m8d2148ab43" d="M 0 0 
L -3.5 0 
" style="stroke: #000000; stroke-width: 0.8"/>
      </defs>
      <g>
       <use xlink:href="#m8d2148ab43" x="28.2625" y="189.16" style="stroke: #000000; stroke-width: 0.8"/>
      </g>
     </g>
     <g id="text_6">
      <!-- 0 -->
      <g transform="translate(16.575 192.404531) scale(0.1 -0.1)">
       <defs>
        <path id="Garamond-30" d="M 2800 1972 
Q 2800 1650 2753 1400 
Q 2669 969 2519 678 
Q 2369 388 2163 188 
Q 2013 41 1844 -26 
Q 1675 -94 1500 -94 
Q 1191 -94 914 112 
Q 638 319 431 794 
Q 225 1269 225 1913 
Q 225 2416 350 2878 
Q 475 3341 679 3595 
Q 884 3850 1086 3962 
Q 1288 4075 1525 4075 
Q 1859 4075 2173 3812 
Q 2488 3550 2675 2997 
Q 2800 2625 2800 1972 
z
M 2331 2075 
Q 2328 2844 2275 3119 
Q 2188 3572 1989 3753 
Q 1791 3934 1525 3934 
Q 1303 3934 1104 3790 
Q 906 3647 831 3341 
Q 703 2844 703 1834 
Q 703 834 901 436 
Q 1100 38 1497 38 
Q 1769 38 1967 206 
Q 2166 375 2252 833 
Q 2338 1291 2334 1859 
L 2331 2075 
z
" transform="scale(0.015625)"/>
       </defs>
       <use xlink:href="#Garamond-30"/>
      </g>
     </g>
    </g>
    <g id="ytick_2">
     <g id="line2d_6">
      <g>
       <use xlink:href="#m8d2148ab43" x="28.2625" y="164.616247" style="stroke: #000000; stroke-width: 0.8"/>
      </g>
     </g>
     <g id="text_7">
      <!-- 20 -->
      <g transform="translate(11.8875 167.860779) scale(0.1 -0.1)">
       <use xlink:href="#Garamond-32"/>
       <use xlink:href="#Garamond-30" x="46.875"/>
      </g>
     </g>
    </g>
    <g id="ytick_3">
     <g id="line2d_7">
      <g>
       <use xlink:href="#m8d2148ab43" x="28.2625" y="140.072495" style="stroke: #000000; stroke-width: 0.8"/>
      </g>
     </g>
     <g id="text_8">
      <!-- 40 -->
      <g transform="translate(11.8875 143.317026) scale(0.1 -0.1)">
       <use xlink:href="#Garamond-34"/>
       <use xlink:href="#Garamond-30" x="46.875"/>
      </g>
     </g>
    </g>
    <g id="ytick_4">
     <g id="line2d_8">
      <g>
       <use xlink:href="#m8d2148ab43" x="28.2625" y="115.528742" style="stroke: #000000; stroke-width: 0.8"/>
      </g>
     </g>
     <g id="text_9">
      <!-- 60 -->
      <g transform="translate(11.8875 118.773274) scale(0.1 -0.1)">
       <use xlink:href="#Garamond-36"/>
       <use xlink:href="#Garamond-30" x="46.875"/>
      </g>
     </g>
    </g>
    <g id="ytick_5">
     <g id="line2d_9">
      <g>
       <use xlink:href="#m8d2148ab43" x="28.2625" y="90.98499" style="stroke: #000000; stroke-width: 0.8"/>
      </g>
     </g>
     <g id="text_10">
      <!-- 80 -->
      <g transform="translate(11.8875 94.229521) scale(0.1 -0.1)">
       <use xlink:href="#Garamond-38"/>
       <use xlink:href="#Garamond-30" x="46.875"/>
      </g>
     </g>
    </g>
    <g id="ytick_6">
     <g id="line2d_10">
      <g>
       <use xlink:href="#m8d2148ab43" x="28.2625" y="66.441237" style="stroke: #000000; stroke-width: 0.8"/>
      </g>
     </g>
     <g id="text_11">
      <!-- 100 -->
      <g transform="translate(7.2 69.685769) scale(0.1 -0.1)">
       <defs>
        <path id="Garamond-31" d="M 2269 6 
L 838 6 
Q 834 34 834 53 
Q 834 106 856 126 
Q 878 147 994 169 
Q 1175 206 1288 259 
Q 1319 328 1319 388 
L 1319 581 
Q 1319 616 1328 897 
Q 1331 1003 1334 1816 
L 1341 2550 
L 1334 2978 
Q 1334 3072 1341 3569 
Q 631 3063 563 3063 
Q 538 3063 509 3089 
Q 481 3116 481 3141 
Q 481 3172 503 3191 
Q 547 3231 713 3325 
Q 738 3338 928 3494 
Q 1231 3747 1372 3890 
Q 1513 4034 1544 4053 
Q 1606 4056 1641 4056 
Q 1722 4056 1742 4029 
Q 1763 4003 1763 3838 
L 1741 1053 
L 1741 778 
Q 1741 678 1737 576 
Q 1734 475 1734 428 
Q 1734 316 1763 281 
Q 1781 259 1878 225 
L 2091 181 
Q 2228 147 2241 134 
Q 2272 106 2272 47 
L 2269 6 
z
" transform="scale(0.015625)"/>
       </defs>
       <use xlink:href="#Garamond-31"/>
       <use xlink:href="#Garamond-30" x="46.875"/>
       <use xlink:href="#Garamond-30" x="93.75"/>
      </g>
     </g>
    </g>
    <g id="ytick_7">
     <g id="line2d_11">
      <g>
       <use xlink:href="#m8d2148ab43" x="28.2625" y="41.897485" style="stroke: #000000; stroke-width: 0.8"/>
      </g>
     </g>
     <g id="text_12">
      <!-- 120 -->
      <g transform="translate(7.2 45.142016) scale(0.1 -0.1)">
       <use xlink:href="#Garamond-31"/>
       <use xlink:href="#Garamond-32" x="46.875"/>
       <use xlink:href="#Garamond-30" x="93.75"/>
      </g>
     </g>
    </g>
   </g>
   <g id="line2d_12">
    <path d="M 114.094412 189.16 
L 114.094412 38.4 
" clip-path="url(#pbfe4fb0dab)" style="fill: none; stroke-dasharray: 5.55,2.4; stroke-dashoffset: 0; stroke: #ff0000; stroke-width: 1.5"/>
   </g>
   <g id="patch_33">
    <path d="M 28.2625 189.16 
L 28.2625 38.4 
" style="fill: none; stroke: #000000; stroke-width: 0.8; stroke-linejoin: miter; stroke-linecap: square"/>
   </g>
   <g id="patch_34">
    <path d="M 533.3625 189.16 
L 533.3625 38.4 
" style="fill: none; stroke: #000000; stroke-width: 0.8; stroke-linejoin: miter; stroke-linecap: square"/>
   </g>
   <g id="patch_35">
    <path d="M 28.2625 189.16 
L 533.3625 189.16 
" style="fill: none; stroke: #000000; stroke-width: 0.8; stroke-linejoin: miter; stroke-linecap: square"/>
   </g>
   <g id="patch_36">
    <path d="M 28.2625 38.4 
L 533.3625 38.4 
" style="fill: none; stroke: #000000; stroke-width: 0.8; stroke-linejoin: miter; stroke-linecap: square"/>
   </g>
   <g id="text_13">
    <!-- Skew distribution -->
    <g transform="translate(235.648438 32.4) scale(0.12 -0.12)">
     <defs>
      <path id="GillSansMT-BoldItalic-53" d="M 3256 4078 
L 3128 3309 
Q 2894 3478 2586 3586 
Q 2278 3694 2047 3694 
Q 1784 3694 1609 3558 
Q 1434 3422 1434 3213 
Q 1434 3088 1532 2961 
Q 1631 2834 2154 2521 
Q 2678 2209 2859 1907 
Q 3041 1606 3041 1281 
Q 3041 703 2641 323 
Q 2241 -56 1563 -56 
Q 703 -56 78 359 
L 219 1119 
Q 500 919 845 795 
Q 1191 672 1453 672 
Q 1738 672 1909 805 
Q 2081 938 2081 1153 
Q 2081 1303 1970 1456 
Q 1859 1609 1332 1934 
Q 806 2259 640 2534 
Q 475 2809 475 3103 
Q 475 3666 912 4044 
Q 1350 4422 2009 4422 
Q 2669 4422 3256 4078 
z
" transform="scale(0.015625)"/>
      <path id="GillSansMT-BoldItalic-6b" d="M 1663 4366 
L 1281 1663 
L 2328 2906 
L 3397 2906 
L 2247 1522 
L 3366 0 
L 2316 0 
L 1247 1434 
L 1050 0 
L 184 0 
L 800 4366 
L 1663 4366 
z
" transform="scale(0.015625)"/>
      <path id="GillSansMT-BoldItalic-65" d="M 2994 1331 
L 1094 1331 
Q 1063 988 1250 784 
Q 1438 581 1759 581 
Q 2116 581 2834 878 
L 2681 153 
Q 2116 -56 1672 -56 
Q 1013 -56 619 328 
Q 225 713 225 1356 
Q 225 2022 684 2489 
Q 1144 2956 1797 2956 
Q 2363 2956 2702 2620 
Q 3041 2284 3041 1734 
Q 3041 1541 2994 1331 
z
M 1178 1831 
L 2194 1831 
Q 2203 1884 2203 1938 
Q 2203 2128 2087 2245 
Q 1972 2363 1778 2363 
Q 1363 2363 1178 1831 
z
" transform="scale(0.015625)"/>
      <path id="GillSansMT-BoldItalic-77" d="M 4844 2906 
L 3194 -50 
L 2638 -50 
L 2322 1453 
L 1484 -50 
L 941 -50 
L 213 2906 
L 1050 2906 
L 1394 1222 
L 2266 2906 
L 2784 2906 
L 3097 1222 
L 3938 2906 
L 4844 2906 
z
" transform="scale(0.015625)"/>
      <path id="GillSansMT-BoldItalic-20" transform="scale(0.015625)"/>
      <path id="GillSansMT-BoldItalic-64" d="M 3506 4366 
L 2900 38 
Q 2347 -56 1900 -56 
Q 1128 -56 673 322 
Q 219 700 219 1338 
Q 219 2009 708 2482 
Q 1197 2956 2022 2956 
Q 2156 2956 2444 2925 
L 2644 4366 
L 3506 4366 
z
M 2125 678 
L 2338 2188 
Q 2225 2203 2119 2203 
Q 1656 2203 1384 1951 
Q 1113 1700 1113 1331 
Q 1113 1016 1320 831 
Q 1528 647 1888 647 
Q 1981 647 2125 678 
z
" transform="scale(0.015625)"/>
      <path id="GillSansMT-BoldItalic-69" d="M 678 3713 
Q 678 3897 809 4028 
Q 941 4159 1125 4159 
Q 1313 4159 1444 4028 
Q 1575 3897 1575 3713 
Q 1575 3525 1444 3394 
Q 1313 3263 1125 3263 
Q 941 3263 809 3394 
Q 678 3525 678 3713 
z
M 1459 2906 
L 1050 0 
L 184 0 
L 594 2906 
L 1459 2906 
z
" transform="scale(0.015625)"/>
      <path id="GillSansMT-BoldItalic-73" d="M 2297 2694 
L 2228 2009 
Q 2003 2122 1759 2187 
Q 1516 2253 1388 2253 
Q 1197 2253 1197 2125 
Q 1197 1997 1541 1741 
Q 1934 1447 2048 1250 
Q 2163 1053 2163 856 
Q 2163 463 1858 206 
Q 1553 -50 1075 -50 
Q 578 -50 72 213 
L 191 856 
Q 722 653 984 653 
Q 1269 653 1269 813 
Q 1269 947 891 1233 
Q 513 1519 403 1689 
Q 294 1859 294 2016 
Q 294 2431 598 2693 
Q 903 2956 1381 2956 
Q 1834 2956 2297 2694 
z
" transform="scale(0.015625)"/>
      <path id="GillSansMT-BoldItalic-74" d="M 1772 3519 
L 1650 2906 
L 2291 2906 
L 2175 2266 
L 1538 2266 
L 1369 1325 
Q 1347 1203 1347 1100 
Q 1347 716 1606 716 
Q 1763 716 2106 891 
L 2106 128 
Q 1725 -56 1363 -56 
Q 941 -56 698 211 
Q 456 478 456 903 
Q 456 1034 481 1159 
L 684 2266 
L 97 2266 
L 206 2906 
L 794 2906 
L 897 3519 
L 1772 3519 
z
" transform="scale(0.015625)"/>
      <path id="GillSansMT-BoldItalic-72" d="M 1422 2906 
L 1356 2491 
L 1369 2478 
Q 1756 2956 2075 2956 
Q 2319 2956 2591 2638 
L 2188 1838 
Q 1978 2150 1778 2150 
Q 1606 2150 1434 1972 
Q 1263 1794 1253 1728 
L 1013 0 
L 147 0 
L 556 2906 
L 1422 2906 
z
" transform="scale(0.015625)"/>
      <path id="GillSansMT-BoldItalic-62" d="M 1672 4366 
L 1422 2613 
Q 1819 2956 2209 2956 
Q 2669 2956 2980 2584 
Q 3291 2213 3291 1650 
Q 3291 928 2794 436 
Q 2297 -56 1422 -56 
Q 738 -56 197 38 
L 806 4366 
L 1672 4366 
z
M 1325 1906 
L 1147 666 
Q 1300 644 1438 644 
Q 2388 644 2388 1613 
Q 2388 1906 2253 2079 
Q 2119 2253 1894 2253 
Q 1603 2253 1325 1906 
z
" transform="scale(0.015625)"/>
      <path id="GillSansMT-BoldItalic-75" d="M 3331 2906 
L 2922 0 
L 2056 0 
L 2109 325 
Q 1656 -50 1169 -50 
Q 763 -50 541 187 
Q 319 425 319 834 
Q 319 941 334 1063 
L 597 2906 
L 1463 2906 
L 1244 1363 
Q 1216 1166 1216 1022 
Q 1216 588 1475 588 
Q 1809 588 2203 1013 
L 2466 2906 
L 3331 2906 
z
" transform="scale(0.015625)"/>
      <path id="GillSansMT-BoldItalic-6f" d="M 1900 2956 
Q 2534 2956 2937 2576 
Q 3341 2197 3341 1588 
Q 3341 894 2864 419 
Q 2388 -56 1691 -56 
Q 1072 -56 648 350 
Q 225 756 225 1344 
Q 225 2003 719 2479 
Q 1213 2956 1900 2956 
z
M 1697 647 
Q 2025 647 2234 948 
Q 2444 1250 2444 1613 
Q 2444 1900 2284 2076 
Q 2125 2253 1863 2253 
Q 1516 2253 1317 1942 
Q 1119 1631 1119 1294 
Q 1119 1000 1294 823 
Q 1469 647 1697 647 
z
" transform="scale(0.015625)"/>
      <path id="GillSansMT-BoldItalic-6e" d="M 1466 2906 
L 1416 2578 
Q 1900 2956 2406 2956 
Q 2788 2956 2991 2720 
Q 3194 2484 3194 2059 
Q 3194 1934 3175 1797 
L 2925 0 
L 2059 0 
L 2303 1734 
Q 2316 1809 2316 1884 
Q 2316 2316 2047 2316 
Q 1738 2316 1319 1869 
L 1056 0 
L 191 0 
L 603 2906 
L 1466 2906 
z
" transform="scale(0.015625)"/>
     </defs>
     <use xlink:href="#GillSansMT-BoldItalic-53"/>
     <use xlink:href="#GillSansMT-BoldItalic-6b" x="52.099609"/>
     <use xlink:href="#GillSansMT-BoldItalic-65" x="101.978516"/>
     <use xlink:href="#GillSansMT-BoldItalic-77" x="151.955078"/>
     <use xlink:href="#GillSansMT-BoldItalic-20" x="224.855469"/>
     <use xlink:href="#GillSansMT-BoldItalic-64" x="252.638672"/>
     <use xlink:href="#GillSansMT-BoldItalic-69" x="306.837891"/>
     <use xlink:href="#GillSansMT-BoldItalic-73" x="332.814453"/>
     <use xlink:href="#GillSansMT-BoldItalic-74" x="370.314453"/>
     <use xlink:href="#GillSansMT-BoldItalic-72" x="406.837891"/>
     <use xlink:href="#GillSansMT-BoldItalic-69" x="443.361328"/>
     <use xlink:href="#GillSansMT-BoldItalic-62" x="469.337891"/>
     <use xlink:href="#GillSansMT-BoldItalic-75" x="523.537109"/>
     <use xlink:href="#GillSansMT-BoldItalic-74" x="578.712891"/>
     <use xlink:href="#GillSansMT-BoldItalic-69" x="615.236328"/>
     <use xlink:href="#GillSansMT-BoldItalic-6f" x="641.212891"/>
     <use xlink:href="#GillSansMT-BoldItalic-6e" x="697.511719"/>
    </g>
   </g>
   <g id="legend_1">
    <g id="patch_37">
     <path d="M 414.065625 60.964063 
L 526.3625 60.964063 
Q 528.3625 60.964063 528.3625 58.964063 
L 528.3625 45.4 
Q 528.3625 43.4 526.3625 43.4 
L 414.065625 43.4 
Q 412.065625 43.4 412.065625 45.4 
L 412.065625 58.964063 
Q 412.065625 60.964063 414.065625 60.964063 
z
" style="fill: #ffffff; opacity: 0.8; stroke: #cccccc; stroke-linejoin: miter"/>
    </g>
    <g id="line2d_13">
     <path d="M 416.065625 50.9 
L 426.065625 50.9 
L 436.065625 50.9 
" style="fill: none; stroke-dasharray: 5.55,2.4; stroke-dashoffset: 0; stroke: #ff0000; stroke-width: 1.5"/>
    </g>
    <g id="text_14">
     <!-- Overall skew: 1.7313 -->
     <g transform="translate(444.065625 54.4) scale(0.1 -0.1)">
      <defs>
       <path id="Garamond-4f" d="M 294 1997 
Q 294 2316 370 2564 
Q 447 2813 628 3103 
Q 809 3394 1065 3589 
Q 1322 3784 1775 3934 
Q 2094 4038 2581 4038 
Q 2909 4038 3223 3950 
Q 3538 3863 3794 3706 
Q 4050 3550 4306 3225 
Q 4484 3000 4575 2741 
Q 4694 2400 4694 2038 
Q 4694 1625 4614 1353 
Q 4534 1081 4347 816 
Q 4200 609 3844 341 
Q 3606 159 3253 48 
Q 2900 -63 2491 -63 
Q 2075 -63 1750 34 
Q 1425 131 1208 270 
Q 991 409 761 681 
Q 531 953 412 1281 
Q 294 1609 294 1997 
z
M 2463 53 
Q 2725 53 3008 126 
Q 3291 200 3509 370 
Q 3728 541 3851 758 
Q 3975 975 4050 1315 
Q 4125 1656 4125 1997 
Q 4125 2422 4000 2838 
Q 3903 3153 3684 3401 
Q 3466 3650 3156 3786 
Q 2847 3922 2497 3922 
Q 2213 3922 1941 3828 
Q 1669 3734 1494 3589 
Q 1319 3444 1169 3176 
Q 1019 2909 941 2587 
Q 863 2266 863 2019 
Q 863 1759 941 1431 
Q 1019 1103 1155 862 
Q 1291 622 1489 436 
Q 1688 250 1934 151 
Q 2181 53 2463 53 
z
" transform="scale(0.015625)"/>
       <path id="Garamond-76" d="M -34 2481 
Q 313 2478 572 2459 
Q 756 2459 841 2466 
Q 900 2469 916 2469 
L 1266 2466 
Q 1338 2453 1381 2450 
Q 1400 2444 1416 2416 
Q 1416 2384 1397 2350 
Q 1344 2334 1288 2331 
Q 1053 2306 894 2259 
Q 872 2244 872 2228 
Q 872 2197 903 2131 
Q 909 2116 931 2056 
L 1244 1306 
Q 1453 791 1631 438 
Q 1753 669 1856 916 
Q 1959 1163 2159 1694 
Q 2216 1844 2266 2066 
Q 2275 2109 2275 2141 
Q 2275 2178 2233 2223 
Q 2191 2269 2091 2297 
Q 2069 2300 1806 2344 
Q 1784 2356 1766 2378 
L 1766 2403 
Q 1766 2419 1769 2444 
Q 1844 2453 1878 2453 
L 2247 2450 
Q 2284 2450 2425 2459 
Q 2922 2459 3022 2450 
Q 3041 2444 3056 2413 
Q 3056 2384 3038 2350 
L 2941 2325 
Q 2903 2322 2881 2319 
Q 2613 2294 2550 2244 
Q 2503 2209 2403 1922 
Q 2356 1781 2266 1566 
L 2103 1172 
Q 2069 1088 2028 988 
L 1544 -131 
L 1450 -131 
Q 1422 -56 1381 25 
L 1144 528 
L 584 1838 
Q 416 2219 381 2250 
Q 347 2281 -19 2381 
Q -38 2431 -38 2453 
L -34 2481 
z
" transform="scale(0.015625)"/>
       <path id="Garamond-72" d="M 128 -9 
L 116 31 
Q 116 53 144 97 
L 328 134 
L 588 181 
Q 619 197 631 225 
Q 650 266 650 466 
Q 650 1528 637 1692 
Q 625 1856 581 1900 
Q 538 1944 356 1969 
Q 250 1984 188 2009 
L 200 2103 
Q 528 2238 641 2334 
Q 797 2475 906 2703 
L 1013 2700 
Q 1031 2544 1031 2006 
L 1028 1953 
Q 1028 1934 1034 1894 
Q 1153 2109 1331 2291 
L 1403 2363 
Q 1447 2413 1488 2441 
Q 1706 2572 1813 2572 
Q 1950 2572 2037 2480 
Q 2125 2388 2125 2253 
Q 2125 2147 2063 2088 
Q 1978 2009 1869 2009 
Q 1819 2009 1672 2062 
Q 1525 2116 1478 2116 
Q 1391 2116 1356 2088 
Q 1269 2019 1144 1806 
Q 1047 1647 1047 1513 
L 1063 997 
L 1069 378 
Q 1078 272 1094 241 
Q 1106 219 1156 188 
Q 1494 159 1556 147 
Q 1600 144 1622 141 
Q 1756 138 1809 103 
Q 1838 88 1838 56 
Q 1838 38 1813 6 
L 1466 9 
L 1334 13 
L 1144 9 
L 825 9 
L 653 0 
L 128 -9 
z
" transform="scale(0.015625)"/>
       <path id="Garamond-61" d="M 2541 425 
Q 2559 384 2559 366 
Q 2559 319 2484 200 
Q 2388 44 2269 -28 
Q 2194 -75 2063 -75 
Q 1838 -75 1725 63 
Q 1656 144 1628 353 
L 1278 109 
Q 1094 3 997 -25 
Q 841 -66 622 -66 
Q 463 -66 370 29 
Q 278 125 278 275 
Q 278 491 542 791 
Q 806 1091 1259 1281 
Q 1578 1416 1650 1453 
Q 1656 1556 1656 1678 
Q 1656 2075 1545 2215 
Q 1434 2356 1228 2356 
Q 1013 2356 825 2188 
Q 709 2081 650 1788 
Q 631 1706 578 1613 
Q 444 1525 363 1525 
Q 294 1525 238 1566 
Q 206 1588 206 1616 
Q 206 1697 379 1983 
Q 553 2269 817 2411 
Q 1081 2553 1278 2553 
Q 1547 2553 1678 2504 
Q 1809 2456 1909 2334 
Q 2009 2213 2031 2069 
Q 2044 2000 2044 1578 
L 2034 1081 
L 2038 719 
Q 2038 647 2034 597 
Q 2031 506 2031 463 
Q 2031 359 2091 297 
Q 2150 234 2231 234 
Q 2350 234 2434 353 
L 2472 403 
Q 2488 413 2541 425 
z
M 1622 516 
Q 1644 913 1644 1075 
Q 1644 1159 1634 1303 
Q 1425 1228 1190 1075 
Q 956 922 819 722 
Q 719 578 719 450 
Q 719 328 801 247 
Q 884 166 1009 166 
Q 1106 166 1244 234 
Q 1425 325 1622 516 
z
" transform="scale(0.015625)"/>
       <path id="Garamond-6c" d="M 163 3872 
L 163 3941 
Q 250 3969 356 4000 
Q 513 4050 819 4153 
L 966 4153 
Q 969 4003 969 3981 
Q 969 1416 953 922 
Q 944 631 944 613 
Q 944 263 972 222 
Q 1009 166 1201 144 
Q 1394 122 1428 100 
Q 1453 88 1453 56 
Q 1453 22 1439 8 
Q 1425 -6 1388 -6 
Q 1366 -6 1059 3 
L 650 16 
L 125 -6 
Q 75 -9 50 13 
Q 31 28 31 56 
Q 31 88 51 102 
Q 72 116 276 150 
Q 481 184 511 207 
Q 541 231 550 313 
Q 563 425 563 947 
L 559 1666 
L 569 2409 
L 566 3153 
L 575 3519 
Q 575 3628 540 3676 
Q 506 3725 394 3772 
Q 225 3841 163 3872 
z
" transform="scale(0.015625)"/>
       <path id="Garamond-20" transform="scale(0.015625)"/>
       <path id="Garamond-73" d="M 453 794 
Q 569 497 628 409 
Q 747 231 912 132 
Q 1078 34 1272 34 
Q 1450 34 1625 188 
Q 1750 303 1750 456 
Q 1750 659 1603 831 
Q 1456 1000 1045 1154 
Q 634 1309 494 1484 
Q 353 1659 353 1884 
Q 353 2097 468 2259 
Q 584 2422 787 2505 
Q 991 2588 1163 2588 
Q 1384 2588 1561 2553 
Q 1738 2519 1866 2447 
Q 1891 2288 1906 1978 
L 1913 1878 
Q 1872 1875 1844 1875 
L 1800 1875 
Q 1706 2134 1514 2286 
Q 1322 2438 1134 2438 
Q 947 2438 831 2323 
Q 716 2209 716 2025 
Q 716 1884 809 1775 
Q 903 1666 1248 1525 
Q 1594 1384 1751 1264 
Q 1909 1144 1984 972 
Q 2059 800 2059 644 
Q 2059 428 1917 240 
Q 1775 53 1561 -23 
Q 1347 -100 1178 -100 
Q 781 -100 447 47 
Q 416 72 413 141 
Q 413 169 406 231 
Q 356 653 356 731 
Q 356 769 372 781 
Q 388 794 453 794 
z
" transform="scale(0.015625)"/>
       <path id="Garamond-3a" d="M 366 2163 
Q 366 2281 464 2381 
Q 563 2481 691 2481 
Q 828 2481 931 2378 
Q 1034 2275 1034 2141 
Q 1034 1988 916 1863 
Q 838 1775 684 1775 
Q 547 1775 456 1875 
Q 366 1975 366 2163 
z
M 381 259 
Q 381 397 482 500 
Q 584 603 719 603 
Q 847 603 939 506 
Q 1031 409 1031 263 
Q 1031 116 936 16 
Q 841 -84 706 -84 
Q 550 -84 465 33 
Q 381 150 381 259 
z
" transform="scale(0.015625)"/>
       <path id="Garamond-2e" d="M 375 253 
Q 375 391 476 494 
Q 578 597 713 597 
Q 844 597 934 500 
Q 1025 403 1025 256 
Q 1025 109 929 9 
Q 834 -91 700 -91 
Q 569 -91 472 11 
Q 375 113 375 253 
z
" transform="scale(0.015625)"/>
       <path id="Garamond-37" d="M 341 3950 
Q 725 3966 1378 3966 
Q 1675 3966 2056 3956 
Q 2288 3947 2359 3947 
L 2663 3950 
L 2734 3950 
Q 2759 3925 2759 3903 
Q 2759 3866 2688 3722 
Q 2653 3659 2384 3038 
Q 2253 2731 2063 2234 
L 1669 1125 
Q 1528 744 1488 594 
L 1416 303 
Q 1372 175 1372 116 
Q 1372 69 1425 -31 
Q 1388 -81 1256 -81 
Q 1197 -81 1144 -31 
Q 1163 153 1263 456 
Q 1300 566 1390 887 
Q 1481 1209 1569 1456 
L 1925 2425 
Q 2078 2838 2222 3184 
Q 2272 3300 2297 3347 
Q 2363 3463 2363 3538 
L 2322 3534 
L 2288 3534 
L 1875 3547 
Q 1856 3547 1743 3540 
Q 1631 3534 1575 3534 
L 1091 3538 
L 944 3538 
L 738 3544 
Q 556 3547 511 3501 
Q 466 3456 459 3269 
Q 456 3222 434 3178 
Q 400 3169 384 3169 
Q 350 3169 294 3194 
Q 297 3272 297 3309 
L 303 3403 
L 294 3575 
Q 294 3800 306 3878 
Q 313 3909 341 3950 
z
" transform="scale(0.015625)"/>
       <path id="Garamond-33" d="M 534 3150 
L 431 3206 
Q 628 3684 900 3879 
Q 1172 4075 1534 4075 
Q 1872 4075 2075 3925 
Q 2378 3700 2378 3419 
Q 2378 3191 2223 2959 
Q 2069 2728 1681 2441 
L 1756 2444 
Q 2000 2444 2226 2320 
Q 2453 2197 2584 1936 
Q 2716 1675 2716 1375 
Q 2716 772 2273 342 
Q 1831 -88 1147 -88 
Q 628 -88 381 63 
Q 247 141 247 259 
Q 247 325 301 378 
Q 356 431 438 431 
Q 541 431 688 319 
Q 1034 53 1291 53 
Q 1678 53 1978 379 
Q 2278 706 2278 1203 
Q 2278 1616 2076 1880 
Q 1875 2144 1566 2144 
Q 1334 2144 1084 1925 
L 1009 2050 
Q 1166 2184 1291 2278 
Q 1672 2556 1859 2825 
Q 1994 3019 1994 3166 
Q 1994 3413 1819 3583 
Q 1644 3753 1359 3753 
Q 891 3753 534 3150 
z
" transform="scale(0.015625)"/>
      </defs>
      <use xlink:href="#Garamond-4f"/>
      <use xlink:href="#Garamond-76" x="78.125"/>
      <use xlink:href="#Garamond-65" x="123.125"/>
      <use xlink:href="#Garamond-72" x="164.775391"/>
      <use xlink:href="#Garamond-61" x="198.125"/>
      <use xlink:href="#Garamond-6c" x="238.75"/>
      <use xlink:href="#Garamond-6c" x="261.650391"/>
      <use xlink:href="#Garamond-20" x="284.550781"/>
      <use xlink:href="#Garamond-73" x="309.550781"/>
      <use xlink:href="#Garamond-6b" x="346.025391"/>
      <use xlink:href="#Garamond-65" x="391.525391"/>
      <use xlink:href="#Garamond-77" x="433.175781"/>
      <use xlink:href="#Garamond-3a" x="499.826172"/>
      <use xlink:href="#Garamond-20" x="521.701172"/>
      <use xlink:href="#Garamond-31" x="546.701172"/>
      <use xlink:href="#Garamond-2e" x="593.576172"/>
      <use xlink:href="#Garamond-37" x="615.451172"/>
      <use xlink:href="#Garamond-33" x="662.326172"/>
      <use xlink:href="#Garamond-31" x="709.201172"/>
      <use xlink:href="#Garamond-33" x="756.076172"/>
     </g>
    </g>
   </g>
  </g>
  <g id="axes_2">
   <g id="patch_38">
    <path d="M 560.5225 189.16 
L 1065.6225 189.16 
L 1065.6225 38.4 
L 560.5225 38.4 
z
" style="fill: #ffffff"/>
   </g>
   <g id="patch_39">
    <path d="M 583.481591 189.16 
L 598.787652 189.16 
L 598.787652 164.343539 
L 583.481591 164.343539 
z
" clip-path="url(#p5d41120114)" style="fill: #38329a"/>
   </g>
   <g id="patch_40">
    <path d="M 598.787652 189.16 
L 614.093712 189.16 
L 614.093712 166.116143 
L 598.787652 166.116143 
z
" clip-path="url(#p5d41120114)" style="fill: #38329a"/>
   </g>
   <g id="patch_41">
    <path d="M 614.093712 189.16 
L 629.399773 189.16 
L 629.399773 164.343539 
L 614.093712 164.343539 
z
" clip-path="url(#p5d41120114)" style="fill: #38329a"/>
   </g>
   <g id="patch_42">
    <path d="M 629.399773 189.16 
L 644.705833 189.16 
L 644.705833 171.433956 
L 629.399773 171.433956 
z
" clip-path="url(#p5d41120114)" style="fill: #38329a"/>
   </g>
   <g id="patch_43">
    <path d="M 644.705833 189.16 
L 660.011894 189.16 
L 660.011894 150.162704 
L 644.705833 150.162704 
z
" clip-path="url(#p5d41120114)" style="fill: #38329a"/>
   </g>
   <g id="patch_44">
    <path d="M 660.011894 189.16 
L 675.317955 189.16 
L 675.317955 164.343539 
L 660.011894 164.343539 
z
" clip-path="url(#p5d41120114)" style="fill: #38329a"/>
   </g>
   <g id="patch_45">
    <path d="M 675.317955 189.16 
L 690.624015 189.16 
L 690.624015 146.617496 
L 675.317955 146.617496 
z
" clip-path="url(#p5d41120114)" style="fill: #38329a"/>
   </g>
   <g id="patch_46">
    <path d="M 690.624015 189.16 
L 705.930076 189.16 
L 705.930076 135.981869 
L 690.624015 135.981869 
z
" clip-path="url(#p5d41120114)" style="fill: #38329a"/>
   </g>
   <g id="patch_47">
    <path d="M 705.930076 189.16 
L 721.236136 189.16 
L 721.236136 146.617496 
L 705.930076 146.617496 
z
" clip-path="url(#p5d41120114)" style="fill: #38329a"/>
   </g>
   <g id="patch_48">
    <path d="M 721.236136 189.16 
L 736.542197 189.16 
L 736.542197 65.077695 
L 721.236136 65.077695 
z
" clip-path="url(#p5d41120114)" style="fill: #38329a"/>
   </g>
   <g id="patch_49">
    <path d="M 736.542197 189.16 
L 751.848258 189.16 
L 751.848258 159.025726 
L 736.542197 159.025726 
z
" clip-path="url(#p5d41120114)" style="fill: #38329a"/>
   </g>
   <g id="patch_50">
    <path d="M 751.848258 189.16 
L 767.154318 189.16 
L 767.154318 153.707913 
L 751.848258 153.707913 
z
" clip-path="url(#p5d41120114)" style="fill: #38329a"/>
   </g>
   <g id="patch_51">
    <path d="M 767.154318 189.16 
L 782.460379 189.16 
L 782.460379 91.666761 
L 767.154318 91.666761 
z
" clip-path="url(#p5d41120114)" style="fill: #38329a"/>
   </g>
   <g id="patch_52">
    <path d="M 782.460379 189.16 
L 797.766439 189.16 
L 797.766439 123.573639 
L 782.460379 123.573639 
z
" clip-path="url(#p5d41120114)" style="fill: #38329a"/>
   </g>
   <g id="patch_53">
    <path d="M 797.766439 189.16 
L 813.0725 189.16 
L 813.0725 176.75177 
L 797.766439 176.75177 
z
" clip-path="url(#p5d41120114)" style="fill: #38329a"/>
   </g>
   <g id="patch_54">
    <path d="M 813.0725 189.16 
L 828.378561 189.16 
L 828.378561 45.579048 
L 813.0725 45.579048 
z
" clip-path="url(#p5d41120114)" style="fill: #38329a"/>
   </g>
   <g id="patch_55">
    <path d="M 828.378561 189.16 
L 843.684621 189.16 
L 843.684621 189.16 
L 828.378561 189.16 
z
" clip-path="url(#p5d41120114)" style="fill: #38329a"/>
   </g>
   <g id="patch_56">
    <path d="M 843.684621 189.16 
L 858.990682 189.16 
L 858.990682 144.844891 
L 843.684621 144.844891 
z
" clip-path="url(#p5d41120114)" style="fill: #38329a"/>
   </g>
   <g id="patch_57">
    <path d="M 858.990682 189.16 
L 874.296742 189.16 
L 874.296742 155.480517 
L 858.990682 155.480517 
z
" clip-path="url(#p5d41120114)" style="fill: #38329a"/>
   </g>
   <g id="patch_58">
    <path d="M 874.296742 189.16 
L 889.602803 189.16 
L 889.602803 162.570935 
L 874.296742 162.570935 
z
" clip-path="url(#p5d41120114)" style="fill: #38329a"/>
   </g>
   <g id="patch_59">
    <path d="M 889.602803 189.16 
L 904.908864 189.16 
L 904.908864 166.116143 
L 889.602803 166.116143 
z
" clip-path="url(#p5d41120114)" style="fill: #38329a"/>
   </g>
   <g id="patch_60">
    <path d="M 904.908864 189.16 
L 920.214924 189.16 
L 920.214924 182.069583 
L 904.908864 182.069583 
z
" clip-path="url(#p5d41120114)" style="fill: #38329a"/>
   </g>
   <g id="patch_61">
    <path d="M 920.214924 189.16 
L 935.520985 189.16 
L 935.520985 155.480517 
L 920.214924 155.480517 
z
" clip-path="url(#p5d41120114)" style="fill: #38329a"/>
   </g>
   <g id="patch_62">
    <path d="M 935.520985 189.16 
L 950.827045 189.16 
L 950.827045 153.707913 
L 935.520985 153.707913 
z
" clip-path="url(#p5d41120114)" style="fill: #38329a"/>
   </g>
   <g id="patch_63">
    <path d="M 950.827045 189.16 
L 966.133106 189.16 
L 966.133106 187.387396 
L 950.827045 187.387396 
z
" clip-path="url(#p5d41120114)" style="fill: #38329a"/>
   </g>
   <g id="patch_64">
    <path d="M 966.133106 189.16 
L 981.439167 189.16 
L 981.439167 160.79833 
L 966.133106 160.79833 
z
" clip-path="url(#p5d41120114)" style="fill: #38329a"/>
   </g>
   <g id="patch_65">
    <path d="M 981.439167 189.16 
L 996.745227 189.16 
L 996.745227 182.069583 
L 981.439167 182.069583 
z
" clip-path="url(#p5d41120114)" style="fill: #38329a"/>
   </g>
   <g id="patch_66">
    <path d="M 996.745227 189.16 
L 1012.051288 189.16 
L 1012.051288 178.524374 
L 996.745227 178.524374 
z
" clip-path="url(#p5d41120114)" style="fill: #38329a"/>
   </g>
   <g id="patch_67">
    <path d="M 1012.051288 189.16 
L 1027.357348 189.16 
L 1027.357348 182.069583 
L 1012.051288 182.069583 
z
" clip-path="url(#p5d41120114)" style="fill: #38329a"/>
   </g>
   <g id="patch_68">
    <path d="M 1027.357348 189.16 
L 1042.663409 189.16 
L 1042.663409 182.069583 
L 1027.357348 182.069583 
z
" clip-path="url(#p5d41120114)" style="fill: #38329a"/>
   </g>
   <g id="matplotlib.axis_3">
    <g id="xtick_5">
     <g id="line2d_14">
      <g>
       <use xlink:href="#m0834c5082f" x="596.759137" y="189.16" style="stroke: #000000; stroke-width: 0.8"/>
      </g>
     </g>
     <g id="text_15">
      <!-- 0.1 -->
      <g transform="translate(590.977887 202.649063) scale(0.1 -0.1)">
       <use xlink:href="#Garamond-30"/>
       <use xlink:href="#Garamond-2e" x="46.875"/>
       <use xlink:href="#Garamond-31" x="68.75"/>
      </g>
     </g>
    </g>
    <g id="xtick_6">
     <g id="line2d_15">
      <g>
       <use xlink:href="#m0834c5082f" x="654.295173" y="189.16" style="stroke: #000000; stroke-width: 0.8"/>
      </g>
     </g>
     <g id="text_16">
      <!-- 0.2 -->
      <g transform="translate(648.513923 202.649063) scale(0.1 -0.1)">
       <use xlink:href="#Garamond-30"/>
       <use xlink:href="#Garamond-2e" x="46.875"/>
       <use xlink:href="#Garamond-32" x="68.75"/>
      </g>
     </g>
    </g>
    <g id="xtick_7">
     <g id="line2d_16">
      <g>
       <use xlink:href="#m0834c5082f" x="711.831208" y="189.16" style="stroke: #000000; stroke-width: 0.8"/>
      </g>
     </g>
     <g id="text_17">
      <!-- 0.3 -->
      <g transform="translate(706.049958 202.649063) scale(0.1 -0.1)">
       <use xlink:href="#Garamond-30"/>
       <use xlink:href="#Garamond-2e" x="46.875"/>
       <use xlink:href="#Garamond-33" x="68.75"/>
      </g>
     </g>
    </g>
    <g id="xtick_8">
     <g id="line2d_17">
      <g>
       <use xlink:href="#m0834c5082f" x="769.367243" y="189.16" style="stroke: #000000; stroke-width: 0.8"/>
      </g>
     </g>
     <g id="text_18">
      <!-- 0.4 -->
      <g transform="translate(763.585993 202.649063) scale(0.1 -0.1)">
       <use xlink:href="#Garamond-30"/>
       <use xlink:href="#Garamond-2e" x="46.875"/>
       <use xlink:href="#Garamond-34" x="68.75"/>
      </g>
     </g>
    </g>
    <g id="xtick_9">
     <g id="line2d_18">
      <g>
       <use xlink:href="#m0834c5082f" x="826.903278" y="189.16" style="stroke: #000000; stroke-width: 0.8"/>
      </g>
     </g>
     <g id="text_19">
      <!-- 0.5 -->
      <g transform="translate(821.122028 202.649063) scale(0.1 -0.1)">
       <defs>
        <path id="Garamond-35" d="M 2369 3606 
Q 2019 3578 1803 3578 
Q 1644 3578 1466 3588 
Q 1369 3594 1350 3594 
Q 969 3594 941 3578 
Q 928 3572 925 3550 
Q 916 3500 844 2434 
Q 984 2506 1115 2536 
Q 1247 2566 1463 2566 
Q 1616 2566 1675 2547 
Q 1972 2450 2103 2372 
Q 2284 2259 2398 2115 
Q 2513 1972 2609 1694 
Q 2678 1494 2678 1275 
Q 2678 1038 2611 833 
Q 2544 628 2444 490 
Q 2344 353 2147 204 
Q 1950 56 1683 -22 
Q 1416 -100 1325 -103 
L 872 -63 
Q 684 -31 543 39 
Q 403 109 356 175 
Q 328 216 328 281 
Q 328 331 398 390 
Q 469 450 572 450 
Q 619 450 675 422 
L 922 263 
Q 1006 188 1131 122 
Q 1150 113 1225 100 
Q 1406 75 1422 75 
Q 1491 75 1656 131 
Q 1822 188 1962 323 
Q 2103 459 2204 667 
Q 2306 875 2306 1128 
Q 2306 1581 2022 1875 
Q 1738 2169 1338 2169 
Q 1159 2169 1007 2109 
Q 856 2050 803 1978 
L 756 1959 
Q 719 1944 703 1944 
L 663 1953 
Q 653 2009 653 2038 
Q 653 2063 663 2125 
Q 684 2278 686 2442 
Q 688 2606 719 2738 
L 709 2888 
Q 731 3003 734 3109 
Q 744 3828 794 3934 
Q 816 3984 869 3984 
Q 891 3984 941 3978 
L 959 3975 
L 1356 3978 
Q 1625 3963 1753 3963 
Q 2047 3963 2225 4003 
Q 2313 4084 2359 4084 
Q 2378 4084 2428 4078 
L 2438 4041 
L 2413 3909 
L 2397 3700 
Q 2394 3678 2369 3606 
z
" transform="scale(0.015625)"/>
       </defs>
       <use xlink:href="#Garamond-30"/>
       <use xlink:href="#Garamond-2e" x="46.875"/>
       <use xlink:href="#Garamond-35" x="68.75"/>
      </g>
     </g>
    </g>
    <g id="xtick_10">
     <g id="line2d_19">
      <g>
       <use xlink:href="#m0834c5082f" x="884.439313" y="189.16" style="stroke: #000000; stroke-width: 0.8"/>
      </g>
     </g>
     <g id="text_20">
      <!-- 0.6 -->
      <g transform="translate(878.658063 202.649063) scale(0.1 -0.1)">
       <use xlink:href="#Garamond-30"/>
       <use xlink:href="#Garamond-2e" x="46.875"/>
       <use xlink:href="#Garamond-36" x="68.75"/>
      </g>
     </g>
    </g>
    <g id="xtick_11">
     <g id="line2d_20">
      <g>
       <use xlink:href="#m0834c5082f" x="941.975348" y="189.16" style="stroke: #000000; stroke-width: 0.8"/>
      </g>
     </g>
     <g id="text_21">
      <!-- 0.7 -->
      <g transform="translate(936.194098 202.649063) scale(0.1 -0.1)">
       <use xlink:href="#Garamond-30"/>
       <use xlink:href="#Garamond-2e" x="46.875"/>
       <use xlink:href="#Garamond-37" x="68.75"/>
      </g>
     </g>
    </g>
    <g id="xtick_12">
     <g id="line2d_21">
      <g>
       <use xlink:href="#m0834c5082f" x="999.511383" y="189.16" style="stroke: #000000; stroke-width: 0.8"/>
      </g>
     </g>
     <g id="text_22">
      <!-- 0.8 -->
      <g transform="translate(993.730133 202.649063) scale(0.1 -0.1)">
       <use xlink:href="#Garamond-30"/>
       <use xlink:href="#Garamond-2e" x="46.875"/>
       <use xlink:href="#Garamond-38" x="68.75"/>
      </g>
     </g>
    </g>
    <g id="xtick_13">
     <g id="line2d_22">
      <g>
       <use xlink:href="#m0834c5082f" x="1057.047418" y="189.16" style="stroke: #000000; stroke-width: 0.8"/>
      </g>
     </g>
     <g id="text_23">
      <!-- 0.9 -->
      <g transform="translate(1051.266168 202.649063) scale(0.1 -0.1)">
       <defs>
        <path id="Garamond-39" d="M 2234 3784 
Q 2466 3534 2566 3291 
Q 2700 2947 2700 2494 
Q 2700 1981 2550 1581 
Q 2400 1181 2186 889 
Q 1972 597 1737 408 
Q 1503 219 1159 62 
Q 816 -94 584 -94 
L 559 -94 
Q 522 -66 522 -25 
Q 522 22 537 37 
Q 553 53 619 56 
Q 734 66 1009 200 
Q 1384 388 1581 613 
Q 1916 994 2080 1475 
Q 2244 1956 2244 2553 
Q 2244 3050 2131 3359 
Q 2019 3669 1812 3806 
Q 1606 3944 1416 3944 
Q 1166 3944 991 3706 
Q 750 3375 750 2750 
Q 750 2256 975 1972 
Q 1134 1772 1413 1772 
Q 1513 1772 1556 1791 
L 1581 1800 
Q 1613 1800 1638 1769 
Q 1675 1722 1675 1672 
L 1641 1644 
Q 1572 1613 1483 1597 
Q 1394 1581 1284 1581 
Q 900 1581 590 1931 
Q 281 2281 281 2813 
Q 281 3356 629 3720 
Q 978 4084 1463 4084 
Q 1672 4084 1831 4025 
Q 1991 3966 2234 3784 
z
" transform="scale(0.015625)"/>
       </defs>
       <use xlink:href="#Garamond-30"/>
       <use xlink:href="#Garamond-2e" x="46.875"/>
       <use xlink:href="#Garamond-39" x="68.75"/>
      </g>
     </g>
    </g>
    <g id="text_24">
     <!-- Hit rate -->
     <g transform="translate(798.17875 215.702188) scale(0.1 -0.1)">
      <defs>
       <path id="Garamond-48" d="M 122 -47 
L 125 22 
Q 231 81 372 97 
Q 594 125 653 154 
Q 713 184 738 238 
Q 781 341 781 447 
L 775 684 
L 778 903 
L 772 1159 
Q 772 1319 781 1558 
Q 791 1797 791 1813 
L 791 2666 
Q 791 2869 800 3105 
Q 809 3341 809 3431 
Q 809 3700 796 3744 
Q 784 3788 750 3806 
Q 716 3825 525 3841 
Q 378 3853 322 3863 
Q 306 3897 306 3919 
Q 306 3944 309 3978 
Q 384 3984 425 3984 
L 719 3981 
Q 1031 3981 1381 4006 
Q 1553 4019 1900 4028 
Q 1906 4000 1906 3975 
Q 1906 3944 1892 3926 
Q 1878 3909 1844 3903 
Q 1434 3869 1361 3801 
Q 1288 3734 1288 3459 
Q 1288 2953 1303 2416 
L 1316 2122 
Q 1331 2109 1722 2091 
Q 1828 2084 1847 2084 
L 2306 2091 
L 2609 2081 
L 3403 2106 
Q 3550 2109 3581 2119 
Q 3600 2663 3600 3172 
Q 3600 3663 3578 3750 
Q 3566 3803 3534 3822 
Q 3516 3831 3209 3872 
Q 3156 3878 3109 3888 
Q 3094 3934 3094 3994 
Q 3200 4009 3228 4009 
L 3434 3997 
Q 3719 3981 4006 3981 
Q 4191 3981 4619 4013 
Q 4616 3950 4603 3900 
Q 4484 3853 4319 3841 
Q 4213 3834 4141 3806 
Q 4081 3763 4081 3628 
Q 4081 3597 4084 3559 
Q 4088 3447 4088 3413 
L 4088 3053 
L 4091 2828 
L 4084 2538 
L 4088 1994 
L 4081 1481 
Q 4081 1328 4091 1003 
L 4088 581 
Q 4088 369 4125 278 
Q 4144 234 4188 216 
L 4441 159 
Q 4628 113 4664 83 
Q 4700 53 4700 13 
L 4691 -25 
L 4675 -28 
Q 4659 -28 4634 -22 
Q 4294 41 3919 41 
Q 3625 41 3501 31 
Q 3378 22 2988 -38 
Q 2981 3 2981 22 
Q 2981 44 2988 81 
Q 3084 138 3294 159 
Q 3450 175 3541 259 
Q 3600 316 3600 425 
L 3597 875 
Q 3606 1078 3606 1097 
Q 3606 1363 3597 1872 
Q 3588 1916 3563 1925 
Q 3478 1953 2731 1913 
Q 2581 1903 2506 1903 
Q 2431 1903 2192 1911 
Q 1953 1919 1750 1919 
Q 1641 1919 1566 1916 
Q 1422 1913 1406 1913 
Q 1334 1913 1307 1884 
Q 1281 1856 1281 1781 
L 1284 1563 
Q 1284 1509 1269 972 
Q 1266 863 1266 791 
Q 1266 363 1297 222 
Q 1313 156 1353 131 
Q 1381 113 1597 66 
Q 1741 34 1816 6 
L 1834 -25 
Q 1834 -41 1822 -50 
Q 1803 -66 1769 -66 
Q 1744 -66 1709 -64 
Q 1675 -63 1575 -59 
Q 1416 -56 1178 -38 
Q 1025 -25 906 -25 
Q 706 -25 266 -44 
Q 181 -47 122 -47 
z
" transform="scale(0.015625)"/>
       <path id="Garamond-69" d="M 444 3841 
Q 444 3944 523 4019 
Q 603 4094 716 4094 
Q 831 4094 918 4009 
Q 1006 3925 1006 3828 
Q 1006 3731 918 3645 
Q 831 3559 716 3559 
Q 600 3559 522 3637 
Q 444 3716 444 3841 
z
M 181 2222 
L 184 2313 
Q 388 2372 403 2381 
Q 516 2431 639 2534 
Q 763 2638 847 2766 
Q 884 2772 906 2772 
L 944 2769 
Q 956 2619 956 2550 
Q 956 2534 950 2409 
L 950 2244 
L 953 1344 
L 944 391 
Q 941 275 981 229 
Q 1022 184 1222 128 
Q 1347 94 1409 69 
Q 1419 47 1419 31 
Q 1419 13 1403 -16 
Q 1281 -13 1091 0 
Q 831 22 747 22 
Q 706 22 247 6 
Q 153 3 66 -9 
Q 50 -9 16 0 
Q 0 22 0 38 
Q 0 81 59 106 
Q 72 113 378 178 
Q 478 197 509 241 
Q 563 306 563 450 
Q 569 691 569 1769 
Q 569 1984 550 2038 
Q 534 2075 467 2123 
Q 400 2172 181 2222 
z
" transform="scale(0.015625)"/>
       <path id="Garamond-74" d="M 894 3088 
L 991 3084 
L 1003 2788 
L 997 2403 
Q 1056 2400 1072 2400 
Q 1153 2400 1381 2413 
Q 1528 2422 1663 2422 
Q 1725 2422 1850 2419 
Q 1856 2356 1856 2319 
Q 1856 2278 1838 2191 
L 1784 2191 
L 1300 2175 
L 1059 2169 
L 1003 2163 
Q 978 2084 978 1981 
L 988 1513 
L 981 688 
Q 981 363 1066 256 
Q 1147 147 1309 147 
Q 1391 147 1616 197 
Q 1684 213 1800 300 
L 1828 300 
Q 1856 300 1873 283 
Q 1891 266 1891 238 
L 1888 216 
Q 1753 69 1579 1 
Q 1406 -66 1119 -66 
Q 916 -66 783 28 
Q 650 122 612 250 
Q 575 378 575 809 
L 588 1513 
L 584 1850 
L 584 1975 
Q 584 2063 578 2150 
L 525 2153 
L 269 2144 
L 244 2141 
Q 209 2141 192 2156 
Q 175 2172 175 2194 
Q 175 2231 198 2254 
Q 222 2278 341 2328 
Q 422 2363 530 2458 
Q 638 2553 713 2669 
Q 750 2731 819 2906 
Q 869 3034 894 3088 
z
" transform="scale(0.015625)"/>
      </defs>
      <use xlink:href="#Garamond-48"/>
      <use xlink:href="#Garamond-69" x="76.025391"/>
      <use xlink:href="#Garamond-74" x="98.925781"/>
      <use xlink:href="#Garamond-20" x="128.076172"/>
      <use xlink:href="#Garamond-72" x="153.076172"/>
      <use xlink:href="#Garamond-61" x="186.425781"/>
      <use xlink:href="#Garamond-74" x="227.050781"/>
      <use xlink:href="#Garamond-65" x="256.201172"/>
     </g>
    </g>
   </g>
   <g id="matplotlib.axis_4">
    <g id="ytick_8">
     <g id="line2d_23">
      <g>
       <use xlink:href="#m8d2148ab43" x="560.5225" y="189.16" style="stroke: #000000; stroke-width: 0.8"/>
      </g>
     </g>
     <g id="text_25">
      <!-- 0 -->
      <g transform="translate(548.835 192.404531) scale(0.1 -0.1)">
       <use xlink:href="#Garamond-30"/>
      </g>
     </g>
    </g>
    <g id="ytick_9">
     <g id="line2d_24">
      <g>
       <use xlink:href="#m8d2148ab43" x="560.5225" y="153.707913" style="stroke: #000000; stroke-width: 0.8"/>
      </g>
     </g>
     <g id="text_26">
      <!-- 20 -->
      <g transform="translate(544.1475 156.952444) scale(0.1 -0.1)">
       <use xlink:href="#Garamond-32"/>
       <use xlink:href="#Garamond-30" x="46.875"/>
      </g>
     </g>
    </g>
    <g id="ytick_10">
     <g id="line2d_25">
      <g>
       <use xlink:href="#m8d2148ab43" x="560.5225" y="118.255826" style="stroke: #000000; stroke-width: 0.8"/>
      </g>
     </g>
     <g id="text_27">
      <!-- 40 -->
      <g transform="translate(544.1475 121.500357) scale(0.1 -0.1)">
       <use xlink:href="#Garamond-34"/>
       <use xlink:href="#Garamond-30" x="46.875"/>
      </g>
     </g>
    </g>
    <g id="ytick_11">
     <g id="line2d_26">
      <g>
       <use xlink:href="#m8d2148ab43" x="560.5225" y="82.803739" style="stroke: #000000; stroke-width: 0.8"/>
      </g>
     </g>
     <g id="text_28">
      <!-- 60 -->
      <g transform="translate(544.1475 86.04827) scale(0.1 -0.1)">
       <use xlink:href="#Garamond-36"/>
       <use xlink:href="#Garamond-30" x="46.875"/>
      </g>
     </g>
    </g>
    <g id="ytick_12">
     <g id="line2d_27">
      <g>
       <use xlink:href="#m8d2148ab43" x="560.5225" y="47.351652" style="stroke: #000000; stroke-width: 0.8"/>
      </g>
     </g>
     <g id="text_29">
      <!-- 80 -->
      <g transform="translate(544.1475 50.596183) scale(0.1 -0.1)">
       <use xlink:href="#Garamond-38"/>
       <use xlink:href="#Garamond-30" x="46.875"/>
      </g>
     </g>
    </g>
   </g>
   <g id="line2d_28">
    <path d="M 775.482737 189.16 
L 775.482737 38.4 
" clip-path="url(#p5d41120114)" style="fill: none; stroke-dasharray: 5.55,2.4; stroke-dashoffset: 0; stroke: #ff0000; stroke-width: 1.5"/>
   </g>
   <g id="patch_69">
    <path d="M 560.5225 189.16 
L 560.5225 38.4 
" style="fill: none; stroke: #000000; stroke-width: 0.8; stroke-linejoin: miter; stroke-linecap: square"/>
   </g>
   <g id="patch_70">
    <path d="M 1065.6225 189.16 
L 1065.6225 38.4 
" style="fill: none; stroke: #000000; stroke-width: 0.8; stroke-linejoin: miter; stroke-linecap: square"/>
   </g>
   <g id="patch_71">
    <path d="M 560.5225 189.16 
L 1065.6225 189.16 
" style="fill: none; stroke: #000000; stroke-width: 0.8; stroke-linejoin: miter; stroke-linecap: square"/>
   </g>
   <g id="patch_72">
    <path d="M 560.5225 38.4 
L 1065.6225 38.4 
" style="fill: none; stroke: #000000; stroke-width: 0.8; stroke-linejoin: miter; stroke-linecap: square"/>
   </g>
   <g id="text_30">
    <!-- Hit rate distribution -->
    <g transform="translate(760.596875 32.4) scale(0.12 -0.12)">
     <defs>
      <path id="GillSansMT-BoldItalic-48" d="M 4972 4366 
L 4359 0 
L 3431 0 
L 3688 1778 
L 1459 1778 
L 1209 0 
L 281 0 
L 897 4366 
L 1825 4366 
L 1581 2638 
L 3803 2638 
L 4044 4366 
L 4972 4366 
z
" transform="scale(0.015625)"/>
      <path id="GillSansMT-BoldItalic-61" d="M 3334 2859 
L 2931 0 
L 2069 0 
L 2106 269 
Q 1700 -56 1269 -56 
Q 828 -56 539 294 
Q 250 644 250 1191 
Q 250 1972 795 2464 
Q 1341 2956 2356 2956 
Q 2863 2956 3334 2859 
z
M 2188 844 
L 2381 2228 
Q 2284 2238 2194 2238 
Q 1675 2238 1411 1923 
Q 1147 1609 1147 1147 
Q 1147 884 1259 736 
Q 1372 588 1569 588 
Q 1881 588 2188 844 
z
" transform="scale(0.015625)"/>
     </defs>
     <use xlink:href="#GillSansMT-BoldItalic-48"/>
     <use xlink:href="#GillSansMT-BoldItalic-69" x="79.199219"/>
     <use xlink:href="#GillSansMT-BoldItalic-74" x="105.175781"/>
     <use xlink:href="#GillSansMT-BoldItalic-20" x="141.699219"/>
     <use xlink:href="#GillSansMT-BoldItalic-72" x="169.482422"/>
     <use xlink:href="#GillSansMT-BoldItalic-61" x="204.005859"/>
     <use xlink:href="#GillSansMT-BoldItalic-74" x="259.181641"/>
     <use xlink:href="#GillSansMT-BoldItalic-65" x="295.705078"/>
     <use xlink:href="#GillSansMT-BoldItalic-20" x="346.681641"/>
     <use xlink:href="#GillSansMT-BoldItalic-64" x="374.464844"/>
     <use xlink:href="#GillSansMT-BoldItalic-69" x="428.664062"/>
     <use xlink:href="#GillSansMT-BoldItalic-73" x="454.640625"/>
     <use xlink:href="#GillSansMT-BoldItalic-74" x="492.140625"/>
     <use xlink:href="#GillSansMT-BoldItalic-72" x="528.664062"/>
     <use xlink:href="#GillSansMT-BoldItalic-69" x="565.1875"/>
     <use xlink:href="#GillSansMT-BoldItalic-62" x="591.164062"/>
     <use xlink:href="#GillSansMT-BoldItalic-75" x="645.363281"/>
     <use xlink:href="#GillSansMT-BoldItalic-74" x="700.539062"/>
     <use xlink:href="#GillSansMT-BoldItalic-69" x="737.0625"/>
     <use xlink:href="#GillSansMT-BoldItalic-6f" x="763.039062"/>
     <use xlink:href="#GillSansMT-BoldItalic-6e" x="819.337891"/>
    </g>
   </g>
   <g id="legend_2">
    <g id="patch_73">
     <path d="M 938.06625 60.964063 
L 1058.6225 60.964063 
Q 1060.6225 60.964063 1060.6225 58.964063 
L 1060.6225 45.4 
Q 1060.6225 43.4 1058.6225 43.4 
L 938.06625 43.4 
Q 936.06625 43.4 936.06625 45.4 
L 936.06625 58.964063 
Q 936.06625 60.964063 938.06625 60.964063 
z
" style="fill: #ffffff; opacity: 0.8; stroke: #cccccc; stroke-linejoin: miter"/>
    </g>
    <g id="line2d_29">
     <path d="M 940.06625 50.9 
L 950.06625 50.9 
L 960.06625 50.9 
" style="fill: none; stroke-dasharray: 5.55,2.4; stroke-dashoffset: 0; stroke: #ff0000; stroke-width: 1.5"/>
    </g>
    <g id="text_31">
     <!-- Overall hit rate: 0.4106 -->
     <g transform="translate(968.06625 54.4) scale(0.1 -0.1)">
      <defs>
       <path id="Garamond-68" d="M 119 75 
Q 484 141 541 175 
Q 575 197 575 275 
L 572 481 
L 575 847 
L 569 1778 
L 572 2125 
L 572 2372 
L 581 2675 
Q 581 3388 567 3527 
Q 553 3666 513 3700 
Q 438 3772 100 3850 
L 100 3866 
Q 100 3888 106 3928 
Q 150 3934 190 3943 
Q 231 3953 269 3956 
Q 641 4063 809 4163 
L 963 4163 
Q 969 4075 969 3609 
L 966 3213 
L 969 2700 
L 956 2069 
Q 956 2013 963 1944 
Q 1159 2172 1250 2247 
Q 1413 2378 1597 2454 
Q 1781 2531 1984 2531 
Q 2369 2531 2613 2206 
Q 2753 2016 2753 1666 
L 2744 1347 
L 2747 1169 
L 2734 859 
Q 2722 475 2722 403 
Q 2722 322 2728 184 
L 2906 144 
Q 3084 106 3181 75 
L 3178 -22 
L 2513 -3 
Q 2456 -3 2206 -16 
Q 2053 -22 2028 -22 
L 1959 -22 
Q 1944 6 1944 25 
L 1944 53 
Q 1988 109 2106 128 
L 2294 172 
Q 2331 203 2338 238 
Q 2350 319 2366 1044 
L 2372 1275 
Q 2384 1641 2316 1881 
Q 2272 2047 2117 2145 
Q 1963 2244 1759 2244 
Q 1591 2244 1441 2172 
Q 1338 2119 1194 1987 
Q 1050 1856 994 1763 
Q 956 1700 956 1556 
L 959 1338 
L 953 1109 
Q 953 1081 963 719 
L 959 519 
L 966 300 
Q 969 253 975 231 
L 1416 125 
Q 1450 116 1519 88 
L 1528 53 
Q 1528 38 1513 3 
Q 1422 0 1375 0 
L 1131 3 
L 594 -3 
L 191 -16 
Q 159 -13 97 -9 
L 94 13 
Q 94 38 119 75 
z
" transform="scale(0.015625)"/>
      </defs>
      <use xlink:href="#Garamond-4f"/>
      <use xlink:href="#Garamond-76" x="78.125"/>
      <use xlink:href="#Garamond-65" x="123.125"/>
      <use xlink:href="#Garamond-72" x="164.775391"/>
      <use xlink:href="#Garamond-61" x="198.125"/>
      <use xlink:href="#Garamond-6c" x="238.75"/>
      <use xlink:href="#Garamond-6c" x="261.650391"/>
      <use xlink:href="#Garamond-20" x="284.550781"/>
      <use xlink:href="#Garamond-68" x="309.550781"/>
      <use xlink:href="#Garamond-69" x="360.576172"/>
      <use xlink:href="#Garamond-74" x="383.476562"/>
      <use xlink:href="#Garamond-20" x="412.626953"/>
      <use xlink:href="#Garamond-72" x="437.626953"/>
      <use xlink:href="#Garamond-61" x="470.976562"/>
      <use xlink:href="#Garamond-74" x="511.601562"/>
      <use xlink:href="#Garamond-65" x="540.751953"/>
      <use xlink:href="#Garamond-3a" x="582.402344"/>
      <use xlink:href="#Garamond-20" x="604.277344"/>
      <use xlink:href="#Garamond-30" x="629.277344"/>
      <use xlink:href="#Garamond-2e" x="676.152344"/>
      <use xlink:href="#Garamond-34" x="698.027344"/>
      <use xlink:href="#Garamond-31" x="744.902344"/>
      <use xlink:href="#Garamond-30" x="791.777344"/>
      <use xlink:href="#Garamond-36" x="838.652344"/>
     </g>
    </g>
   </g>
  </g>
  <g id="text_32">
   <!-- Source: BSIC -->
   <g transform="translate(510.435 218.88) scale(0.1 -0.1)">
    <defs>
     <path id="Garamond-6f" d="M 228 1256 
Q 228 1469 317 1711 
Q 406 1953 587 2145 
Q 769 2338 972 2431 
Q 1256 2563 1666 2563 
Q 2250 2563 2642 2163 
Q 3034 1763 3034 1200 
Q 3034 700 2623 308 
Q 2213 -84 1584 -84 
Q 1197 -84 853 119 
Q 597 272 412 572 
Q 228 872 228 1256 
z
M 1609 38 
Q 1847 38 2067 166 
Q 2288 294 2419 576 
Q 2550 859 2550 1231 
Q 2550 1475 2448 1797 
Q 2347 2119 2136 2280 
Q 1925 2441 1641 2441 
Q 1434 2441 1220 2344 
Q 1006 2247 857 1972 
Q 709 1697 709 1191 
Q 709 622 967 330 
Q 1225 38 1609 38 
z
" transform="scale(0.015625)"/>
     <path id="Garamond-75" d="M 103 2453 
L 338 2453 
L 441 2447 
L 522 2453 
Q 844 2453 922 2447 
L 925 2388 
Q 925 1947 913 1534 
Q 903 1291 903 1256 
Q 903 706 939 568 
Q 975 431 1108 348 
Q 1241 266 1428 266 
Q 1656 266 1864 361 
Q 2072 456 2219 594 
Q 2234 713 2234 856 
Q 2234 1322 2244 1484 
Q 2247 1581 2247 1653 
Q 2247 2159 2197 2225 
Q 2147 2291 1816 2325 
Q 1706 2338 1656 2347 
Q 1631 2388 1631 2409 
L 1641 2444 
Q 1722 2453 1800 2453 
L 2297 2447 
Q 2563 2453 2578 2453 
Q 2613 2453 2644 2450 
L 2650 2222 
Q 2628 1747 2625 1047 
L 2619 794 
L 2631 369 
Q 2659 319 2681 309 
Q 2719 294 2834 294 
L 2863 294 
Q 2903 294 3094 275 
Q 3097 234 3097 216 
L 3097 181 
Q 2678 91 2419 0 
Q 2316 -34 2244 -50 
Q 2228 59 2228 84 
L 2228 338 
Q 2228 353 2225 422 
Q 2184 394 2131 353 
Q 1884 163 1609 31 
Q 1425 -59 1253 -59 
Q 925 -59 719 184 
Q 509 428 509 1016 
Q 509 1047 513 1128 
Q 525 1278 525 1338 
Q 525 1359 522 1475 
Q 519 1525 519 1563 
Q 519 1591 522 1689 
Q 525 1788 525 1828 
Q 525 1881 522 1922 
L 516 2088 
L 519 2175 
Q 519 2225 469 2266 
Q 272 2319 211 2326 
Q 150 2334 103 2353 
L 103 2453 
z
" transform="scale(0.015625)"/>
     <path id="Garamond-63" d="M 2497 572 
L 2500 369 
Q 2256 109 2018 6 
Q 1781 -97 1459 -97 
Q 1109 -97 828 86 
Q 547 269 395 603 
Q 244 938 244 1259 
Q 244 1613 426 1927 
Q 609 2241 911 2395 
Q 1213 2550 1669 2550 
Q 2106 2550 2334 2400 
Q 2463 2313 2463 2175 
Q 2463 2075 2397 2009 
Q 2331 1944 2228 1944 
Q 2072 1944 1884 2138 
Q 1769 2256 1675 2301 
Q 1581 2347 1466 2347 
Q 1188 2347 1003 2119 
Q 747 1794 747 1303 
Q 747 797 1009 497 
Q 1272 197 1622 197 
Q 1866 197 2055 276 
Q 2244 356 2497 572 
z
" transform="scale(0.015625)"/>
     <path id="Garamond-42" d="M 84 3872 
L 84 3969 
Q 138 3981 169 3984 
L 463 4000 
Q 828 4031 1281 4050 
Q 1463 4056 1853 4056 
Q 2384 4056 2631 3978 
Q 2991 3863 3167 3630 
Q 3344 3397 3344 3113 
Q 3344 2650 2684 2334 
L 2669 2309 
Q 3006 2219 3222 2056 
Q 3438 1894 3553 1659 
Q 3638 1488 3638 1209 
Q 3638 744 3214 380 
Q 2791 16 2047 16 
L 1581 16 
L 1109 0 
Q 484 -6 378 -6 
Q 269 -6 163 3 
L 163 38 
Q 163 75 178 91 
Q 197 109 250 122 
Q 641 203 692 233 
Q 744 263 763 328 
Q 800 453 800 972 
Q 800 1019 797 1091 
Q 791 1300 791 1331 
L 791 1656 
Q 791 2481 772 3097 
L 769 3725 
L 766 3803 
Q 500 3841 297 3850 
Q 166 3853 84 3872 
z
M 1325 2291 
Q 1481 2259 1653 2259 
Q 2328 2259 2568 2556 
Q 2809 2853 2809 3147 
Q 2809 3278 2767 3414 
Q 2725 3550 2617 3659 
Q 2509 3769 2350 3822 
Q 2078 3913 1794 3913 
Q 1528 3913 1300 3853 
Q 1297 3788 1297 3756 
Q 1297 3725 1303 3578 
Q 1306 3484 1306 3391 
L 1297 3013 
L 1300 2788 
L 1322 2347 
L 1325 2291 
z
M 2059 166 
Q 2369 188 2578 297 
Q 2675 347 2808 476 
Q 2941 606 3014 787 
Q 3088 969 3088 1138 
Q 3088 1266 3036 1453 
Q 2984 1641 2861 1783 
Q 2738 1925 2494 2017 
Q 2250 2109 1956 2109 
Q 1388 2109 1319 2088 
Q 1316 2016 1316 1981 
L 1319 1866 
L 1316 1631 
L 1316 1366 
Q 1325 631 1350 497 
Q 1375 363 1520 266 
Q 1666 169 2059 166 
z
" transform="scale(0.015625)"/>
     <path id="Garamond-49" d="M 134 100 
Q 203 128 275 134 
Q 753 166 822 248 
Q 891 331 891 1050 
L 888 1378 
L 888 1722 
L 875 2100 
L 881 2322 
L 878 2566 
L 878 2853 
L 872 2981 
L 878 3144 
Q 881 3200 881 3275 
Q 881 3472 863 3691 
Q 850 3734 828 3775 
Q 713 3834 455 3854 
Q 197 3875 163 3900 
Q 138 3919 134 3997 
L 397 3997 
L 1225 3978 
Q 1544 3978 2075 3997 
Q 2075 3947 2069 3903 
Q 2006 3888 1859 3869 
Q 1563 3834 1497 3803 
Q 1456 3788 1438 3750 
Q 1406 3694 1400 3541 
L 1384 3138 
L 1397 1747 
L 1397 1197 
Q 1391 938 1391 844 
Q 1391 494 1408 397 
Q 1425 300 1467 258 
Q 1509 216 1606 191 
Q 1750 156 1831 153 
Q 2006 147 2053 103 
Q 2063 63 2063 34 
L 2063 9 
Q 1778 0 1644 0 
Q 1566 0 1366 9 
L 934 3 
L 200 6 
L 141 6 
L 134 100 
z
" transform="scale(0.015625)"/>
     <path id="Garamond-43" d="M 3703 3825 
Q 3741 3584 3741 3331 
Q 3741 3281 3738 3197 
Q 3694 3188 3672 3188 
Q 3653 3188 3619 3194 
Q 3488 3559 3191 3756 
Q 2894 3953 2456 3953 
Q 2225 3953 2066 3900 
Q 1784 3803 1571 3633 
Q 1359 3463 1212 3227 
Q 1066 2991 980 2655 
Q 894 2319 894 1969 
Q 894 1300 1097 864 
Q 1300 428 1653 242 
Q 2006 56 2366 56 
L 2513 59 
Q 2763 91 2853 119 
Q 3081 184 3229 273 
Q 3378 363 3520 525 
Q 3663 688 3763 903 
L 3800 916 
Q 3816 916 3847 897 
Q 3844 822 3841 800 
Q 3709 272 3650 78 
Q 3600 66 3525 41 
Q 3159 -84 2547 -84 
Q 2053 -84 1808 -17 
Q 1563 50 1273 192 
Q 984 334 765 568 
Q 547 803 412 1161 
Q 278 1519 278 1941 
Q 278 2341 384 2639 
Q 491 2938 712 3244 
Q 934 3550 1236 3753 
Q 1538 3956 1906 4041 
Q 2166 4097 2641 4097 
Q 2988 4097 3294 4005 
Q 3600 3913 3703 3825 
z
" transform="scale(0.015625)"/>
    </defs>
    <use xlink:href="#Garamond-53"/>
    <use xlink:href="#Garamond-6f" x="47.900391"/>
    <use xlink:href="#Garamond-75" x="98.925781"/>
    <use xlink:href="#Garamond-72" x="147.900391"/>
    <use xlink:href="#Garamond-63" x="181.25"/>
    <use xlink:href="#Garamond-65" x="222.900391"/>
    <use xlink:href="#Garamond-3a" x="264.550781"/>
    <use xlink:href="#Garamond-20" x="286.425781"/>
    <use xlink:href="#Garamond-42" x="311.425781"/>
    <use xlink:href="#Garamond-53" x="372.900391"/>
    <use xlink:href="#Garamond-49" x="420.800781"/>
    <use xlink:href="#Garamond-43" x="456.201172"/>
   </g>
  </g>
  <g id="text_33">
   <!-- U.K. Gilts -->
   <g transform="translate(512.859375 14.986875) scale(0.12 -0.12)">
    <defs>
     <path id="Garamond-55" d="M 1825 4013 
Q 1841 3959 1841 3931 
Q 1841 3913 1831 3875 
Q 1750 3853 1700 3853 
Q 1678 3853 1626 3858 
Q 1575 3863 1544 3863 
Q 1400 3863 1316 3806 
Q 1259 3772 1247 3716 
L 1216 3359 
L 1225 1813 
Q 1228 963 1281 755 
Q 1334 547 1459 412 
Q 1584 278 1836 190 
Q 2088 103 2325 103 
Q 2856 103 3139 256 
Q 3422 409 3545 679 
Q 3669 950 3669 1500 
Q 3669 1516 3659 1750 
L 3659 1841 
Q 3659 1891 3665 2036 
Q 3672 2181 3672 2206 
L 3625 3103 
Q 3603 3556 3573 3637 
Q 3544 3719 3488 3759 
Q 3366 3847 3025 3916 
Q 3009 3959 3006 4006 
Q 3128 4019 3247 4019 
Q 3372 4019 3509 4009 
Q 3716 3994 3734 3994 
L 4228 4009 
L 4325 4006 
L 4322 3894 
Q 3938 3844 3863 3776 
Q 3788 3709 3788 3528 
Q 3788 3431 3800 3106 
L 3822 2459 
L 3819 2203 
L 3828 1878 
Q 3828 1266 3794 1044 
Q 3744 734 3651 553 
Q 3559 372 3384 226 
Q 3209 81 2917 -12 
Q 2625 -106 2341 -106 
Q 1894 -106 1697 -44 
Q 1338 66 1125 241 
Q 913 416 831 591 
Q 722 822 722 1266 
L 722 1481 
L 713 2356 
L 722 3063 
L 722 3538 
Q 722 3719 672 3791 
Q 638 3841 572 3841 
L 388 3838 
Q 181 3838 125 3881 
Q 116 3909 116 3931 
Q 116 3959 134 3975 
Q 169 4000 219 4000 
L 300 4000 
L 509 4003 
L 1003 4003 
L 1825 4013 
z
" transform="scale(0.015625)"/>
     <path id="Garamond-4b" d="M 1388 2003 
Q 1425 2038 1513 2091 
Q 1688 2197 2116 2516 
L 2972 3216 
Q 3325 3509 3469 3678 
Q 3497 3716 3513 3756 
Q 3456 3797 3384 3815 
Q 3313 3834 3156 3843 
Q 3000 3853 2970 3873 
Q 2941 3894 2941 3925 
Q 2941 3959 2963 3978 
Q 3003 4006 3078 4006 
Q 3197 4006 3284 3989 
Q 3372 3972 3681 3972 
Q 3756 3972 3791 3975 
L 4278 4000 
Q 4353 4006 4394 4006 
Q 4431 4006 4506 4000 
Q 4506 3925 4494 3878 
Q 4156 3838 3997 3775 
Q 3906 3738 3628 3569 
Q 3419 3441 3247 3294 
L 2441 2616 
L 1953 2222 
Q 1966 2200 1991 2178 
Q 2009 2163 2084 2091 
Q 2413 1784 2970 1339 
Q 3528 894 3844 594 
Q 4306 150 4716 103 
Q 4816 91 4859 47 
L 4863 13 
L 4856 -31 
Q 4750 -38 4713 -38 
Q 4569 -38 4278 -16 
Q 4106 -3 3994 -3 
Q 3544 -3 2966 -41 
Q 2956 3 2956 25 
L 2959 50 
Q 3000 88 3122 119 
Q 3291 163 3478 169 
Q 3519 169 3566 175 
Q 3534 225 3463 291 
Q 3450 303 3378 373 
Q 3306 444 3125 603 
L 2753 900 
L 2181 1381 
Q 1897 1625 1388 2003 
z
M 181 41 
Q 197 72 228 75 
Q 544 103 725 188 
Q 788 244 788 375 
L 784 681 
L 784 1263 
L 791 1516 
L 772 2384 
L 778 2969 
Q 778 3463 759 3628 
Q 753 3691 719 3756 
Q 663 3791 625 3797 
Q 491 3819 278 3831 
Q 234 3863 234 3906 
Q 234 3922 247 3953 
Q 422 3963 866 3963 
Q 1072 3963 1191 3966 
Q 1359 3975 1597 3994 
Q 1700 3984 1841 3984 
Q 1875 3966 1875 3941 
Q 1875 3922 1869 3900 
Q 1831 3881 1728 3869 
Q 1456 3841 1359 3750 
Q 1294 3688 1294 3513 
L 1297 3453 
L 1291 2278 
L 1281 1469 
L 1303 666 
Q 1306 284 1322 245 
Q 1338 206 1372 184 
Q 1481 119 1706 97 
Q 1763 91 1816 75 
Q 1834 34 1834 6 
Q 1834 -25 1797 -53 
L 1697 -56 
Q 1634 -56 1396 -34 
Q 1159 -13 1044 -13 
Q 947 -13 775 -34 
Q 603 -56 306 -56 
Q 263 -56 188 -53 
L 181 41 
z
" transform="scale(0.015625)"/>
     <path id="Garamond-47" d="M 4172 3794 
L 4206 3319 
Q 4225 3103 4225 3025 
L 4138 3009 
Q 3928 3484 3617 3721 
Q 3306 3959 2856 3959 
Q 2306 3959 2000 3825 
Q 1556 3634 1240 3162 
Q 925 2691 925 2025 
Q 925 1641 1040 1334 
Q 1156 1028 1367 764 
Q 1578 500 1866 306 
Q 2053 178 2313 113 
Q 2459 78 2750 78 
Q 2938 78 3166 131 
Q 3394 184 3509 273 
Q 3625 363 3667 475 
Q 3709 588 3709 913 
Q 3709 1453 3637 1542 
Q 3566 1631 3184 1659 
L 3059 1669 
L 2975 1666 
Q 2956 1669 2925 1675 
L 2878 1753 
Q 2878 1769 2900 1794 
Q 3063 1819 3606 1819 
Q 3728 1819 4003 1813 
L 4325 1800 
L 4616 1803 
Q 4700 1803 4819 1797 
Q 4841 1794 4847 1786 
Q 4853 1778 4853 1759 
Q 4853 1725 4838 1672 
Q 4706 1644 4634 1644 
L 4431 1647 
Q 4328 1647 4266 1575 
Q 4234 1541 4234 1341 
L 4238 931 
Q 4238 509 4203 394 
Q 4184 325 4125 270 
Q 4066 216 3875 141 
Q 3603 31 3381 -6 
Q 2969 -78 2584 -78 
Q 1966 -78 1570 80 
Q 1175 238 889 519 
Q 603 800 481 1088 
Q 297 1509 297 1947 
Q 297 2494 586 3017 
Q 875 3541 1519 3869 
Q 1972 4100 2750 4100 
Q 3288 4100 3630 4006 
Q 3972 3913 4172 3794 
z
" transform="scale(0.015625)"/>
    </defs>
    <use xlink:href="#Garamond-55"/>
    <use xlink:href="#Garamond-2e" x="61.474609"/>
    <use xlink:href="#Garamond-4b" x="83.349609"/>
    <use xlink:href="#Garamond-2e" x="157.324219"/>
    <use xlink:href="#Garamond-20" x="179.199219"/>
    <use xlink:href="#Garamond-47" x="204.199219"/>
    <use xlink:href="#Garamond-69" x="281.298828"/>
    <use xlink:href="#Garamond-6c" x="304.199219"/>
    <use xlink:href="#Garamond-74" x="327.099609"/>
    <use xlink:href="#Garamond-73" x="356.25"/>
   </g>
  </g>
 </g>
 <defs>
  <clipPath id="pbfe4fb0dab">
   <rect x="28.2625" y="38.4" width="505.1" height="150.76"/>
  </clipPath>
  <clipPath id="p5d41120114">
   <rect x="560.5225" y="38.4" width="505.1" height="150.76"/>
  </clipPath>
 </defs>
</svg>
